<mxfile host="app.diagrams.net" modified="2024-04-21T08:58:37.386Z" agent="Mozilla/5.0 (Windows NT 10.0; Win64; x64) AppleWebKit/537.36 (KHTML, like Gecko) Chrome/124.0.0.0 Safari/537.36" etag="KSiR6jz0IZHjDfrTuqnT" version="24.2.5" type="github">
  <diagram name="第 1 页" id="37Hit_hxpNlFyK5ZRk7K">
    <mxGraphModel dx="1434" dy="745" grid="1" gridSize="10" guides="1" tooltips="1" connect="1" arrows="1" fold="1" page="1" pageScale="1" pageWidth="827" pageHeight="1169" math="0" shadow="0">
      <root>
        <mxCell id="0" />
        <mxCell id="1" parent="0" />
        <mxCell id="XdAkhKP-J2ckDoqyLxTf-3" value="" style="group;strokeColor=none;" vertex="1" connectable="0" parent="1">
          <mxGeometry x="60" y="210" width="1410" height="432" as="geometry" />
        </mxCell>
        <mxCell id="XdAkhKP-J2ckDoqyLxTf-1" value="" style="shape=image;verticalLabelPosition=bottom;labelBackgroundColor=default;verticalAlign=top;aspect=fixed;imageAspect=0;image=data:image/svg+xml,PHN2ZyB4bWxucz0iaHR0cDovL3d3dy53My5vcmcvMjAwMC9zdmciIHhtbG5zOnhsaW5rPSJodHRwOi8vd3d3LnczLm9yZy8xOTk5L3hsaW5rIiB2ZXJzaW9uPSIxLjEiIHZpZXdCb3g9IjAgMCA3MjAgNDMyIiBoZWlnaHQ9IjQzMnB0IiB3aWR0aD0iNzIwcHQiPiYjeGE7IDxtZXRhZGF0YT4mI3hhOyAgJiN4YTsgICAmI3hhOyAgICAmI3hhOyAgICAyMDI0LTA0LTE5VDE3OjU2OjE0LjcyNzczNyYjeGE7ICAgIGltYWdlL3N2Zyt4bWwmI3hhOyAgICAmI3hhOyAgICAgJiN4YTsgICAgICBNYXRwbG90bGliIHYzLjguMCwgaHR0cHM6Ly9tYXRwbG90bGliLm9yZy8mI3hhOyAgICAgJiN4YTsgICAgJiN4YTsgICAmI3hhOyAgJiN4YTsgPC9tZXRhZGF0YT4mI3hhOyA8ZGVmcz4mI3hhOyAgPHN0eWxlIHR5cGU9InRleHQvY3NzIj4qe3N0cm9rZS1saW5lam9pbjogcm91bmQ7IHN0cm9rZS1saW5lY2FwOiBidXR0fTwvc3R5bGU+JiN4YTsgPC9kZWZzPiYjeGE7IDxnIGlkPSJmaWd1cmVfMSI+JiN4YTsgIDxnIGlkPSJwYXRjaF8xIj4mI3hhOyAgIDxwYXRoIHN0eWxlPSJmaWxsOiAjZmZmZmZmIiBkPSJNIDAgNDMyICYjMTA7TCA3MjAgNDMyICYjMTA7TCA3MjAgMCAmIzEwO0wgMCAwICYjMTA7eiIvPiYjeGE7ICA8L2c+JiN4YTsgIDxnIGlkPSJheGVzXzEiPiYjeGE7ICAgPGcgaWQ9InBhdGNoXzIiPiYjeGE7ICAgIDxwYXRoIHN0eWxlPSJmaWxsOiAjZmZmZmZmIiBkPSJNIDkwIDM4NC40OCAmIzEwO0wgNjQ4IDM4NC40OCAmIzEwO0wgNjQ4IDUxLjg0ICYjMTA7TCA5MCA1MS44NCAmIzEwO3oiLz4mI3hhOyAgIDwvZz4mI3hhOyAgIDxnIGlkPSJtYXRwbG90bGliLmF4aXNfMSI+JiN4YTsgICAgPGcgaWQ9Inh0aWNrXzEiPiYjeGE7ICAgICA8ZyBpZD0ibGluZTJkXzEiPiYjeGE7ICAgICAgPHBhdGggc3R5bGU9ImZpbGw6IG5vbmU7IHN0cm9rZTogI2NjY2NjYzsgc3Ryb2tlLWxpbmVjYXA6IHJvdW5kIiBjbGlwLXBhdGg9InVybCgjcGY0YjVjODdlODkpIiBkPSJNIDEwOC4xMTY4ODMgMzg0LjQ4ICYjMTA7TCAxMDguMTE2ODgzIDUxLjg0Ii8+JiN4YTsgICAgIDwvZz4mI3hhOyAgICAgPGcgaWQ9InRleHRfMSI+JiN4YTsgICAgICAmI3hhOyAgICAgIDxnIHRyYW5zZm9ybT0idHJhbnNsYXRlKDEwMy41MjkxMSA0MDUuNzkwMzkxKSBzY2FsZSgwLjE2NSAtMC4xNjUpIiBzdHlsZT0iZmlsbDogIzI2MjYyNiI+JiN4YTsgICAgICAgPGRlZnM+JiN4YTsgICAgICAgIDxwYXRoIHRyYW5zZm9ybT0ic2NhbGUoMC4wMTU2MjUpIiBkPSJNIDI2NiAyMjU5ICYjMTA7USAyNjYgMzA3MiA0MzMgMzU2NyAmIzEwO1EgNjAwIDQwNjMgOTI5IDQzMzEgJiMxMDtRIDEyNTkgNDYwMCAxNzU5IDQ2MDAgJiMxMDtRIDIxMjggNDYwMCAyNDA2IDQ0NTEgJiMxMDtRIDI2ODQgNDMwMyAyODY1IDQwMjMgJiMxMDtRIDMwNDcgMzc0NCAzMTUwIDMzNDIgJiMxMDtRIDMyNTMgMjk0MSAzMjUzIDIyNTkgJiMxMDtRIDMyNTMgMTQ1MyAzMDg3IDk1OCAmIzEwO1EgMjkyMiA0NjMgMjU5MiAxOTIgJiMxMDtRIDIyNjMgLTc4IDE3NTkgLTc4ICYjMTA7USAxMDk3IC03OCA3MTkgMzk3ICYjMTA7USAyNjYgOTY5IDI2NiAyMjU5ICYjMTA7eiYjMTA7TSA4NDQgMjI1OSAmIzEwO1EgODQ0IDExMzEgMTEwOCA3NTcgJiMxMDtRIDEzNzIgMzg0IDE3NTkgMzg0ICYjMTA7USAyMTQ3IDM4NCAyNDExIDc1OSAmIzEwO1EgMjY3NSAxMTM0IDI2NzUgMjI1OSAmIzEwO1EgMjY3NSAzMzkxIDI0MTEgMzc2MiAmIzEwO1EgMjE0NyA0MTM0IDE3NTMgNDEzNCAmIzEwO1EgMTM2NiA0MTM0IDExMzQgMzgwNiAmIzEwO1EgODQ0IDMzODggODQ0IDIyNTkgJiMxMDt6IiBpZD0iQXJpYWxNVC0zMCIvPiYjeGE7ICAgICAgIDwvZGVmcz4mI3hhOyAgICAgICA8dXNlIHhsaW5rOmhyZWY9IiNBcmlhbE1ULTMwIi8+JiN4YTsgICAgICA8L2c+JiN4YTsgICAgIDwvZz4mI3hhOyAgICA8L2c+JiN4YTsgICAgPGcgaWQ9Inh0aWNrXzIiPiYjeGE7ICAgICA8ZyBpZD0ibGluZTJkXzIiPiYjeGE7ICAgICAgPHBhdGggc3R5bGU9ImZpbGw6IG5vbmU7IHN0cm9rZTogI2NjY2NjYzsgc3Ryb2tlLWxpbmVjYXA6IHJvdW5kIiBjbGlwLXBhdGg9InVybCgjcGY0YjVjODdlODkpIiBkPSJNIDE4MC41ODQ0MTYgMzg0LjQ4ICYjMTA7TCAxODAuNTg0NDE2IDUxLjg0Ii8+JiN4YTsgICAgIDwvZz4mI3hhOyAgICAgPGcgaWQ9InRleHRfMiI+JiN4YTsgICAgICAmI3hhOyAgICAgIDxnIHRyYW5zZm9ybT0idHJhbnNsYXRlKDE3MS40MDg4NjkgNDA1Ljc5MDM5MSkgc2NhbGUoMC4xNjUgLTAuMTY1KSIgc3R5bGU9ImZpbGw6ICMyNjI2MjYiPiYjeGE7ICAgICAgIDxkZWZzPiYjeGE7ICAgICAgICA8cGF0aCB0cmFuc2Zvcm09InNjYWxlKDAuMDE1NjI1KSIgZD0iTSAyMzg0IDAgJiMxMDtMIDE4MjIgMCAmIzEwO0wgMTgyMiAzNTg0ICYjMTA7USAxNjE5IDMzOTEgMTI4OSAzMTk3ICYjMTA7USA5NTkgMzAwMyA2OTcgMjkwNiAmIzEwO0wgNjk3IDM0NTAgJiMxMDtRIDExNjkgMzY3MiAxNTIyIDM5ODcgJiMxMDtRIDE4NzUgNDMwMyAyMDIyIDQ2MDAgJiMxMDtMIDIzODQgNDYwMCAmIzEwO0wgMjM4NCAwICYjMTA7eiIgaWQ9IkFyaWFsTVQtMzEiLz4mI3hhOyAgICAgICA8L2RlZnM+JiN4YTsgICAgICAgPHVzZSB4bGluazpocmVmPSIjQXJpYWxNVC0zMSIvPiYjeGE7ICAgICAgIDx1c2UgeD0iNTUuNjE1MjM0IiB4bGluazpocmVmPSIjQXJpYWxNVC0zMCIvPiYjeGE7ICAgICAgPC9nPiYjeGE7ICAgICA8L2c+JiN4YTsgICAgPC9nPiYjeGE7ICAgIDxnIGlkPSJ4dGlja18zIj4mI3hhOyAgICAgPGcgaWQ9ImxpbmUyZF8zIj4mI3hhOyAgICAgIDxwYXRoIHN0eWxlPSJmaWxsOiBub25lOyBzdHJva2U6ICNjY2NjY2M7IHN0cm9rZS1saW5lY2FwOiByb3VuZCIgY2xpcC1wYXRoPSJ1cmwoI3BmNGI1Yzg3ZTg5KSIgZD0iTSAyNTMuMDUxOTQ4IDM4NC40OCAmIzEwO0wgMjUzLjA1MTk0OCA1MS44NCIvPiYjeGE7ICAgICA8L2c+JiN4YTsgICAgIDxnIGlkPSJ0ZXh0XzMiPiYjeGE7ICAgICAgJiN4YTsgICAgICA8ZyB0cmFuc2Zvcm09InRyYW5zbGF0ZSgyNDMuODc2NDAxIDQwNS43OTAzOTEpIHNjYWxlKDAuMTY1IC0wLjE2NSkiIHN0eWxlPSJmaWxsOiAjMjYyNjI2Ij4mI3hhOyAgICAgICA8ZGVmcz4mI3hhOyAgICAgICAgPHBhdGggdHJhbnNmb3JtPSJzY2FsZSgwLjAxNTYyNSkiIGQ9Ik0gMzIyMiA1NDEgJiMxMDtMIDMyMjIgMCAmIzEwO0wgMTk0IDAgJiMxMDtRIDE4OCAyMDMgMjU5IDM5MSAmIzEwO1EgMzc1IDcwMCA2MjkgMTAwMCAmIzEwO1EgODg0IDEzMDAgMTM2NiAxNjk0ICYjMTA7USAyMTEzIDIzMDYgMjM3NSAyNjY0ICYjMTA7USAyNjM4IDMwMjIgMjYzOCAzMzQxICYjMTA7USAyNjM4IDM2NzUgMjM5OCAzOTA0ICYjMTA7USAyMTU5IDQxMzQgMTc3NSA0MTM0ICYjMTA7USAxMzY5IDQxMzQgMTEyNSAzODkwICYjMTA7USA4ODEgMzY0NyA4NzggMzIxNiAmIzEwO0wgMzAwIDMyNzUgJiMxMDtRIDM1OSAzOTIyIDc0NiA0MjYxICYjMTA7USAxMTM0IDQ2MDAgMTc4OCA0NjAwICYjMTA7USAyNDQ3IDQ2MDAgMjgzMSA0MjM0ICYjMTA7USAzMjE2IDM4NjkgMzIxNiAzMzI4ICYjMTA7USAzMjE2IDMwNTMgMzEwMyAyNzg3ICYjMTA7USAyOTkxIDI1MjIgMjczMCAyMjI4ICYjMTA7USAyNDY5IDE5MzQgMTg2MyAxNDIyICYjMTA7USAxMzU2IDk5NyAxMjEyIDg0NSAmIzEwO1EgMTA2OSA2OTQgOTc1IDU0MSAmIzEwO0wgMzIyMiA1NDEgJiMxMDt6IiBpZD0iQXJpYWxNVC0zMiIvPiYjeGE7ICAgICAgIDwvZGVmcz4mI3hhOyAgICAgICA8dXNlIHhsaW5rOmhyZWY9IiNBcmlhbE1ULTMyIi8+JiN4YTsgICAgICAgPHVzZSB4PSI1NS42MTUyMzQiIHhsaW5rOmhyZWY9IiNBcmlhbE1ULTMwIi8+JiN4YTsgICAgICA8L2c+JiN4YTsgICAgIDwvZz4mI3hhOyAgICA8L2c+JiN4YTsgICAgPGcgaWQ9Inh0aWNrXzQiPiYjeGE7ICAgICA8ZyBpZD0ibGluZTJkXzQiPiYjeGE7ICAgICAgPHBhdGggc3R5bGU9ImZpbGw6IG5vbmU7IHN0cm9rZTogI2NjY2NjYzsgc3Ryb2tlLWxpbmVjYXA6IHJvdW5kIiBjbGlwLXBhdGg9InVybCgjcGY0YjVjODdlODkpIiBkPSJNIDMyNS41MTk0ODEgMzg0LjQ4ICYjMTA7TCAzMjUuNTE5NDgxIDUxLjg0Ii8+JiN4YTsgICAgIDwvZz4mI3hhOyAgICAgPGcgaWQ9InRleHRfNCI+JiN4YTsgICAgICAmI3hhOyAgICAgIDxnIHRyYW5zZm9ybT0idHJhbnNsYXRlKDMxNi4zNDM5MzQgNDA1Ljc5MDM5MSkgc2NhbGUoMC4xNjUgLTAuMTY1KSIgc3R5bGU9ImZpbGw6ICMyNjI2MjYiPiYjeGE7ICAgICAgIDxkZWZzPiYjeGE7ICAgICAgICA8cGF0aCB0cmFuc2Zvcm09InNjYWxlKDAuMDE1NjI1KSIgZD0iTSAyNjkgMTIwOSAmIzEwO0wgODMxIDEyODQgJiMxMDtRIDkyOCA4MDYgMTE2MSA1OTUgJiMxMDtRIDEzOTQgMzg0IDE3MjggMzg0ICYjMTA7USAyMTI1IDM4NCAyMzk4IDY1OSAmIzEwO1EgMjY3MiA5MzQgMjY3MiAxMzQxICYjMTA7USAyNjcyIDE3MjggMjQxOSAxOTc5ICYjMTA7USAyMTY2IDIyMzEgMTc3NSAyMjMxICYjMTA7USAxNjE2IDIyMzEgMTM3OCAyMTY5ICYjMTA7TCAxNDQxIDI2NjMgJiMxMDtRIDE0OTcgMjY1NiAxNTMxIDI2NTYgJiMxMDtRIDE4OTEgMjY1NiAyMTc4IDI4NDMgJiMxMDtRIDI0NjYgMzAzMSAyNDY2IDM0MjIgJiMxMDtRIDI0NjYgMzczMSAyMjU2IDM5MzQgJiMxMDtRIDIwNDcgNDEzOCAxNzE2IDQxMzggJiMxMDtRIDEzODggNDEzOCAxMTY5IDM5MzEgJiMxMDtRIDk1MCAzNzI1IDg4OCAzMzEzICYjMTA7TCAzMjUgMzQxMyAmIzEwO1EgNDI4IDM5NzggNzkzIDQyODkgJiMxMDtRIDExNTkgNDYwMCAxNzAzIDQ2MDAgJiMxMDtRIDIwNzggNDYwMCAyMzkzIDQ0MzkgJiMxMDtRIDI3MDkgNDI3OCAyODc2IDQwMDAgJiMxMDtRIDMwNDQgMzcyMiAzMDQ0IDM0MDkgJiMxMDtRIDMwNDQgMzExMyAyODg0IDI4NjkgJiMxMDtRIDI3MjUgMjYyNSAyNDEzIDI0ODEgJiMxMDtRIDI4MTkgMjM4OCAzMDQ0IDIwOTIgJiMxMDtRIDMyNjkgMTc5NyAzMjY5IDEzNTMgJiMxMDtRIDMyNjkgNzUzIDI4MzEgMzM2ICYjMTA7USAyMzk0IC04MSAxNzI1IC04MSAmIzEwO1EgMTEyMiAtODEgNzIzIDI3OCAmIzEwO1EgMzI1IDYzOCAyNjkgMTIwOSAmIzEwO3oiIGlkPSJBcmlhbE1ULTMzIi8+JiN4YTsgICAgICAgPC9kZWZzPiYjeGE7ICAgICAgIDx1c2UgeGxpbms6aHJlZj0iI0FyaWFsTVQtMzMiLz4mI3hhOyAgICAgICA8dXNlIHg9IjU1LjYxNTIzNCIgeGxpbms6aHJlZj0iI0FyaWFsTVQtMzAiLz4mI3hhOyAgICAgIDwvZz4mI3hhOyAgICAgPC9nPiYjeGE7ICAgIDwvZz4mI3hhOyAgICA8ZyBpZD0ieHRpY2tfNSI+JiN4YTsgICAgIDxnIGlkPSJsaW5lMmRfNSI+JiN4YTsgICAgICA8cGF0aCBzdHlsZT0iZmlsbDogbm9uZTsgc3Ryb2tlOiAjY2NjY2NjOyBzdHJva2UtbGluZWNhcDogcm91bmQiIGNsaXAtcGF0aD0idXJsKCNwZjRiNWM4N2U4OSkiIGQ9Ik0gMzk3Ljk4NzAxMyAzODQuNDggJiMxMDtMIDM5Ny45ODcwMTMgNTEuODQiLz4mI3hhOyAgICAgPC9nPiYjeGE7ICAgICA8ZyBpZD0idGV4dF81Ij4mI3hhOyAgICAgICYjeGE7ICAgICAgPGcgdHJhbnNmb3JtPSJ0cmFuc2xhdGUoMzg4LjgxMTQ2NiA0MDUuNzkwMzkxKSBzY2FsZSgwLjE2NSAtMC4xNjUpIiBzdHlsZT0iZmlsbDogIzI2MjYyNiI+JiN4YTsgICAgICAgPGRlZnM+JiN4YTsgICAgICAgIDxwYXRoIHRyYW5zZm9ybT0ic2NhbGUoMC4wMTU2MjUpIiBkPSJNIDIwNjkgMCAmIzEwO0wgMjA2OSAxMDk3ICYjMTA7TCA4MSAxMDk3ICYjMTA7TCA4MSAxNjEzICYjMTA7TCAyMTcyIDQ1ODEgJiMxMDtMIDI2MzEgNDU4MSAmIzEwO0wgMjYzMSAxNjEzICYjMTA7TCAzMjUwIDE2MTMgJiMxMDtMIDMyNTAgMTA5NyAmIzEwO0wgMjYzMSAxMDk3ICYjMTA7TCAyNjMxIDAgJiMxMDtMIDIwNjkgMCAmIzEwO3omIzEwO00gMjA2OSAxNjEzICYjMTA7TCAyMDY5IDM2NzggJiMxMDtMIDYzNCAxNjEzICYjMTA7TCAyMDY5IDE2MTMgJiMxMDt6IiBpZD0iQXJpYWxNVC0zNCIvPiYjeGE7ICAgICAgIDwvZGVmcz4mI3hhOyAgICAgICA8dXNlIHhsaW5rOmhyZWY9IiNBcmlhbE1ULTM0Ii8+JiN4YTsgICAgICAgPHVzZSB4PSI1NS42MTUyMzQiIHhsaW5rOmhyZWY9IiNBcmlhbE1ULTMwIi8+JiN4YTsgICAgICA8L2c+JiN4YTsgICAgIDwvZz4mI3hhOyAgICA8L2c+JiN4YTsgICAgPGcgaWQ9Inh0aWNrXzYiPiYjeGE7ICAgICA8ZyBpZD0ibGluZTJkXzYiPiYjeGE7ICAgICAgPHBhdGggc3R5bGU9ImZpbGw6IG5vbmU7IHN0cm9rZTogI2NjY2NjYzsgc3Ryb2tlLWxpbmVjYXA6IHJvdW5kIiBjbGlwLXBhdGg9InVybCgjcGY0YjVjODdlODkpIiBkPSJNIDQ3MC40NTQ1NDUgMzg0LjQ4ICYjMTA7TCA0NzAuNDU0NTQ1IDUxLjg0Ii8+JiN4YTsgICAgIDwvZz4mI3hhOyAgICAgPGcgaWQ9InRleHRfNiI+JiN4YTsgICAgICAmI3hhOyAgICAgIDxnIHRyYW5zZm9ybT0idHJhbnNsYXRlKDQ2MS4yNzg5OTkgNDA1Ljc5MDM5MSkgc2NhbGUoMC4xNjUgLTAuMTY1KSIgc3R5bGU9ImZpbGw6ICMyNjI2MjYiPiYjeGE7ICAgICAgIDxkZWZzPiYjeGE7ICAgICAgICA8cGF0aCB0cmFuc2Zvcm09InNjYWxlKDAuMDE1NjI1KSIgZD0iTSAyNjYgMTIwMCAmIzEwO0wgODU2IDEyNTAgJiMxMDtRIDkyMiA4MTkgMTE2MSA2MDEgJiMxMDtRIDE0MDAgMzg0IDE3MzggMzg0ICYjMTA7USAyMTQ0IDM4NCAyNDI1IDY5MCAmIzEwO1EgMjcwNiA5OTcgMjcwNiAxNTAzICYjMTA7USAyNzA2IDE5ODQgMjQzNiAyMjYyICYjMTA7USAyMTY2IDI1NDEgMTcyOCAyNTQxICYjMTA7USAxNDU2IDI1NDEgMTIzNyAyNDE3ICYjMTA7USAxMDE5IDIyOTQgODk0IDIwOTcgJiMxMDtMIDM2NiAyMTY2ICYjMTA7TCA4MDkgNDUxOSAmIzEwO0wgMzA4OCA0NTE5ICYjMTA7TCAzMDg4IDM5ODEgJiMxMDtMIDEyNTkgMzk4MSAmIzEwO0wgMTAxMyAyNzUwICYjMTA7USAxNDI1IDMwMzggMTg3OCAzMDM4ICYjMTA7USAyNDc4IDMwMzggMjg5MCAyNjIyICYjMTA7USAzMzAzIDIyMDYgMzMwMyAxNTUzICYjMTA7USAzMzAzIDkzMSAyOTQxIDQ3OCAmIzEwO1EgMjUwMCAtNzggMTczOCAtNzggJiMxMDtRIDExMTMgLTc4IDcxNyAyNzIgJiMxMDtRIDMyMiA2MjIgMjY2IDEyMDAgJiMxMDt6IiBpZD0iQXJpYWxNVC0zNSIvPiYjeGE7ICAgICAgIDwvZGVmcz4mI3hhOyAgICAgICA8dXNlIHhsaW5rOmhyZWY9IiNBcmlhbE1ULTM1Ii8+JiN4YTsgICAgICAgPHVzZSB4PSI1NS42MTUyMzQiIHhsaW5rOmhyZWY9IiNBcmlhbE1ULTMwIi8+JiN4YTsgICAgICA8L2c+JiN4YTsgICAgIDwvZz4mI3hhOyAgICA8L2c+JiN4YTsgICAgPGcgaWQ9Inh0aWNrXzciPiYjeGE7ICAgICA8ZyBpZD0ibGluZTJkXzciPiYjeGE7ICAgICAgPHBhdGggc3R5bGU9ImZpbGw6IG5vbmU7IHN0cm9rZTogI2NjY2NjYzsgc3Ryb2tlLWxpbmVjYXA6IHJvdW5kIiBjbGlwLXBhdGg9InVybCgjcGY0YjVjODdlODkpIiBkPSJNIDU0Mi45MjIwNzggMzg0LjQ4ICYjMTA7TCA1NDIuOTIyMDc4IDUxLjg0Ii8+JiN4YTsgICAgIDwvZz4mI3hhOyAgICAgPGcgaWQ9InRleHRfNyI+JiN4YTsgICAgICAmI3hhOyAgICAgIDxnIHRyYW5zZm9ybT0idHJhbnNsYXRlKDUzMy43NDY1MzEgNDA1Ljc5MDM5MSkgc2NhbGUoMC4xNjUgLTAuMTY1KSIgc3R5bGU9ImZpbGw6ICMyNjI2MjYiPiYjeGE7ICAgICAgIDxkZWZzPiYjeGE7ICAgICAgICA8cGF0aCB0cmFuc2Zvcm09InNjYWxlKDAuMDE1NjI1KSIgZD0iTSAzMTg0IDM0NTkgJiMxMDtMIDI2MjUgMzQxNiAmIzEwO1EgMjU1MCAzNzQ3IDI0MTMgMzg5NyAmIzEwO1EgMjE4NCA0MTM4IDE4NTAgNDEzOCAmIzEwO1EgMTU4MSA0MTM4IDEzNzggMzk4OCAmIzEwO1EgMTExMyAzNzk0IDk1OSAzNDIyICYjMTA7USA4MDYgMzA1MCA4MDAgMjM2MyAmIzEwO1EgMTAwMyAyNjcyIDEyOTcgMjgyMiAmIzEwO1EgMTU5MSAyOTcyIDE5MTMgMjk3MiAmIzEwO1EgMjQ3NSAyOTcyIDI4NzAgMjU1OCAmIzEwO1EgMzI2NiAyMTQ0IDMyNjYgMTQ4OCAmIzEwO1EgMzI2NiAxMDU2IDMwODAgNjg2ICYjMTA7USAyODk0IDMxNiAyNTY5IDExOSAmIzEwO1EgMjI0NCAtNzggMTgzMSAtNzggJiMxMDtRIDExMjggLTc4IDY4NCA0MzkgJiMxMDtRIDI0MSA5NTYgMjQxIDIxNDQgJiMxMDtRIDI0MSAzNDcyIDczMSA0MDc1ICYjMTA7USAxMTU5IDQ2MDAgMTg4NCA0NjAwICYjMTA7USAyNDI1IDQ2MDAgMjc3MCA0Mjk3ICYjMTA7USAzMTE2IDM5OTQgMzE4NCAzNDU5ICYjMTA7eiYjMTA7TSA4ODggMTQ4NCAmIzEwO1EgODg4IDExOTQgMTAxMSA5MjggJiMxMDtRIDExMzQgNjYzIDEzNTYgNTIzICYjMTA7USAxNTc4IDM4NCAxODIyIDM4NCAmIzEwO1EgMjE3OCAzODQgMjQzNCA2NzEgJiMxMDtRIDI2OTEgOTU5IDI2OTEgMTQ1MyAmIzEwO1EgMjY5MSAxOTI4IDI0MzcgMjIwMSAmIzEwO1EgMjE4NCAyNDc1IDE4MDAgMjQ3NSAmIzEwO1EgMTQxOSAyNDc1IDExNTMgMjIwMSAmIzEwO1EgODg4IDE5MjggODg4IDE0ODQgJiMxMDt6IiBpZD0iQXJpYWxNVC0zNiIvPiYjeGE7ICAgICAgIDwvZGVmcz4mI3hhOyAgICAgICA8dXNlIHhsaW5rOmhyZWY9IiNBcmlhbE1ULTM2Ii8+JiN4YTsgICAgICAgPHVzZSB4PSI1NS42MTUyMzQiIHhsaW5rOmhyZWY9IiNBcmlhbE1ULTMwIi8+JiN4YTsgICAgICA8L2c+JiN4YTsgICAgIDwvZz4mI3hhOyAgICA8L2c+JiN4YTsgICAgPGcgaWQ9Inh0aWNrXzgiPiYjeGE7ICAgICA8ZyBpZD0ibGluZTJkXzgiPiYjeGE7ICAgICAgPHBhdGggc3R5bGU9ImZpbGw6IG5vbmU7IHN0cm9rZTogI2NjY2NjYzsgc3Ryb2tlLWxpbmVjYXA6IHJvdW5kIiBjbGlwLXBhdGg9InVybCgjcGY0YjVjODdlODkpIiBkPSJNIDYxNS4zODk2MSAzODQuNDggJiMxMDtMIDYxNS4zODk2MSA1MS44NCIvPiYjeGE7ICAgICA8L2c+JiN4YTsgICAgIDxnIGlkPSJ0ZXh0XzgiPiYjeGE7ICAgICAgJiN4YTsgICAgICA8ZyB0cmFuc2Zvcm09InRyYW5zbGF0ZSg2MDYuMjE0MDY0IDQwNS43OTAzOTEpIHNjYWxlKDAuMTY1IC0wLjE2NSkiIHN0eWxlPSJmaWxsOiAjMjYyNjI2Ij4mI3hhOyAgICAgICA8ZGVmcz4mI3hhOyAgICAgICAgPHBhdGggdHJhbnNmb3JtPSJzY2FsZSgwLjAxNTYyNSkiIGQ9Ik0gMzAzIDM5ODEgJiMxMDtMIDMwMyA0NTIyICYjMTA7TCAzMjY5IDQ1MjIgJiMxMDtMIDMyNjkgNDA4NCAmIzEwO1EgMjgzMSAzNjE5IDI0MDEgMjg0NyAmIzEwO1EgMTk3MiAyMDc1IDE3MzggMTI1OSAmIzEwO1EgMTU2OSA2ODQgMTUyMiAwICYjMTA7TCA5NDQgMCAmIzEwO1EgOTUzIDU0MSAxMTU2IDEzMDYgJiMxMDtRIDEzNTkgMjA3MiAxNzM5IDI3ODMgJiMxMDtRIDIxMTkgMzQ5NCAyNTQ3IDM5ODEgJiMxMDtMIDMwMyAzOTgxICYjMTA7eiIgaWQ9IkFyaWFsTVQtMzciLz4mI3hhOyAgICAgICA8L2RlZnM+JiN4YTsgICAgICAgPHVzZSB4bGluazpocmVmPSIjQXJpYWxNVC0zNyIvPiYjeGE7ICAgICAgIDx1c2UgeD0iNTUuNjE1MjM0IiB4bGluazpocmVmPSIjQXJpYWxNVC0zMCIvPiYjeGE7ICAgICAgPC9nPiYjeGE7ICAgICA8L2c+JiN4YTsgICAgPC9nPiYjeGE7ICAgIDxnIGlkPSJ0ZXh0XzkiPiYjeGE7ICAgICAmI3hhOyAgICAgPGcgdHJhbnNmb3JtPSJ0cmFuc2xhdGUoMzQzLjQ4MjE4OCA0MjUuOTUzODI4KSBzY2FsZSgwLjE4IC0wLjE4KSIgc3R5bGU9ImZpbGw6ICMyNjI2MjYiPiYjeGE7ICAgICAgPGRlZnM+JiN4YTsgICAgICAgPHBhdGggdHJhbnNmb3JtPSJzY2FsZSgwLjAxNTYyNSkiIGQ9Ik0gNTA2IDAgJiMxMDtMIDUwNiA0NTgxICYjMTA7TCAzODE5IDQ1ODEgJiMxMDtMIDM4MTkgNDA0MSAmIzEwO0wgMTExMyA0MDQxICYjMTA7TCAxMTEzIDI2MzggJiMxMDtMIDM2NDcgMjYzOCAmIzEwO0wgMzY0NyAyMTAwICYjMTA7TCAxMTEzIDIxMDAgJiMxMDtMIDExMTMgNTQxICYjMTA7TCAzOTI1IDU0MSAmIzEwO0wgMzkyNSAwICYjMTA7TCA1MDYgMCAmIzEwO3oiIGlkPSJBcmlhbE1ULTQ1Ii8+JiN4YTsgICAgICAgPHBhdGggdHJhbnNmb3JtPSJzY2FsZSgwLjAxNTYyNSkiIGQ9Ik0gNDIyIC0xMjcyICYjMTA7TCA0MjIgMzMxOSAmIzEwO0wgOTM0IDMzMTkgJiMxMDtMIDkzNCAyODg4ICYjMTA7USAxMTE2IDMxNDEgMTM0NCAzMjY3ICYjMTA7USAxNTcyIDMzOTQgMTg5NyAzMzk0ICYjMTA7USAyMzIyIDMzOTQgMjY0NyAzMTc1ICYjMTA7USAyOTcyIDI5NTYgMzEzNyAyNTU3ICYjMTA7USAzMzAzIDIxNTkgMzMwMyAxNjg0ICYjMTA7USAzMzAzIDExNzUgMzEyMCA3NjcgJiMxMDtRIDI5MzggMzU5IDI1ODkgMTQyICYjMTA7USAyMjQxIC03NSAxODU2IC03NSAmIzEwO1EgMTU3NSAtNzUgMTM1MSA0NCAmIzEwO1EgMTEyOCAxNjMgOTg0IDM0NCAmIzEwO0wgOTg0IC0xMjcyICYjMTA7TCA0MjIgLTEyNzIgJiMxMDt6JiMxMDtNIDkzMSAxNjQxICYjMTA7USA5MzEgMTAwMCAxMTkwIDY5NCAmIzEwO1EgMTQ1MCAzODggMTgxOSAzODggJiMxMDtRIDIxOTQgMzg4IDI0NjEgNzA1ICYjMTA7USAyNzI4IDEwMjIgMjcyOCAxNjg4ICYjMTA7USAyNzI4IDIzMjIgMjQ2NyAyNjM3ICYjMTA7USAyMjA2IDI5NTMgMTg0NCAyOTUzICYjMTA7USAxNDg0IDI5NTMgMTIwNyAyNjE3ICYjMTA7USA5MzEgMjI4MSA5MzEgMTY0MSAmIzEwO3oiIGlkPSJBcmlhbE1ULTcwIi8+JiN4YTsgICAgICAgPHBhdGggdHJhbnNmb3JtPSJzY2FsZSgwLjAxNTYyNSkiIGQ9Ik0gMjEzIDE2NTkgJiMxMDtRIDIxMyAyNTgxIDcyNSAzMDI1ICYjMTA7USAxMTUzIDMzOTQgMTc2OSAzMzk0ICYjMTA7USAyNDUzIDMzOTQgMjg4NyAyOTQ1ICYjMTA7USAzMzIyIDI0OTcgMzMyMiAxNzA2ICYjMTA7USAzMzIyIDEwNjYgMzEzMCA2OTggJiMxMDtRIDI5MzggMzMxIDI1NzAgMTI4ICYjMTA7USAyMjAzIC03NSAxNzY5IC03NSAmIzEwO1EgMTA3MiAtNzUgNjQyIDM3MiAmIzEwO1EgMjEzIDgxOSAyMTMgMTY1OSAmIzEwO3omIzEwO00gNzkxIDE2NTkgJiMxMDtRIDc5MSAxMDIyIDEwNjkgNzA1ICYjMTA7USAxMzQ3IDM4OCAxNzY5IDM4OCAmIzEwO1EgMjE4OCAzODggMjQ2NiA3MDYgJiMxMDtRIDI3NDQgMTAyNSAyNzQ0IDE2NzggJiMxMDtRIDI3NDQgMjI5NCAyNDY0IDI2MTEgJiMxMDtRIDIxODQgMjkyOCAxNzY5IDI5MjggJiMxMDtRIDEzNDcgMjkyOCAxMDY5IDI2MTIgJiMxMDtRIDc5MSAyMjk3IDc5MSAxNjU5ICYjMTA7eiIgaWQ9IkFyaWFsTVQtNmYiLz4mI3hhOyAgICAgICA8cGF0aCB0cmFuc2Zvcm09InNjYWxlKDAuMDE1NjI1KSIgZD0iTSAyNTg4IDEyMTYgJiMxMDtMIDMxNDEgMTE0NCAmIzEwO1EgMzA1MCA1NzIgMjY3NiAyNDggJiMxMDtRIDIzMDMgLTc1IDE3NTkgLTc1ICYjMTA7USAxMDc4IC03NSA2NjQgMzcwICYjMTA7USAyNTAgODE2IDI1MCAxNjQ3ICYjMTA7USAyNTAgMjE4NCA0MjggMjU4NyAmIzEwO1EgNjA2IDI5OTEgOTcwIDMxOTIgJiMxMDtRIDEzMzQgMzM5NCAxNzYzIDMzOTQgJiMxMDtRIDIzMDMgMzM5NCAyNjQ3IDMxMjAgJiMxMDtRIDI5OTEgMjg0NyAzMDg4IDIzNDQgJiMxMDtMIDI1NDEgMjI1OSAmIzEwO1EgMjQ2MyAyNTk0IDIyNjQgMjc2MiAmIzEwO1EgMjA2NiAyOTMxIDE3ODQgMjkzMSAmIzEwO1EgMTM1OSAyOTMxIDEwOTMgMjYyNiAmIzEwO1EgODI4IDIzMjIgODI4IDE2NjMgJiMxMDtRIDgyOCA5OTQgMTA4NCA2OTEgJiMxMDtRIDEzNDEgMzg4IDE3NTMgMzg4ICYjMTA7USAyMDg0IDM4OCAyMzA2IDU5MSAmIzEwO1EgMjUyOCA3OTQgMjU4OCAxMjE2ICYjMTA7eiIgaWQ9IkFyaWFsTVQtNjMiLz4mI3hhOyAgICAgICA8cGF0aCB0cmFuc2Zvcm09InNjYWxlKDAuMDE1NjI1KSIgZD0iTSA0MjIgMCAmIzEwO0wgNDIyIDQ1ODEgJiMxMDtMIDk4NCA0NTgxICYjMTA7TCA5ODQgMjkzOCAmIzEwO1EgMTM3OCAzMzk0IDE5NzggMzM5NCAmIzEwO1EgMjM0NyAzMzk0IDI2MTkgMzI0OCAmIzEwO1EgMjg5MSAzMTAzIDMwMDggMjg0NyAmIzEwO1EgMzEyNSAyNTkxIDMxMjUgMjEwMyAmIzEwO0wgMzEyNSAwICYjMTA7TCAyNTYzIDAgJiMxMDtMIDI1NjMgMjEwMyAmIzEwO1EgMjU2MyAyNTI1IDIzODAgMjcxNyAmIzEwO1EgMjE5NyAyOTA5IDE4NjMgMjkwOSAmIzEwO1EgMTYxMyAyOTA5IDEzOTIgMjc3OSAmIzEwO1EgMTE3MiAyNjUwIDEwNzggMjQyOCAmIzEwO1EgOTg0IDIyMDYgOTg0IDE4MTYgJiMxMDtMIDk4NCAwICYjMTA7TCA0MjIgMCAmIzEwO3oiIGlkPSJBcmlhbE1ULTY4Ii8+JiN4YTsgICAgICA8L2RlZnM+JiN4YTsgICAgICA8dXNlIHhsaW5rOmhyZWY9IiNBcmlhbE1ULTQ1Ii8+JiN4YTsgICAgICA8dXNlIHg9IjY2LjY5OTIxOSIgeGxpbms6aHJlZj0iI0FyaWFsTVQtNzAiLz4mI3hhOyAgICAgIDx1c2UgeD0iMTIyLjMxNDQ1MyIgeGxpbms6aHJlZj0iI0FyaWFsTVQtNmYiLz4mI3hhOyAgICAgIDx1c2UgeD0iMTc3LjkyOTY4OCIgeGxpbms6aHJlZj0iI0FyaWFsTVQtNjMiLz4mI3hhOyAgICAgIDx1c2UgeD0iMjI3LjkyOTY4OCIgeGxpbms6aHJlZj0iI0FyaWFsTVQtNjgiLz4mI3hhOyAgICAgPC9nPiYjeGE7ICAgIDwvZz4mI3hhOyAgIDwvZz4mI3hhOyAgIDxnIGlkPSJtYXRwbG90bGliLmF4aXNfMiI+JiN4YTsgICAgPGcgaWQ9Inl0aWNrXzEiPiYjeGE7ICAgICA8ZyBpZD0ibGluZTJkXzkiPiYjeGE7ICAgICAgPHBhdGggc3R5bGU9ImZpbGw6IG5vbmU7IHN0cm9rZTogI2NjY2NjYzsgc3Ryb2tlLWxpbmVjYXA6IHJvdW5kIiBjbGlwLXBhdGg9InVybCgjcGY0YjVjODdlODkpIiBkPSJNIDkwIDM2OS4zNiAmIzEwO0wgNjQ4IDM2OS4zNiIvPiYjeGE7ICAgICA8L2c+JiN4YTsgICAgIDxnIGlkPSJ0ZXh0XzEwIj4mI3hhOyAgICAgICYjeGE7ICAgICAgPGcgdHJhbnNmb3JtPSJ0cmFuc2xhdGUoNTcuNTY1IDM3NS4yNjUxOTUpIHNjYWxlKDAuMTY1IC0wLjE2NSkiIHN0eWxlPSJmaWxsOiAjMjYyNjI2Ij4mI3hhOyAgICAgICA8ZGVmcz4mI3hhOyAgICAgICAgPHBhdGggdHJhbnNmb3JtPSJzY2FsZSgwLjAxNTYyNSkiIGQ9Ik0gNTgxIDAgJiMxMDtMIDU4MSA2NDEgJiMxMDtMIDEyMjIgNjQxICYjMTA7TCAxMjIyIDAgJiMxMDtMIDU4MSAwICYjMTA7eiIgaWQ9IkFyaWFsTVQtMmUiLz4mI3hhOyAgICAgICA8L2RlZnM+JiN4YTsgICAgICAgPHVzZSB4bGluazpocmVmPSIjQXJpYWxNVC0zMCIvPiYjeGE7ICAgICAgIDx1c2UgeD0iNTUuNjE1MjM0IiB4bGluazpocmVmPSIjQXJpYWxNVC0yZSIvPiYjeGE7ICAgICAgIDx1c2UgeD0iODMuMzk4NDM4IiB4bGluazpocmVmPSIjQXJpYWxNVC0zNSIvPiYjeGE7ICAgICAgPC9nPiYjeGE7ICAgICA8L2c+JiN4YTsgICAgPC9nPiYjeGE7ICAgIDxnIGlkPSJ5dGlja18yIj4mI3hhOyAgICAgPGcgaWQ9ImxpbmUyZF8xMCI+JiN4YTsgICAgICA8cGF0aCBzdHlsZT0iZmlsbDogbm9uZTsgc3Ryb2tlOiAjY2NjY2NjOyBzdHJva2UtbGluZWNhcDogcm91bmQiIGNsaXAtcGF0aD0idXJsKCNwZjRiNWM4N2U4OSkiIGQ9Ik0gOTAgMzA0LjcyNzc1NiAmIzEwO0wgNjQ4IDMwNC43Mjc3NTYiLz4mI3hhOyAgICAgPC9nPiYjeGE7ICAgICA8ZyBpZD0idGV4dF8xMSI+JiN4YTsgICAgICAmI3hhOyAgICAgIDxnIHRyYW5zZm9ybT0idHJhbnNsYXRlKDU3LjU2NSAzMTAuNjMyOTUyKSBzY2FsZSgwLjE2NSAtMC4xNjUpIiBzdHlsZT0iZmlsbDogIzI2MjYyNiI+JiN4YTsgICAgICAgPHVzZSB4bGluazpocmVmPSIjQXJpYWxNVC0zMCIvPiYjeGE7ICAgICAgIDx1c2UgeD0iNTUuNjE1MjM0IiB4bGluazpocmVmPSIjQXJpYWxNVC0yZSIvPiYjeGE7ICAgICAgIDx1c2UgeD0iODMuMzk4NDM4IiB4bGluazpocmVmPSIjQXJpYWxNVC0zNiIvPiYjeGE7ICAgICAgPC9nPiYjeGE7ICAgICA8L2c+JiN4YTsgICAgPC9nPiYjeGE7ICAgIDxnIGlkPSJ5dGlja18zIj4mI3hhOyAgICAgPGcgaWQ9ImxpbmUyZF8xMSI+JiN4YTsgICAgICA8cGF0aCBzdHlsZT0iZmlsbDogbm9uZTsgc3Ryb2tlOiAjY2NjY2NjOyBzdHJva2UtbGluZWNhcDogcm91bmQiIGNsaXAtcGF0aD0idXJsKCNwZjRiNWM4N2U4OSkiIGQ9Ik0gOTAgMjQwLjA5NTUxMyAmIzEwO0wgNjQ4IDI0MC4wOTU1MTMiLz4mI3hhOyAgICAgPC9nPiYjeGE7ICAgICA8ZyBpZD0idGV4dF8xMiI+JiN4YTsgICAgICAmI3hhOyAgICAgIDxnIHRyYW5zZm9ybT0idHJhbnNsYXRlKDU3LjU2NSAyNDYuMDAwNzA4KSBzY2FsZSgwLjE2NSAtMC4xNjUpIiBzdHlsZT0iZmlsbDogIzI2MjYyNiI+JiN4YTsgICAgICAgPHVzZSB4bGluazpocmVmPSIjQXJpYWxNVC0zMCIvPiYjeGE7ICAgICAgIDx1c2UgeD0iNTUuNjE1MjM0IiB4bGluazpocmVmPSIjQXJpYWxNVC0yZSIvPiYjeGE7ICAgICAgIDx1c2UgeD0iODMuMzk4NDM4IiB4bGluazpocmVmPSIjQXJpYWxNVC0zNyIvPiYjeGE7ICAgICAgPC9nPiYjeGE7ICAgICA8L2c+JiN4YTsgICAgPC9nPiYjeGE7ICAgIDxnIGlkPSJ5dGlja180Ij4mI3hhOyAgICAgPGcgaWQ9ImxpbmUyZF8xMiI+JiN4YTsgICAgICA8cGF0aCBzdHlsZT0iZmlsbDogbm9uZTsgc3Ryb2tlOiAjY2NjY2NjOyBzdHJva2UtbGluZWNhcDogcm91bmQiIGNsaXAtcGF0aD0idXJsKCNwZjRiNWM4N2U4OSkiIGQ9Ik0gOTAgMTc1LjQ2MzI2OSAmIzEwO0wgNjQ4IDE3NS40NjMyNjkiLz4mI3hhOyAgICAgPC9nPiYjeGE7ICAgICA8ZyBpZD0idGV4dF8xMyI+JiN4YTsgICAgICAmI3hhOyAgICAgIDxnIHRyYW5zZm9ybT0idHJhbnNsYXRlKDU3LjU2NSAxODEuMzY4NDY0KSBzY2FsZSgwLjE2NSAtMC4xNjUpIiBzdHlsZT0iZmlsbDogIzI2MjYyNiI+JiN4YTsgICAgICAgPGRlZnM+JiN4YTsgICAgICAgIDxwYXRoIHRyYW5zZm9ybT0ic2NhbGUoMC4wMTU2MjUpIiBkPSJNIDExMzEgMjQ4NCAmIzEwO1EgNzgxIDI2MTMgNjEyIDI4NTAgJiMxMDtRIDQ0NCAzMDg4IDQ0NCAzNDE5ICYjMTA7USA0NDQgMzkxOSA4MDMgNDI1OSAmIzEwO1EgMTE2MyA0NjAwIDE3NTkgNDYwMCAmIzEwO1EgMjM1OSA0NjAwIDI3MjUgNDI1MSAmIzEwO1EgMzA5MSAzOTAzIDMwOTEgMzQwMyAmIzEwO1EgMzA5MSAzMDg0IDI5MjMgMjg0OCAmIzEwO1EgMjc1NiAyNjEzIDI0MTYgMjQ4NCAmIzEwO1EgMjgzOCAyMzQ3IDMwNTggMjA0MCAmIzEwO1EgMzI3OCAxNzM0IDMyNzggMTMwOSAmIzEwO1EgMzI3OCA3MjIgMjg2MiAzMjIgJiMxMDtRIDI0NDcgLTc4IDE3NjkgLTc4ICYjMTA7USAxMDkxIC03OCA2NzUgMzIzICYjMTA7USAyNTkgNzI1IDI1OSAxMzI1ICYjMTA7USAyNTkgMTc3MiA0ODYgMjA3MyAmIzEwO1EgNzEzIDIzNzUgMTEzMSAyNDg0ICYjMTA7eiYjMTA7TSAxMDE5IDM0MzggJiMxMDtRIDEwMTkgMzExMyAxMjI4IDI5MDYgJiMxMDtRIDE0MzggMjcwMCAxNzcyIDI3MDAgJiMxMDtRIDIwOTcgMjcwMCAyMzA1IDI5MDQgJiMxMDtRIDI1MTMgMzEwOSAyNTEzIDM0MDYgJiMxMDtRIDI1MTMgMzcxNiAyMjk4IDM5MjcgJiMxMDtRIDIwODQgNDEzOCAxNzY2IDQxMzggJiMxMDtRIDE0NDQgNDEzOCAxMjMxIDM5MzEgJiMxMDtRIDEwMTkgMzcyNSAxMDE5IDM0MzggJiMxMDt6JiMxMDtNIDgzOCAxMzIyICYjMTA7USA4MzggMTA4MSA5NTIgODU2ICYjMTA7USAxMDY2IDYzMSAxMjkxIDUwNyAmIzEwO1EgMTUxNiAzODQgMTc3NSAzODQgJiMxMDtRIDIxNzggMzg0IDI0NDAgNjQzICYjMTA7USAyNzAzIDkwMyAyNzAzIDEzMDMgJiMxMDtRIDI3MDMgMTcwOSAyNDMzIDE5NzUgJiMxMDtRIDIxNjMgMjI0MSAxNzU2IDIyNDEgJiMxMDtRIDEzNTkgMjI0MSAxMDk4IDE5NzggJiMxMDtRIDgzOCAxNzE2IDgzOCAxMzIyICYjMTA7eiIgaWQ9IkFyaWFsTVQtMzgiLz4mI3hhOyAgICAgICA8L2RlZnM+JiN4YTsgICAgICAgPHVzZSB4bGluazpocmVmPSIjQXJpYWxNVC0zMCIvPiYjeGE7ICAgICAgIDx1c2UgeD0iNTUuNjE1MjM0IiB4bGluazpocmVmPSIjQXJpYWxNVC0yZSIvPiYjeGE7ICAgICAgIDx1c2UgeD0iODMuMzk4NDM4IiB4bGluazpocmVmPSIjQXJpYWxNVC0zOCIvPiYjeGE7ICAgICAgPC9nPiYjeGE7ICAgICA8L2c+JiN4YTsgICAgPC9nPiYjeGE7ICAgIDxnIGlkPSJ5dGlja181Ij4mI3hhOyAgICAgPGcgaWQ9ImxpbmUyZF8xMyI+JiN4YTsgICAgICA8cGF0aCBzdHlsZT0iZmlsbDogbm9uZTsgc3Ryb2tlOiAjY2NjY2NjOyBzdHJva2UtbGluZWNhcDogcm91bmQiIGNsaXAtcGF0aD0idXJsKCNwZjRiNWM4N2U4OSkiIGQ9Ik0gOTAgMTEwLjgzMTAyNSAmIzEwO0wgNjQ4IDExMC44MzEwMjUiLz4mI3hhOyAgICAgPC9nPiYjeGE7ICAgICA8ZyBpZD0idGV4dF8xNCI+JiN4YTsgICAgICAmI3hhOyAgICAgIDxnIHRyYW5zZm9ybT0idHJhbnNsYXRlKDU3LjU2NSAxMTYuNzM2MjIxKSBzY2FsZSgwLjE2NSAtMC4xNjUpIiBzdHlsZT0iZmlsbDogIzI2MjYyNiI+JiN4YTsgICAgICAgPGRlZnM+JiN4YTsgICAgICAgIDxwYXRoIHRyYW5zZm9ybT0ic2NhbGUoMC4wMTU2MjUpIiBkPSJNIDM1MCAxMDU5ICYjMTA7TCA4OTEgMTEwOSAmIzEwO1EgOTU5IDcyOCAxMTUzIDU1NiAmIzEwO1EgMTM0NyAzODQgMTY1MCAzODQgJiMxMDtRIDE5MDkgMzg0IDIxMDQgNTAzICYjMTA7USAyMzAwIDYyMiAyNDI1IDgyMCAmIzEwO1EgMjU1MCAxMDE5IDI2MzQgMTM1NiAmIzEwO1EgMjcxOSAxNjk0IDI3MTkgMjA0NCAmIzEwO1EgMjcxOSAyMDgxIDI3MTYgMjE1NiAmIzEwO1EgMjU0NyAxODg4IDIyNTUgMTcyMCAmIzEwO1EgMTk2MyAxNTUzIDE2MjIgMTU1MyAmIzEwO1EgMTA1MyAxNTUzIDY1OSAxOTY1ICYjMTA7USAyNjYgMjM3OCAyNjYgMzA1MyAmIzEwO1EgMjY2IDM3NTAgNjc3IDQxNzUgJiMxMDtRIDEwODggNDYwMCAxNzA2IDQ2MDAgJiMxMDtRIDIxNTMgNDYwMCAyNTIzIDQzNTkgJiMxMDtRIDI4OTQgNDExOSAzMDg2IDM2NzMgJiMxMDtRIDMyNzggMzIyOCAzMjc4IDIzODQgJiMxMDtRIDMyNzggMTUwNiAzMDg3IDk4NiAmIzEwO1EgMjg5NyA0NjYgMjUyMCAxOTQgJiMxMDtRIDIxNDQgLTc4IDE2MzggLTc4ICYjMTA7USAxMTAwIC03OCA3NTkgMjIwICYjMTA7USA0MTkgNTE5IDM1MCAxMDU5ICYjMTA7eiYjMTA7TSAyNjUzIDMwODEgJiMxMDtRIDI2NTMgMzU2NiAyMzk1IDM4NTAgJiMxMDtRIDIxMzggNDEzNCAxNzc1IDQxMzQgJiMxMDtRIDE0MDAgNDEzNCAxMTIyIDM4MjggJiMxMDtRIDg0NCAzNTIyIDg0NCAzMDM0ICYjMTA7USA4NDQgMjU5NyAxMTA4IDIzMjMgJiMxMDtRIDEzNzIgMjA1MCAxNzU5IDIwNTAgJiMxMDtRIDIxNTAgMjA1MCAyNDAxIDIzMjMgJiMxMDtRIDI2NTMgMjU5NyAyNjUzIDMwODEgJiMxMDt6IiBpZD0iQXJpYWxNVC0zOSIvPiYjeGE7ICAgICAgIDwvZGVmcz4mI3hhOyAgICAgICA8dXNlIHhsaW5rOmhyZWY9IiNBcmlhbE1ULTMwIi8+JiN4YTsgICAgICAgPHVzZSB4PSI1NS42MTUyMzQiIHhsaW5rOmhyZWY9IiNBcmlhbE1ULTJlIi8+JiN4YTsgICAgICAgPHVzZSB4PSI4My4zOTg0MzgiIHhsaW5rOmhyZWY9IiNBcmlhbE1ULTM5Ii8+JiN4YTsgICAgICA8L2c+JiN4YTsgICAgIDwvZz4mI3hhOyAgICA8L2c+JiN4YTsgICAgPGcgaWQ9InRleHRfMTUiPiYjeGE7ICAgICAmI3hhOyAgICAgPGcgdHJhbnNmb3JtPSJ0cmFuc2xhdGUoNDkuOTg3NSAyNDAuNTEzNzUpIHJvdGF0ZSgtOTApIHNjYWxlKDAuMTggLTAuMTgpIiBzdHlsZT0iZmlsbDogIzI2MjYyNiI+JiN4YTsgICAgICA8ZGVmcz4mI3hhOyAgICAgICA8cGF0aCB0cmFuc2Zvcm09InNjYWxlKDAuMDE1NjI1KSIgZD0iTSAxODAzIDAgJiMxMDtMIDI4IDQ1ODEgJiMxMDtMIDY4NCA0NTgxICYjMTA7TCAxODc1IDEyNTMgJiMxMDtRIDIwMTkgODUzIDIxMTYgNTAzICYjMTA7USAyMjIyIDg3OCAyMzYzIDEyNTMgJiMxMDtMIDM2MDAgNDU4MSAmIzEwO0wgNDIxOSA0NTgxICYjMTA7TCAyNDI1IDAgJiMxMDtMIDE4MDMgMCAmIzEwO3oiIGlkPSJBcmlhbE1ULTU2Ii8+JiN4YTsgICAgICAgPHBhdGggdHJhbnNmb3JtPSJzY2FsZSgwLjAxNTYyNSkiIGQ9Ik0gMjU4OCA0MDkgJiMxMDtRIDIyNzUgMTQ0IDE5ODYgMzQgJiMxMDtRIDE2OTcgLTc1IDEzNjYgLTc1ICYjMTA7USA4MTkgLTc1IDUyNSAxOTIgJiMxMDtRIDIzMSA0NTkgMjMxIDg3NSAmIzEwO1EgMjMxIDExMTkgMzQyIDEzMjAgJiMxMDtRIDQ1MyAxNTIyIDYzMyAxNjQ0ICYjMTA7USA4MTMgMTc2NiAxMDM4IDE4MjggJiMxMDtRIDEyMDMgMTg3MiAxNTM4IDE5MTMgJiMxMDtRIDIyMTkgMTk5NCAyNTQxIDIxMDYgJiMxMDtRIDI1NDQgMjIyMiAyNTQ0IDIyNTMgJiMxMDtRIDI1NDQgMjU5NyAyMzg0IDI3MzggJiMxMDtRIDIxNjkgMjkyOCAxNzQ0IDI5MjggJiMxMDtRIDEzNDcgMjkyOCAxMTU4IDI3ODkgJiMxMDtRIDk2OSAyNjUwIDg3OCAyMjk3ICYjMTA7TCAzMjggMjM3MiAmIzEwO1EgNDAzIDI3MjUgNTc1IDI5NDIgJiMxMDtRIDc0NyAzMTU5IDEwNzIgMzI3NiAmIzEwO1EgMTM5NyAzMzk0IDE4MjUgMzM5NCAmIzEwO1EgMjI1MCAzMzk0IDI1MTUgMzI5NCAmIzEwO1EgMjc4MSAzMTk0IDI5MDYgMzA0MiAmIzEwO1EgMzAzMSAyODkxIDMwODEgMjY1OSAmIzEwO1EgMzEwOSAyNTE2IDMxMDkgMjE0MSAmIzEwO0wgMzEwOSAxMzkxICYjMTA7USAzMTA5IDYwNiAzMTQ1IDM5OCAmIzEwO1EgMzE4MSAxOTEgMzI4OCAwICYjMTA7TCAyNzAwIDAgJiMxMDtRIDI2MTMgMTc1IDI1ODggNDA5ICYjMTA7eiYjMTA7TSAyNTQxIDE2NjYgJiMxMDtRIDIyMzQgMTU0MSAxNjIyIDE0NTMgJiMxMDtRIDEyNzUgMTQwMyAxMTMxIDEzNDAgJiMxMDtRIDk4OCAxMjc4IDkwOSAxMTU4ICYjMTA7USA4MzEgMTAzOCA4MzEgODkxICYjMTA7USA4MzEgNjY2IDEwMDEgNTE2ICYjMTA7USAxMTcyIDM2NiAxNTAwIDM2NiAmIzEwO1EgMTgyNSAzNjYgMjA3OCA1MDggJiMxMDtRIDIzMzEgNjUwIDI0NTAgODk3ICYjMTA7USAyNTQxIDEwODggMjU0MSAxNDU5ICYjMTA7TCAyNTQxIDE2NjYgJiMxMDt6IiBpZD0iQXJpYWxNVC02MSIvPiYjeGE7ICAgICAgIDxwYXRoIHRyYW5zZm9ybT0ic2NhbGUoMC4wMTU2MjUpIiBkPSJNIDQwOSAwICYjMTA7TCA0MDkgNDU4MSAmIzEwO0wgOTcyIDQ1ODEgJiMxMDtMIDk3MiAwICYjMTA7TCA0MDkgMCAmIzEwO3oiIGlkPSJBcmlhbE1ULTZjIi8+JiN4YTsgICAgICAgPHBhdGggdHJhbnNmb3JtPSJzY2FsZSgwLjAxNTYyNSkiIGQ9Ik0gMjU5NyAwICYjMTA7TCAyNTk3IDQ4OCAmIzEwO1EgMjIwOSAtNzUgMTU0NCAtNzUgJiMxMDtRIDEyNTAgLTc1IDk5NSAzNyAmIzEwO1EgNzQxIDE1MCA2MTcgMzIwICYjMTA7USA0OTQgNDkxIDQ0NCA3MzggJiMxMDtRIDQwOSA5MDMgNDA5IDEyNjMgJiMxMDtMIDQwOSAzMzE5ICYjMTA7TCA5NzIgMzMxOSAmIzEwO0wgOTcyIDE0NzggJiMxMDtRIDk3MiAxMDM4IDEwMDYgODg0ICYjMTA7USAxMDU5IDY2MyAxMjMxIDUzNiAmIzEwO1EgMTQwMyA0MDkgMTY1NiA0MDkgJiMxMDtRIDE5MDkgNDA5IDIxMzEgNTM5ICYjMTA7USAyMzUzIDY2OSAyNDQ1IDg5MiAmIzEwO1EgMjUzOCAxMTE2IDI1MzggMTU0MSAmIzEwO0wgMjUzOCAzMzE5ICYjMTA7TCAzMTAwIDMzMTkgJiMxMDtMIDMxMDAgMCAmIzEwO0wgMjU5NyAwICYjMTA7eiIgaWQ9IkFyaWFsTVQtNzUiLz4mI3hhOyAgICAgICA8cGF0aCB0cmFuc2Zvcm09InNjYWxlKDAuMDE1NjI1KSIgZD0iTSAyNjk0IDEwNjkgJiMxMDtMIDMyNzUgOTk3ICYjMTA7USAzMTM4IDQ4OCAyNzY2IDIwNiAmIzEwO1EgMjM5NCAtNzUgMTgxNiAtNzUgJiMxMDtRIDEwODggLTc1IDY2MSAzNzMgJiMxMDtRIDIzNCA4MjIgMjM0IDE2MzEgJiMxMDtRIDIzNCAyNDY5IDY2NSAyOTMxICYjMTA7USAxMDk3IDMzOTQgMTc4NCAzMzk0ICYjMTA7USAyNDUwIDMzOTQgMjg3MiAyOTQxICYjMTA7USAzMjk0IDI0ODggMzI5NCAxNjY2ICYjMTA7USAzMjk0IDE2MTYgMzI5MSAxNTE2ICYjMTA7TCA4MTYgMTUxNiAmIzEwO1EgODQ3IDk2OSAxMTI1IDY3OCAmIzEwO1EgMTQwMyAzODggMTgxOSAzODggJiMxMDtRIDIxMjggMzg4IDIzNDcgNTUwICYjMTA7USAyNTY2IDcxMyAyNjk0IDEwNjkgJiMxMDt6JiMxMDtNIDg0NyAxOTc4ICYjMTA7TCAyNzAwIDE5NzggJiMxMDtRIDI2NjMgMjM5NyAyNDg4IDI2MDYgJiMxMDtRIDIyMTkgMjkzMSAxNzkxIDI5MzEgJiMxMDtRIDE0MDMgMjkzMSAxMTM5IDI2NzIgJiMxMDtRIDg3NSAyNDEzIDg0NyAxOTc4ICYjMTA7eiIgaWQ9IkFyaWFsTVQtNjUiLz4mI3hhOyAgICAgIDwvZGVmcz4mI3hhOyAgICAgIDx1c2UgeGxpbms6aHJlZj0iI0FyaWFsTVQtNTYiLz4mI3hhOyAgICAgIDx1c2UgeD0iNTkuMzI0MjE5IiB4bGluazpocmVmPSIjQXJpYWxNVC02MSIvPiYjeGE7ICAgICAgPHVzZSB4PSIxMTQuOTM5NDUzIiB4bGluazpocmVmPSIjQXJpYWxNVC02YyIvPiYjeGE7ICAgICAgPHVzZSB4PSIxMzcuMTU2MjUiIHhsaW5rOmhyZWY9IiNBcmlhbE1ULTc1Ii8+JiN4YTsgICAgICA8dXNlIHg9IjE5Mi43NzE0ODQiIHhsaW5rOmhyZWY9IiNBcmlhbE1ULTY1Ii8+JiN4YTsgICAgIDwvZz4mI3hhOyAgICA8L2c+JiN4YTsgICA8L2c+JiN4YTsgICA8ZyBpZD0iUG9seUNvbGxlY3Rpb25fMSIvPiYjeGE7ICAgPGcgaWQ9IlBvbHlDb2xsZWN0aW9uXzIiLz4mI3hhOyAgIDxnIGlkPSJsaW5lMmRfMTQiPiYjeGE7ICAgIDxwYXRoIHN0eWxlPSJmaWxsOiBub25lOyBzdHJva2U6ICNmZjAwMDA7IHN0cm9rZS13aWR0aDogMS41OyBzdHJva2UtbGluZWNhcDogcm91bmQiIGNsaXAtcGF0aD0idXJsKCNwZjRiNWM4N2U4OSkiIGQ9Ik0gMTE1LjM2MzYzNiAzNjkuMzYgJiMxMDtMIDEyMi42MTAzOSAzNjkuMzYgJiMxMDtMIDEyOS44NTcxNDMgMzIxLjMyODIzMyAmIzEwO0wgMTM3LjEwMzg5NiAyNjQuNDQ4NDY4ICYjMTA7TCAxNDQuMzUwNjQ5IDI1NS42MDA1MSAmIzEwO0wgMTUxLjU5NzQwMyAyNDUuOTA5ODgyICYjMTA7TCAxNTguODQ0MTU2IDI0NC4yMjQ1NDIgJiMxMDtMIDE2Ni4wOTA5MDkgMjM0Ljk1NTI4NyAmIzEwO0wgMTczLjMzNzY2MiAyMzcuOTA0NTk0ICYjMTA7TCAxODAuNTg0NDE2IDIzNC45NTUyODcgJiMxMDtMIDE4Ny44MzExNjkgMjM3LjkwNDU5NCAmIzEwO0wgMTk1LjA3NzkyMiAyMzQuMTEyNjE3ICYjMTA7TCAyMDIuMzI0Njc1IDIyNi41Mjg2MjYgJiMxMDtMIDIwOS41NzE0MjkgMjI5LjA1NjYzNiAmIzEwO0wgMjE2LjgxODE4MiAyMzEuMTYzMjcyICYjMTA7TCAyMjQuMDY0OTM1IDIyNy4zNzEyOTYgJiMxMDtMIDIzMS4zMTE2ODggMjI2Ljk0OTk2MSAmIzEwO0wgMjM4LjU1ODQ0MiAyMjguMjEzOTY2ICYjMTA7TCAyNDUuODA1MTk1IDIyNy43OTI2MzEgJiMxMDtMIDI1My4wNTE5NDggMjI2LjUyODYyNiAmIzEwO0wgMjYwLjI5ODcwMSAyMjcuNzkyNjMxICYjMTA7TCAyNjcuNTQ1NDU1IDIyOC42MzUzMDEgJiMxMDtMIDI3NC43OTIyMDggMjI4LjYzNTMwMSAmIzEwO0wgMjgyLjAzODk2MSAyMjcuMzcxMjk2ICYjMTA7TCAyODkuMjg1NzE0IDIyMy4xNTc5ODQgJiMxMDtMIDI5Ni41MzI0NjggMjI2Ljk0OTk2MSAmIzEwO0wgMzAzLjc3OTIyMSAyMjIuMzE1MzE0ICYjMTA7TCAzMTEuMDI1OTc0IDIyNC4wMDA2NTQgJiMxMDtMIDMxOC4yNzI3MjcgMjI2LjUyODYyNiAmIzEwO0wgMzI1LjUxOTQ4MSAyMjYuMTA3MjkxICYjMTA7TCAzMzIuNzY2MjM0IDIyNy4zNzEyOTYgJiMxMDtMIDM0MC4wMTI5ODcgMjI2LjEwNzI5MSAmIzEwO0wgMzQ3LjI1OTc0IDIyNi4xMDcyOTEgJiMxMDtMIDM1NC41MDY0OTQgMjE5Ljc4NzM0MiAmIzEwO0wgMzYxLjc1MzI0NyAyMjcuNzkyNjMxICYjMTA7TCAzNjkgMjI0LjAwMDY1NCAmIzEwO0wgMzc2LjI0Njc1MyAyMjYuOTQ5OTYxICYjMTA7TCAzODMuNDkzNTA2IDIyNC4wMDA2NTQgJiMxMDtMIDM5MC43NDAyNiAyMjYuMTA3MjkxICYjMTA7TCAzOTcuOTg3MDEzIDIzMC4zMjA2NDEgJiMxMDtMIDQwNS4yMzM3NjYgMjIzLjE1Nzk4NCAmIzEwO0wgNDEyLjQ4MDUxOSAyMjcuMzcxMjk2ICYjMTA7TCA0MTkuNzI3MjczIDIyMS4wNTEzNDcgJiMxMDtMIDQyNi45NzQwMjYgMjE5LjM2NjAwNyAmIzEwO0wgNDM0LjIyMDc3OSAyMjIuMzE1MzE0ICYjMTA7TCA0NDEuNDY3NTMyIDIyNC4wMDA2NTQgJiMxMDtMIDQ0OC43MTQyODYgMjI2Ljk0OTk2MSAmIzEwO0wgNDU1Ljk2MTAzOSAyMjYuNTI4NjI2ICYjMTA7TCA0NjMuMjA3NzkyIDIzMC4zMjA2NDEgJiMxMDtMIDQ3MC40NTQ1NDUgMjI1LjI2NDY1OSAmIzEwO0wgNDc3LjcwMTI5OSAyMjQuODQzMzI0ICYjMTA7TCA0ODQuOTQ4MDUyIDIyOC42MzUzMDEgJiMxMDtMIDQ5Mi4xOTQ4MDUgMjIxLjQ3MjY0NCAmIzEwO0wgNDk5LjQ0MTU1OCAyMjYuMTA3MjkxICYjMTA7TCA1MDYuNjg4MzEyIDIyNS4yNjQ2NTkgJiMxMDtMIDUxMy45MzUwNjUgMjE4LjUyMzMzNyAmIzEwO0wgNTIxLjE4MTgxOCAyMjguMjEzOTY2ICYjMTA7TCA1MjguNDI4NTcxIDIyNi4xMDcyOTEgJiMxMDtMIDUzNS42NzUzMjUgMjI0LjAwMDY1NCAmIzEwO0wgNTQyLjkyMjA3OCAyMjMuMTU3OTg0ICYjMTA7TCA1NTAuMTY4ODMxIDIyNi45NDk5NjEgJiMxMDtMIDU1Ny40MTU1ODQgMjIzLjU3OTMxOSAmIzEwO0wgNTY0LjY2MjMzOCAyMjYuOTQ5OTYxICYjMTA7TCA1NzEuOTA5MDkxIDIyNS42ODU5OTQgJiMxMDtMIDU3OS4xNTU4NDQgMjI1LjY4NTk5NCAmIzEwO0wgNTg2LjQwMjU5NyAyMzIuMDA1OTQyICYjMTA7TCA1OTMuNjQ5MzUxIDIxOC45NDQ2NzIgJiMxMDtMIDYwMC44OTYxMDQgMjMzLjI2OTk0NyAmIzEwO0wgNjA4LjE0Mjg1NyAyMjkuMDU2NjM2ICYjMTA7TCA2MTUuMzg5NjEgMjMwLjc0MTkzNyAmIzEwO0wgNjIyLjYzNjM2NCAyMjMuMTU3OTg0Ii8+JiN4YTsgICAgPGRlZnM+JiN4YTsgICAgIDxwYXRoIHN0eWxlPSJzdHJva2U6ICNmZmZmZmY7IHN0cm9rZS13aWR0aDogMC43NSIgZD0iTSAwIDMgJiMxMDtDIDAuNzk1NjA5IDMgMS41NTg3NCAyLjY4MzkwMSAyLjEyMTMyIDIuMTIxMzIgJiMxMDtDIDIuNjgzOTAxIDEuNTU4NzQgMyAwLjc5NTYwOSAzIDAgJiMxMDtDIDMgLTAuNzk1NjA5IDIuNjgzOTAxIC0xLjU1ODc0IDIuMTIxMzIgLTIuMTIxMzIgJiMxMDtDIDEuNTU4NzQgLTIuNjgzOTAxIDAuNzk1NjA5IC0zIDAgLTMgJiMxMDtDIC0wLjc5NTYwOSAtMyAtMS41NTg3NCAtMi42ODM5MDEgLTIuMTIxMzIgLTIuMTIxMzIgJiMxMDtDIC0yLjY4MzkwMSAtMS41NTg3NCAtMyAtMC43OTU2MDkgLTMgMCAmIzEwO0MgLTMgMC43OTU2MDkgLTIuNjgzOTAxIDEuNTU4NzQgLTIuMTIxMzIgMi4xMjEzMiAmIzEwO0MgLTEuNTU4NzQgMi42ODM5MDEgLTAuNzk1NjA5IDMgMCAzICYjMTA7eiIgaWQ9Im0wNGZjZGQxMjEyIi8+JiN4YTsgICAgPC9kZWZzPiYjeGE7ICAgIDxnIGNsaXAtcGF0aD0idXJsKCNwZjRiNWM4N2U4OSkiPiYjeGE7ICAgICA8dXNlIHN0eWxlPSJmaWxsOiAjZmYwMDAwOyBzdHJva2U6ICNmZmZmZmY7IHN0cm9rZS13aWR0aDogMC43NSIgeT0iMzY5LjM2IiB4PSIxMTUuMzYzNjM2IiB4bGluazpocmVmPSIjbTA0ZmNkZDEyMTIiLz4mI3hhOyAgICAgPHVzZSBzdHlsZT0iZmlsbDogI2ZmMDAwMDsgc3Ryb2tlOiAjZmZmZmZmOyBzdHJva2Utd2lkdGg6IDAuNzUiIHk9IjM2OS4zNiIgeD0iMTIyLjYxMDM5IiB4bGluazpocmVmPSIjbTA0ZmNkZDEyMTIiLz4mI3hhOyAgICAgPHVzZSBzdHlsZT0iZmlsbDogI2ZmMDAwMDsgc3Ryb2tlOiAjZmZmZmZmOyBzdHJva2Utd2lkdGg6IDAuNzUiIHk9IjMyMS4zMjgyMzMiIHg9IjEyOS44NTcxNDMiIHhsaW5rOmhyZWY9IiNtMDRmY2RkMTIxMiIvPiYjeGE7ICAgICA8dXNlIHN0eWxlPSJmaWxsOiAjZmYwMDAwOyBzdHJva2U6ICNmZmZmZmY7IHN0cm9rZS13aWR0aDogMC43NSIgeT0iMjY0LjQ0ODQ2OCIgeD0iMTM3LjEwMzg5NiIgeGxpbms6aHJlZj0iI20wNGZjZGQxMjEyIi8+JiN4YTsgICAgIDx1c2Ugc3R5bGU9ImZpbGw6ICNmZjAwMDA7IHN0cm9rZTogI2ZmZmZmZjsgc3Ryb2tlLXdpZHRoOiAwLjc1IiB5PSIyNTUuNjAwNTEiIHg9IjE0NC4zNTA2NDkiIHhsaW5rOmhyZWY9IiNtMDRmY2RkMTIxMiIvPiYjeGE7ICAgICA8dXNlIHN0eWxlPSJmaWxsOiAjZmYwMDAwOyBzdHJva2U6ICNmZmZmZmY7IHN0cm9rZS13aWR0aDogMC43NSIgeT0iMjQ1LjkwOTg4MiIgeD0iMTUxLjU5NzQwMyIgeGxpbms6aHJlZj0iI20wNGZjZGQxMjEyIi8+JiN4YTsgICAgIDx1c2Ugc3R5bGU9ImZpbGw6ICNmZjAwMDA7IHN0cm9rZTogI2ZmZmZmZjsgc3Ryb2tlLXdpZHRoOiAwLjc1IiB5PSIyNDQuMjI0NTQyIiB4PSIxNTguODQ0MTU2IiB4bGluazpocmVmPSIjbTA0ZmNkZDEyMTIiLz4mI3hhOyAgICAgPHVzZSBzdHlsZT0iZmlsbDogI2ZmMDAwMDsgc3Ryb2tlOiAjZmZmZmZmOyBzdHJva2Utd2lkdGg6IDAuNzUiIHk9IjIzNC45NTUyODciIHg9IjE2Ni4wOTA5MDkiIHhsaW5rOmhyZWY9IiNtMDRmY2RkMTIxMiIvPiYjeGE7ICAgICA8dXNlIHN0eWxlPSJmaWxsOiAjZmYwMDAwOyBzdHJva2U6ICNmZmZmZmY7IHN0cm9rZS13aWR0aDogMC43NSIgeT0iMjM3LjkwNDU5NCIgeD0iMTczLjMzNzY2MiIgeGxpbms6aHJlZj0iI20wNGZjZGQxMjEyIi8+JiN4YTsgICAgIDx1c2Ugc3R5bGU9ImZpbGw6ICNmZjAwMDA7IHN0cm9rZTogI2ZmZmZmZjsgc3Ryb2tlLXdpZHRoOiAwLjc1IiB5PSIyMzQuOTU1Mjg3IiB4PSIxODAuNTg0NDE2IiB4bGluazpocmVmPSIjbTA0ZmNkZDEyMTIiLz4mI3hhOyAgICAgPHVzZSBzdHlsZT0iZmlsbDogI2ZmMDAwMDsgc3Ryb2tlOiAjZmZmZmZmOyBzdHJva2Utd2lkdGg6IDAuNzUiIHk9IjIzNy45MDQ1OTQiIHg9IjE4Ny44MzExNjkiIHhsaW5rOmhyZWY9IiNtMDRmY2RkMTIxMiIvPiYjeGE7ICAgICA8dXNlIHN0eWxlPSJmaWxsOiAjZmYwMDAwOyBzdHJva2U6ICNmZmZmZmY7IHN0cm9rZS13aWR0aDogMC43NSIgeT0iMjM0LjExMjYxNyIgeD0iMTk1LjA3NzkyMiIgeGxpbms6aHJlZj0iI20wNGZjZGQxMjEyIi8+JiN4YTsgICAgIDx1c2Ugc3R5bGU9ImZpbGw6ICNmZjAwMDA7IHN0cm9rZTogI2ZmZmZmZjsgc3Ryb2tlLXdpZHRoOiAwLjc1IiB5PSIyMjYuNTI4NjI2IiB4PSIyMDIuMzI0Njc1IiB4bGluazpocmVmPSIjbTA0ZmNkZDEyMTIiLz4mI3hhOyAgICAgPHVzZSBzdHlsZT0iZmlsbDogI2ZmMDAwMDsgc3Ryb2tlOiAjZmZmZmZmOyBzdHJva2Utd2lkdGg6IDAuNzUiIHk9IjIyOS4wNTY2MzYiIHg9IjIwOS41NzE0MjkiIHhsaW5rOmhyZWY9IiNtMDRmY2RkMTIxMiIvPiYjeGE7ICAgICA8dXNlIHN0eWxlPSJmaWxsOiAjZmYwMDAwOyBzdHJva2U6ICNmZmZmZmY7IHN0cm9rZS13aWR0aDogMC43NSIgeT0iMjMxLjE2MzI3MiIgeD0iMjE2LjgxODE4MiIgeGxpbms6aHJlZj0iI20wNGZjZGQxMjEyIi8+JiN4YTsgICAgIDx1c2Ugc3R5bGU9ImZpbGw6ICNmZjAwMDA7IHN0cm9rZTogI2ZmZmZmZjsgc3Ryb2tlLXdpZHRoOiAwLjc1IiB5PSIyMjcuMzcxMjk2IiB4PSIyMjQuMDY0OTM1IiB4bGluazpocmVmPSIjbTA0ZmNkZDEyMTIiLz4mI3hhOyAgICAgPHVzZSBzdHlsZT0iZmlsbDogI2ZmMDAwMDsgc3Ryb2tlOiAjZmZmZmZmOyBzdHJva2Utd2lkdGg6IDAuNzUiIHk9IjIyNi45NDk5NjEiIHg9IjIzMS4zMTE2ODgiIHhsaW5rOmhyZWY9IiNtMDRmY2RkMTIxMiIvPiYjeGE7ICAgICA8dXNlIHN0eWxlPSJmaWxsOiAjZmYwMDAwOyBzdHJva2U6ICNmZmZmZmY7IHN0cm9rZS13aWR0aDogMC43NSIgeT0iMjI4LjIxMzk2NiIgeD0iMjM4LjU1ODQ0MiIgeGxpbms6aHJlZj0iI20wNGZjZGQxMjEyIi8+JiN4YTsgICAgIDx1c2Ugc3R5bGU9ImZpbGw6ICNmZjAwMDA7IHN0cm9rZTogI2ZmZmZmZjsgc3Ryb2tlLXdpZHRoOiAwLjc1IiB5PSIyMjcuNzkyNjMxIiB4PSIyNDUuODA1MTk1IiB4bGluazpocmVmPSIjbTA0ZmNkZDEyMTIiLz4mI3hhOyAgICAgPHVzZSBzdHlsZT0iZmlsbDogI2ZmMDAwMDsgc3Ryb2tlOiAjZmZmZmZmOyBzdHJva2Utd2lkdGg6IDAuNzUiIHk9IjIyNi41Mjg2MjYiIHg9IjI1My4wNTE5NDgiIHhsaW5rOmhyZWY9IiNtMDRmY2RkMTIxMiIvPiYjeGE7ICAgICA8dXNlIHN0eWxlPSJmaWxsOiAjZmYwMDAwOyBzdHJva2U6ICNmZmZmZmY7IHN0cm9rZS13aWR0aDogMC43NSIgeT0iMjI3Ljc5MjYzMSIgeD0iMjYwLjI5ODcwMSIgeGxpbms6aHJlZj0iI20wNGZjZGQxMjEyIi8+JiN4YTsgICAgIDx1c2Ugc3R5bGU9ImZpbGw6ICNmZjAwMDA7IHN0cm9rZTogI2ZmZmZmZjsgc3Ryb2tlLXdpZHRoOiAwLjc1IiB5PSIyMjguNjM1MzAxIiB4PSIyNjcuNTQ1NDU1IiB4bGluazpocmVmPSIjbTA0ZmNkZDEyMTIiLz4mI3hhOyAgICAgPHVzZSBzdHlsZT0iZmlsbDogI2ZmMDAwMDsgc3Ryb2tlOiAjZmZmZmZmOyBzdHJva2Utd2lkdGg6IDAuNzUiIHk9IjIyOC42MzUzMDEiIHg9IjI3NC43OTIyMDgiIHhsaW5rOmhyZWY9IiNtMDRmY2RkMTIxMiIvPiYjeGE7ICAgICA8dXNlIHN0eWxlPSJmaWxsOiAjZmYwMDAwOyBzdHJva2U6ICNmZmZmZmY7IHN0cm9rZS13aWR0aDogMC43NSIgeT0iMjI3LjM3MTI5NiIgeD0iMjgyLjAzODk2MSIgeGxpbms6aHJlZj0iI20wNGZjZGQxMjEyIi8+JiN4YTsgICAgIDx1c2Ugc3R5bGU9ImZpbGw6ICNmZjAwMDA7IHN0cm9rZTogI2ZmZmZmZjsgc3Ryb2tlLXdpZHRoOiAwLjc1IiB5PSIyMjMuMTU3OTg0IiB4PSIyODkuMjg1NzE0IiB4bGluazpocmVmPSIjbTA0ZmNkZDEyMTIiLz4mI3hhOyAgICAgPHVzZSBzdHlsZT0iZmlsbDogI2ZmMDAwMDsgc3Ryb2tlOiAjZmZmZmZmOyBzdHJva2Utd2lkdGg6IDAuNzUiIHk9IjIyNi45NDk5NjEiIHg9IjI5Ni41MzI0NjgiIHhsaW5rOmhyZWY9IiNtMDRmY2RkMTIxMiIvPiYjeGE7ICAgICA8dXNlIHN0eWxlPSJmaWxsOiAjZmYwMDAwOyBzdHJva2U6ICNmZmZmZmY7IHN0cm9rZS13aWR0aDogMC43NSIgeT0iMjIyLjMxNTMxNCIgeD0iMzAzLjc3OTIyMSIgeGxpbms6aHJlZj0iI20wNGZjZGQxMjEyIi8+JiN4YTsgICAgIDx1c2Ugc3R5bGU9ImZpbGw6ICNmZjAwMDA7IHN0cm9rZTogI2ZmZmZmZjsgc3Ryb2tlLXdpZHRoOiAwLjc1IiB5PSIyMjQuMDAwNjU0IiB4PSIzMTEuMDI1OTc0IiB4bGluazpocmVmPSIjbTA0ZmNkZDEyMTIiLz4mI3hhOyAgICAgPHVzZSBzdHlsZT0iZmlsbDogI2ZmMDAwMDsgc3Ryb2tlOiAjZmZmZmZmOyBzdHJva2Utd2lkdGg6IDAuNzUiIHk9IjIyNi41Mjg2MjYiIHg9IjMxOC4yNzI3MjciIHhsaW5rOmhyZWY9IiNtMDRmY2RkMTIxMiIvPiYjeGE7ICAgICA8dXNlIHN0eWxlPSJmaWxsOiAjZmYwMDAwOyBzdHJva2U6ICNmZmZmZmY7IHN0cm9rZS13aWR0aDogMC43NSIgeT0iMjI2LjEwNzI5MSIgeD0iMzI1LjUxOTQ4MSIgeGxpbms6aHJlZj0iI20wNGZjZGQxMjEyIi8+JiN4YTsgICAgIDx1c2Ugc3R5bGU9ImZpbGw6ICNmZjAwMDA7IHN0cm9rZTogI2ZmZmZmZjsgc3Ryb2tlLXdpZHRoOiAwLjc1IiB5PSIyMjcuMzcxMjk2IiB4PSIzMzIuNzY2MjM0IiB4bGluazpocmVmPSIjbTA0ZmNkZDEyMTIiLz4mI3hhOyAgICAgPHVzZSBzdHlsZT0iZmlsbDogI2ZmMDAwMDsgc3Ryb2tlOiAjZmZmZmZmOyBzdHJva2Utd2lkdGg6IDAuNzUiIHk9IjIyNi4xMDcyOTEiIHg9IjM0MC4wMTI5ODciIHhsaW5rOmhyZWY9IiNtMDRmY2RkMTIxMiIvPiYjeGE7ICAgICA8dXNlIHN0eWxlPSJmaWxsOiAjZmYwMDAwOyBzdHJva2U6ICNmZmZmZmY7IHN0cm9rZS13aWR0aDogMC43NSIgeT0iMjI2LjEwNzI5MSIgeD0iMzQ3LjI1OTc0IiB4bGluazpocmVmPSIjbTA0ZmNkZDEyMTIiLz4mI3hhOyAgICAgPHVzZSBzdHlsZT0iZmlsbDogI2ZmMDAwMDsgc3Ryb2tlOiAjZmZmZmZmOyBzdHJva2Utd2lkdGg6IDAuNzUiIHk9IjIxOS43ODczNDIiIHg9IjM1NC41MDY0OTQiIHhsaW5rOmhyZWY9IiNtMDRmY2RkMTIxMiIvPiYjeGE7ICAgICA8dXNlIHN0eWxlPSJmaWxsOiAjZmYwMDAwOyBzdHJva2U6ICNmZmZmZmY7IHN0cm9rZS13aWR0aDogMC43NSIgeT0iMjI3Ljc5MjYzMSIgeD0iMzYxLjc1MzI0NyIgeGxpbms6aHJlZj0iI20wNGZjZGQxMjEyIi8+JiN4YTsgICAgIDx1c2Ugc3R5bGU9ImZpbGw6ICNmZjAwMDA7IHN0cm9rZTogI2ZmZmZmZjsgc3Ryb2tlLXdpZHRoOiAwLjc1IiB5PSIyMjQuMDAwNjU0IiB4PSIzNjkiIHhsaW5rOmhyZWY9IiNtMDRmY2RkMTIxMiIvPiYjeGE7ICAgICA8dXNlIHN0eWxlPSJmaWxsOiAjZmYwMDAwOyBzdHJva2U6ICNmZmZmZmY7IHN0cm9rZS13aWR0aDogMC43NSIgeT0iMjI2Ljk0OTk2MSIgeD0iMzc2LjI0Njc1MyIgeGxpbms6aHJlZj0iI20wNGZjZGQxMjEyIi8+JiN4YTsgICAgIDx1c2Ugc3R5bGU9ImZpbGw6ICNmZjAwMDA7IHN0cm9rZTogI2ZmZmZmZjsgc3Ryb2tlLXdpZHRoOiAwLjc1IiB5PSIyMjQuMDAwNjU0IiB4PSIzODMuNDkzNTA2IiB4bGluazpocmVmPSIjbTA0ZmNkZDEyMTIiLz4mI3hhOyAgICAgPHVzZSBzdHlsZT0iZmlsbDogI2ZmMDAwMDsgc3Ryb2tlOiAjZmZmZmZmOyBzdHJva2Utd2lkdGg6IDAuNzUiIHk9IjIyNi4xMDcyOTEiIHg9IjM5MC43NDAyNiIgeGxpbms6aHJlZj0iI20wNGZjZGQxMjEyIi8+JiN4YTsgICAgIDx1c2Ugc3R5bGU9ImZpbGw6ICNmZjAwMDA7IHN0cm9rZTogI2ZmZmZmZjsgc3Ryb2tlLXdpZHRoOiAwLjc1IiB5PSIyMzAuMzIwNjQxIiB4PSIzOTcuOTg3MDEzIiB4bGluazpocmVmPSIjbTA0ZmNkZDEyMTIiLz4mI3hhOyAgICAgPHVzZSBzdHlsZT0iZmlsbDogI2ZmMDAwMDsgc3Ryb2tlOiAjZmZmZmZmOyBzdHJva2Utd2lkdGg6IDAuNzUiIHk9IjIyMy4xNTc5ODQiIHg9IjQwNS4yMzM3NjYiIHhsaW5rOmhyZWY9IiNtMDRmY2RkMTIxMiIvPiYjeGE7ICAgICA8dXNlIHN0eWxlPSJmaWxsOiAjZmYwMDAwOyBzdHJva2U6ICNmZmZmZmY7IHN0cm9rZS13aWR0aDogMC43NSIgeT0iMjI3LjM3MTI5NiIgeD0iNDEyLjQ4MDUxOSIgeGxpbms6aHJlZj0iI20wNGZjZGQxMjEyIi8+JiN4YTsgICAgIDx1c2Ugc3R5bGU9ImZpbGw6ICNmZjAwMDA7IHN0cm9rZTogI2ZmZmZmZjsgc3Ryb2tlLXdpZHRoOiAwLjc1IiB5PSIyMjEuMDUxMzQ3IiB4PSI0MTkuNzI3MjczIiB4bGluazpocmVmPSIjbTA0ZmNkZDEyMTIiLz4mI3hhOyAgICAgPHVzZSBzdHlsZT0iZmlsbDogI2ZmMDAwMDsgc3Ryb2tlOiAjZmZmZmZmOyBzdHJva2Utd2lkdGg6IDAuNzUiIHk9IjIxOS4zNjYwMDciIHg9IjQyNi45NzQwMjYiIHhsaW5rOmhyZWY9IiNtMDRmY2RkMTIxMiIvPiYjeGE7ICAgICA8dXNlIHN0eWxlPSJmaWxsOiAjZmYwMDAwOyBzdHJva2U6ICNmZmZmZmY7IHN0cm9rZS13aWR0aDogMC43NSIgeT0iMjIyLjMxNTMxNCIgeD0iNDM0LjIyMDc3OSIgeGxpbms6aHJlZj0iI20wNGZjZGQxMjEyIi8+JiN4YTsgICAgIDx1c2Ugc3R5bGU9ImZpbGw6ICNmZjAwMDA7IHN0cm9rZTogI2ZmZmZmZjsgc3Ryb2tlLXdpZHRoOiAwLjc1IiB5PSIyMjQuMDAwNjU0IiB4PSI0NDEuNDY3NTMyIiB4bGluazpocmVmPSIjbTA0ZmNkZDEyMTIiLz4mI3hhOyAgICAgPHVzZSBzdHlsZT0iZmlsbDogI2ZmMDAwMDsgc3Ryb2tlOiAjZmZmZmZmOyBzdHJva2Utd2lkdGg6IDAuNzUiIHk9IjIyNi45NDk5NjEiIHg9IjQ0OC43MTQyODYiIHhsaW5rOmhyZWY9IiNtMDRmY2RkMTIxMiIvPiYjeGE7ICAgICA8dXNlIHN0eWxlPSJmaWxsOiAjZmYwMDAwOyBzdHJva2U6ICNmZmZmZmY7IHN0cm9rZS13aWR0aDogMC43NSIgeT0iMjI2LjUyODYyNiIgeD0iNDU1Ljk2MTAzOSIgeGxpbms6aHJlZj0iI20wNGZjZGQxMjEyIi8+JiN4YTsgICAgIDx1c2Ugc3R5bGU9ImZpbGw6ICNmZjAwMDA7IHN0cm9rZTogI2ZmZmZmZjsgc3Ryb2tlLXdpZHRoOiAwLjc1IiB5PSIyMzAuMzIwNjQxIiB4PSI0NjMuMjA3NzkyIiB4bGluazpocmVmPSIjbTA0ZmNkZDEyMTIiLz4mI3hhOyAgICAgPHVzZSBzdHlsZT0iZmlsbDogI2ZmMDAwMDsgc3Ryb2tlOiAjZmZmZmZmOyBzdHJva2Utd2lkdGg6IDAuNzUiIHk9IjIyNS4yNjQ2NTkiIHg9IjQ3MC40NTQ1NDUiIHhsaW5rOmhyZWY9IiNtMDRmY2RkMTIxMiIvPiYjeGE7ICAgICA8dXNlIHN0eWxlPSJmaWxsOiAjZmYwMDAwOyBzdHJva2U6ICNmZmZmZmY7IHN0cm9rZS13aWR0aDogMC43NSIgeT0iMjI0Ljg0MzMyNCIgeD0iNDc3LjcwMTI5OSIgeGxpbms6aHJlZj0iI20wNGZjZGQxMjEyIi8+JiN4YTsgICAgIDx1c2Ugc3R5bGU9ImZpbGw6ICNmZjAwMDA7IHN0cm9rZTogI2ZmZmZmZjsgc3Ryb2tlLXdpZHRoOiAwLjc1IiB5PSIyMjguNjM1MzAxIiB4PSI0ODQuOTQ4MDUyIiB4bGluazpocmVmPSIjbTA0ZmNkZDEyMTIiLz4mI3hhOyAgICAgPHVzZSBzdHlsZT0iZmlsbDogI2ZmMDAwMDsgc3Ryb2tlOiAjZmZmZmZmOyBzdHJva2Utd2lkdGg6IDAuNzUiIHk9IjIyMS40NzI2NDQiIHg9IjQ5Mi4xOTQ4MDUiIHhsaW5rOmhyZWY9IiNtMDRmY2RkMTIxMiIvPiYjeGE7ICAgICA8dXNlIHN0eWxlPSJmaWxsOiAjZmYwMDAwOyBzdHJva2U6ICNmZmZmZmY7IHN0cm9rZS13aWR0aDogMC43NSIgeT0iMjI2LjEwNzI5MSIgeD0iNDk5LjQ0MTU1OCIgeGxpbms6aHJlZj0iI20wNGZjZGQxMjEyIi8+JiN4YTsgICAgIDx1c2Ugc3R5bGU9ImZpbGw6ICNmZjAwMDA7IHN0cm9rZTogI2ZmZmZmZjsgc3Ryb2tlLXdpZHRoOiAwLjc1IiB5PSIyMjUuMjY0NjU5IiB4PSI1MDYuNjg4MzEyIiB4bGluazpocmVmPSIjbTA0ZmNkZDEyMTIiLz4mI3hhOyAgICAgPHVzZSBzdHlsZT0iZmlsbDogI2ZmMDAwMDsgc3Ryb2tlOiAjZmZmZmZmOyBzdHJva2Utd2lkdGg6IDAuNzUiIHk9IjIxOC41MjMzMzciIHg9IjUxMy45MzUwNjUiIHhsaW5rOmhyZWY9IiNtMDRmY2RkMTIxMiIvPiYjeGE7ICAgICA8dXNlIHN0eWxlPSJmaWxsOiAjZmYwMDAwOyBzdHJva2U6ICNmZmZmZmY7IHN0cm9rZS13aWR0aDogMC43NSIgeT0iMjI4LjIxMzk2NiIgeD0iNTIxLjE4MTgxOCIgeGxpbms6aHJlZj0iI20wNGZjZGQxMjEyIi8+JiN4YTsgICAgIDx1c2Ugc3R5bGU9ImZpbGw6ICNmZjAwMDA7IHN0cm9rZTogI2ZmZmZmZjsgc3Ryb2tlLXdpZHRoOiAwLjc1IiB5PSIyMjYuMTA3MjkxIiB4PSI1MjguNDI4NTcxIiB4bGluazpocmVmPSIjbTA0ZmNkZDEyMTIiLz4mI3hhOyAgICAgPHVzZSBzdHlsZT0iZmlsbDogI2ZmMDAwMDsgc3Ryb2tlOiAjZmZmZmZmOyBzdHJva2Utd2lkdGg6IDAuNzUiIHk9IjIyNC4wMDA2NTQiIHg9IjUzNS42NzUzMjUiIHhsaW5rOmhyZWY9IiNtMDRmY2RkMTIxMiIvPiYjeGE7ICAgICA8dXNlIHN0eWxlPSJmaWxsOiAjZmYwMDAwOyBzdHJva2U6ICNmZmZmZmY7IHN0cm9rZS13aWR0aDogMC43NSIgeT0iMjIzLjE1Nzk4NCIgeD0iNTQyLjkyMjA3OCIgeGxpbms6aHJlZj0iI20wNGZjZGQxMjEyIi8+JiN4YTsgICAgIDx1c2Ugc3R5bGU9ImZpbGw6ICNmZjAwMDA7IHN0cm9rZTogI2ZmZmZmZjsgc3Ryb2tlLXdpZHRoOiAwLjc1IiB5PSIyMjYuOTQ5OTYxIiB4PSI1NTAuMTY4ODMxIiB4bGluazpocmVmPSIjbTA0ZmNkZDEyMTIiLz4mI3hhOyAgICAgPHVzZSBzdHlsZT0iZmlsbDogI2ZmMDAwMDsgc3Ryb2tlOiAjZmZmZmZmOyBzdHJva2Utd2lkdGg6IDAuNzUiIHk9IjIyMy41NzkzMTkiIHg9IjU1Ny40MTU1ODQiIHhsaW5rOmhyZWY9IiNtMDRmY2RkMTIxMiIvPiYjeGE7ICAgICA8dXNlIHN0eWxlPSJmaWxsOiAjZmYwMDAwOyBzdHJva2U6ICNmZmZmZmY7IHN0cm9rZS13aWR0aDogMC43NSIgeT0iMjI2Ljk0OTk2MSIgeD0iNTY0LjY2MjMzOCIgeGxpbms6aHJlZj0iI20wNGZjZGQxMjEyIi8+JiN4YTsgICAgIDx1c2Ugc3R5bGU9ImZpbGw6ICNmZjAwMDA7IHN0cm9rZTogI2ZmZmZmZjsgc3Ryb2tlLXdpZHRoOiAwLjc1IiB5PSIyMjUuNjg1OTk0IiB4PSI1NzEuOTA5MDkxIiB4bGluazpocmVmPSIjbTA0ZmNkZDEyMTIiLz4mI3hhOyAgICAgPHVzZSBzdHlsZT0iZmlsbDogI2ZmMDAwMDsgc3Ryb2tlOiAjZmZmZmZmOyBzdHJva2Utd2lkdGg6IDAuNzUiIHk9IjIyNS42ODU5OTQiIHg9IjU3OS4xNTU4NDQiIHhsaW5rOmhyZWY9IiNtMDRmY2RkMTIxMiIvPiYjeGE7ICAgICA8dXNlIHN0eWxlPSJmaWxsOiAjZmYwMDAwOyBzdHJva2U6ICNmZmZmZmY7IHN0cm9rZS13aWR0aDogMC43NSIgeT0iMjMyLjAwNTk0MiIgeD0iNTg2LjQwMjU5NyIgeGxpbms6aHJlZj0iI20wNGZjZGQxMjEyIi8+JiN4YTsgICAgIDx1c2Ugc3R5bGU9ImZpbGw6ICNmZjAwMDA7IHN0cm9rZTogI2ZmZmZmZjsgc3Ryb2tlLXdpZHRoOiAwLjc1IiB5PSIyMTguOTQ0NjcyIiB4PSI1OTMuNjQ5MzUxIiB4bGluazpocmVmPSIjbTA0ZmNkZDEyMTIiLz4mI3hhOyAgICAgPHVzZSBzdHlsZT0iZmlsbDogI2ZmMDAwMDsgc3Ryb2tlOiAjZmZmZmZmOyBzdHJva2Utd2lkdGg6IDAuNzUiIHk9IjIzMy4yNjk5NDciIHg9IjYwMC44OTYxMDQiIHhsaW5rOmhyZWY9IiNtMDRmY2RkMTIxMiIvPiYjeGE7ICAgICA8dXNlIHN0eWxlPSJmaWxsOiAjZmYwMDAwOyBzdHJva2U6ICNmZmZmZmY7IHN0cm9rZS13aWR0aDogMC43NSIgeT0iMjI5LjA1NjYzNiIgeD0iNjA4LjE0Mjg1NyIgeGxpbms6aHJlZj0iI20wNGZjZGQxMjEyIi8+JiN4YTsgICAgIDx1c2Ugc3R5bGU9ImZpbGw6ICNmZjAwMDA7IHN0cm9rZTogI2ZmZmZmZjsgc3Ryb2tlLXdpZHRoOiAwLjc1IiB5PSIyMzAuNzQxOTM3IiB4PSI2MTUuMzg5NjEiIHhsaW5rOmhyZWY9IiNtMDRmY2RkMTIxMiIvPiYjeGE7ICAgICA8dXNlIHN0eWxlPSJmaWxsOiAjZmYwMDAwOyBzdHJva2U6ICNmZmZmZmY7IHN0cm9rZS13aWR0aDogMC43NSIgeT0iMjIzLjE1Nzk4NCIgeD0iNjIyLjYzNjM2NCIgeGxpbms6aHJlZj0iI20wNGZjZGQxMjEyIi8+JiN4YTsgICAgPC9nPiYjeGE7ICAgPC9nPiYjeGE7ICAgPGcgaWQ9ImxpbmUyZF8xNSI+JiN4YTsgICAgPHBhdGggc3R5bGU9ImZpbGw6IG5vbmU7IHN0cm9rZTogIzAwMDBmZjsgc3Ryb2tlLXdpZHRoOiAxLjU7IHN0cm9rZS1saW5lY2FwOiByb3VuZCIgY2xpcC1wYXRoPSJ1cmwoI3BmNGI1Yzg3ZTg5KSIgZD0iTSAxMTUuMzYzNjM2IDE4MC4wODAxODcgJiMxMDtMIDEyMi42MTAzOSA2Ni45NiAmIzEwO0wgMTI5Ljg1NzE0MyAyMDcuMjcyOTU3ICYjMTA7TCAxMzcuMTAzODk2IDI4OS40OTQyNjcgJiMxMDtMIDE0NC4zNTA2NDkgMzAyLjc2OTcyOSAmIzEwO0wgMTUxLjU5NzQwMyAzMDYuNjg4MjU3ICYjMTA7TCAxNTguODQ0MTU2IDMwOS41OTI3MjEgJiMxMDtMIDE2Ni4wOTA5MDkgMzE4LjcwMTQ4NiAmIzEwO0wgMTczLjMzNzY2MiAzMjQuNTUxNTk4ICYjMTA7TCAxODAuNTg0NDE2IDMyNC4yNDY1MjcgJiMxMDtMIDE4Ny44MzExNjkgMzE0LjY3NTU1NCAmIzEwO0wgMTk1LjA3NzkyMiAzMjYuNjQ0MzI3ICYjMTA7TCAyMDIuMzI0Njc1IDMzNC44NjY5MjggJiMxMDtMIDIwOS41NzE0MjkgMzMxLjExNzAxOSAmIzEwO0wgMjE2LjgxODE4MiAzMjguMTQ1Njc3ICYjMTA7TCAyMjQuMDY0OTM1IDMzMi42MDM2NTQgJiMxMDtMIDIzMS4zMTE2ODggMzM0LjY0NTE0NiAmIzEwO0wgMjM4LjU1ODQ0MiAzMzMuMDgxMTE4ICYjMTA7TCAyNDUuODA1MTk1IDMyOC42Nzk2NTYgJiMxMDtMIDI1My4wNTE5NDggMzMzLjE2NjM3MSAmIzEwO0wgMjYwLjI5ODcwMSAzMzQuNTI4MDcyICYjMTA7TCAyNjcuNTQ1NDU1IDMyOC40MTE4NzcgJiMxMDtMIDI3NC43OTIyMDggMzQwLjIzODk1OSAmIzEwO0wgMjgyLjAzODk2MSAzMzUuNzMyMDE5ICYjMTA7TCAyODkuMjg1NzE0IDM0MC4xMTU1NjcgJiMxMDtMIDI5Ni41MzI0NjggMzM3LjQ1Njk2MSAmIzEwO0wgMzAzLjc3OTIyMSAzMzYuMDc3MTE1ICYjMTA7TCAzMTEuMDI1OTc0IDMzNC42NDI2ODEgJiMxMDtMIDMxOC4yNzI3MjcgMzM3LjMzMDE4ICYjMTA7TCAzMjUuNTE5NDgxIDMzNC43MzYwMjQgJiMxMDtMIDMzMi43NjYyMzQgMzQxLjg3NDkxMiAmIzEwO0wgMzQwLjAxMjk4NyAzMzYuOTAxNzk1ICYjMTA7TCAzNDcuMjU5NzQgMzM2LjkyMjMyOCAmIzEwO0wgMzU0LjUwNjQ5NCAzMzAuODU5MjU3ICYjMTA7TCAzNjEuNzUzMjQ3IDMzOS4wMzYxMyAmIzEwO0wgMzY5IDMzMi44MTM3MjQgJiMxMDtMIDM3Ni4yNDY3NTMgMzQzLjQ5OTk2MiAmIzEwO0wgMzgzLjQ5MzUwNiAzMzkuNzQ2OTcxICYjMTA7TCAzOTAuNzQwMjYgMzQzLjA2MTMzICYjMTA7TCAzOTcuOTg3MDEzIDMzOC4zNjAzMDYgJiMxMDtMIDQwNS4yMzM3NjYgMzQ0LjM3Mjk4OSAmIzEwO0wgNDEyLjQ4MDUxOSAzMzYuOTY0NjI3ICYjMTA7TCA0MTkuNzI3MjczIDM0MC42MTE3MTUgJiMxMDtMIDQyNi45NzQwMjYgMzQxLjI5MjIzOSAmIzEwO0wgNDM0LjIyMDc3OSAzNDMuMzI3Nzk5ICYjMTA7TCA0NDEuNDY3NTMyIDM0NC40MjYxOSAmIzEwO0wgNDQ4LjcxNDI4NiAzMzkuNjIyMzg1ICYjMTA7TCA0NTUuOTYxMDM5IDMzOC4wMDk1NDcgJiMxMDtMIDQ2My4yMDc3OTIgMzQxLjkyODM0NCAmIzEwO0wgNDcwLjQ1NDU0NSAzNDEuNTIzOTk4ICYjMTA7TCA0NzcuNzAxMjk5IDM0Mi45NTMxOTMgJiMxMDtMIDQ4NC45NDgwNTIgMzQyLjk2MTQzNyAmIzEwO0wgNDkyLjE5NDgwNSAzNDAuNjc5Mjg2ICYjMTA7TCA0OTkuNDQxNTU4IDM0My4yODc3NzMgJiMxMDtMIDUwNi42ODgzMTIgMzQzLjE2NzE1NSAmIzEwO0wgNTEzLjkzNTA2NSAzMzcuOTM1MzUgJiMxMDtMIDUyMS4xODE4MTggMzM5LjY4MTI4OCAmIzEwO0wgNTI4LjQyODU3MSAzNDAuMzY2MjQyICYjMTA7TCA1MzUuNjc1MzI1IDM0MC41NzMxNTMgJiMxMDtMIDU0Mi45MjIwNzggMzM5LjkwMTQxMyAmIzEwO0wgNTUwLjE2ODgzMSAzNDIuMTgxNDg0ICYjMTA7TCA1NTcuNDE1NTg0IDM0MC4xMDAzMTIgJiMxMDtMIDU2NC42NjIzMzggMzQwLjUzNTkzOSAmIzEwO0wgNTcxLjkwOTA5MSAzNDAuNjM5MDI5ICYjMTA7TCA1NzkuMTU1ODQ0IDM0MC40OTE5MDYgJiMxMDtMIDU4Ni40MDI1OTcgMzM2LjY4NDU1OSAmIzEwO0wgNTkzLjY0OTM1MSAzNDEuODI2MzMzICYjMTA7TCA2MDAuODk2MTA0IDMzNC4yMTE1NjEgJiMxMDtMIDYwOC4xNDI4NTcgMzM5LjIxODY5NCAmIzEwO0wgNjE1LjM4OTYxIDMzNy44NzU2ICYjMTA7TCA2MjIuNjM2MzY0IDMyNC41OTkzNjciLz4mI3hhOyAgICA8ZGVmcz4mI3hhOyAgICAgPHBhdGggc3R5bGU9InN0cm9rZTogI2ZmZmZmZjsgc3Ryb2tlLXdpZHRoOiAwLjc1OyBzdHJva2UtbGluZWpvaW46IG1pdGVyIiBkPSJNIC0xLjUgMyAmIzEwO0wgMCAxLjUgJiMxMDtMIDEuNSAzICYjMTA7TCAzIDEuNSAmIzEwO0wgMS41IDAgJiMxMDtMIDMgLTEuNSAmIzEwO0wgMS41IC0zICYjMTA7TCAwIC0xLjUgJiMxMDtMIC0xLjUgLTMgJiMxMDtMIC0zIC0xLjUgJiMxMDtMIC0xLjUgMCAmIzEwO0wgLTMgMS41ICYjMTA7eiIgaWQ9Im0wYTBkZWVmNWUwIi8+JiN4YTsgICAgPC9kZWZzPiYjeGE7ICAgIDxnIGNsaXAtcGF0aD0idXJsKCNwZjRiNWM4N2U4OSkiPiYjeGE7ICAgICA8dXNlIHN0eWxlPSJmaWxsOiAjMDAwMGZmOyBzdHJva2U6ICNmZmZmZmY7IHN0cm9rZS13aWR0aDogMC43NTsgc3Ryb2tlLWxpbmVqb2luOiBtaXRlciIgeT0iMTgwLjA4MDE4NyIgeD0iMTE1LjM2MzYzNiIgeGxpbms6aHJlZj0iI20wYTBkZWVmNWUwIi8+JiN4YTsgICAgIDx1c2Ugc3R5bGU9ImZpbGw6ICMwMDAwZmY7IHN0cm9rZTogI2ZmZmZmZjsgc3Ryb2tlLXdpZHRoOiAwLjc1OyBzdHJva2UtbGluZWpvaW46IG1pdGVyIiB5PSI2Ni45NiIgeD0iMTIyLjYxMDM5IiB4bGluazpocmVmPSIjbTBhMGRlZWY1ZTAiLz4mI3hhOyAgICAgPHVzZSBzdHlsZT0iZmlsbDogIzAwMDBmZjsgc3Ryb2tlOiAjZmZmZmZmOyBzdHJva2Utd2lkdGg6IDAuNzU7IHN0cm9rZS1saW5lam9pbjogbWl0ZXIiIHk9IjIwNy4yNzI5NTciIHg9IjEyOS44NTcxNDMiIHhsaW5rOmhyZWY9IiNtMGEwZGVlZjVlMCIvPiYjeGE7ICAgICA8dXNlIHN0eWxlPSJmaWxsOiAjMDAwMGZmOyBzdHJva2U6ICNmZmZmZmY7IHN0cm9rZS13aWR0aDogMC43NTsgc3Ryb2tlLWxpbmVqb2luOiBtaXRlciIgeT0iMjg5LjQ5NDI2NyIgeD0iMTM3LjEwMzg5NiIgeGxpbms6aHJlZj0iI20wYTBkZWVmNWUwIi8+JiN4YTsgICAgIDx1c2Ugc3R5bGU9ImZpbGw6ICMwMDAwZmY7IHN0cm9rZTogI2ZmZmZmZjsgc3Ryb2tlLXdpZHRoOiAwLjc1OyBzdHJva2UtbGluZWpvaW46IG1pdGVyIiB5PSIzMDIuNzY5NzI5IiB4PSIxNDQuMzUwNjQ5IiB4bGluazpocmVmPSIjbTBhMGRlZWY1ZTAiLz4mI3hhOyAgICAgPHVzZSBzdHlsZT0iZmlsbDogIzAwMDBmZjsgc3Ryb2tlOiAjZmZmZmZmOyBzdHJva2Utd2lkdGg6IDAuNzU7IHN0cm9rZS1saW5lam9pbjogbWl0ZXIiIHk9IjMwNi42ODgyNTciIHg9IjE1MS41OTc0MDMiIHhsaW5rOmhyZWY9IiNtMGEwZGVlZjVlMCIvPiYjeGE7ICAgICA8dXNlIHN0eWxlPSJmaWxsOiAjMDAwMGZmOyBzdHJva2U6ICNmZmZmZmY7IHN0cm9rZS13aWR0aDogMC43NTsgc3Ryb2tlLWxpbmVqb2luOiBtaXRlciIgeT0iMzA5LjU5MjcyMSIgeD0iMTU4Ljg0NDE1NiIgeGxpbms6aHJlZj0iI20wYTBkZWVmNWUwIi8+JiN4YTsgICAgIDx1c2Ugc3R5bGU9ImZpbGw6ICMwMDAwZmY7IHN0cm9rZTogI2ZmZmZmZjsgc3Ryb2tlLXdpZHRoOiAwLjc1OyBzdHJva2UtbGluZWpvaW46IG1pdGVyIiB5PSIzMTguNzAxNDg2IiB4PSIxNjYuMDkwOTA5IiB4bGluazpocmVmPSIjbTBhMGRlZWY1ZTAiLz4mI3hhOyAgICAgPHVzZSBzdHlsZT0iZmlsbDogIzAwMDBmZjsgc3Ryb2tlOiAjZmZmZmZmOyBzdHJva2Utd2lkdGg6IDAuNzU7IHN0cm9rZS1saW5lam9pbjogbWl0ZXIiIHk9IjMyNC41NTE1OTgiIHg9IjE3My4zMzc2NjIiIHhsaW5rOmhyZWY9IiNtMGEwZGVlZjVlMCIvPiYjeGE7ICAgICA8dXNlIHN0eWxlPSJmaWxsOiAjMDAwMGZmOyBzdHJva2U6ICNmZmZmZmY7IHN0cm9rZS13aWR0aDogMC43NTsgc3Ryb2tlLWxpbmVqb2luOiBtaXRlciIgeT0iMzI0LjI0NjUyNyIgeD0iMTgwLjU4NDQxNiIgeGxpbms6aHJlZj0iI20wYTBkZWVmNWUwIi8+JiN4YTsgICAgIDx1c2Ugc3R5bGU9ImZpbGw6ICMwMDAwZmY7IHN0cm9rZTogI2ZmZmZmZjsgc3Ryb2tlLXdpZHRoOiAwLjc1OyBzdHJva2UtbGluZWpvaW46IG1pdGVyIiB5PSIzMTQuNjc1NTU0IiB4PSIxODcuODMxMTY5IiB4bGluazpocmVmPSIjbTBhMGRlZWY1ZTAiLz4mI3hhOyAgICAgPHVzZSBzdHlsZT0iZmlsbDogIzAwMDBmZjsgc3Ryb2tlOiAjZmZmZmZmOyBzdHJva2Utd2lkdGg6IDAuNzU7IHN0cm9rZS1saW5lam9pbjogbWl0ZXIiIHk9IjMyNi42NDQzMjciIHg9IjE5NS4wNzc5MjIiIHhsaW5rOmhyZWY9IiNtMGEwZGVlZjVlMCIvPiYjeGE7ICAgICA8dXNlIHN0eWxlPSJmaWxsOiAjMDAwMGZmOyBzdHJva2U6ICNmZmZmZmY7IHN0cm9rZS13aWR0aDogMC43NTsgc3Ryb2tlLWxpbmVqb2luOiBtaXRlciIgeT0iMzM0Ljg2NjkyOCIgeD0iMjAyLjMyNDY3NSIgeGxpbms6aHJlZj0iI20wYTBkZWVmNWUwIi8+JiN4YTsgICAgIDx1c2Ugc3R5bGU9ImZpbGw6ICMwMDAwZmY7IHN0cm9rZTogI2ZmZmZmZjsgc3Ryb2tlLXdpZHRoOiAwLjc1OyBzdHJva2UtbGluZWpvaW46IG1pdGVyIiB5PSIzMzEuMTE3MDE5IiB4PSIyMDkuNTcxNDI5IiB4bGluazpocmVmPSIjbTBhMGRlZWY1ZTAiLz4mI3hhOyAgICAgPHVzZSBzdHlsZT0iZmlsbDogIzAwMDBmZjsgc3Ryb2tlOiAjZmZmZmZmOyBzdHJva2Utd2lkdGg6IDAuNzU7IHN0cm9rZS1saW5lam9pbjogbWl0ZXIiIHk9IjMyOC4xNDU2NzciIHg9IjIxNi44MTgxODIiIHhsaW5rOmhyZWY9IiNtMGEwZGVlZjVlMCIvPiYjeGE7ICAgICA8dXNlIHN0eWxlPSJmaWxsOiAjMDAwMGZmOyBzdHJva2U6ICNmZmZmZmY7IHN0cm9rZS13aWR0aDogMC43NTsgc3Ryb2tlLWxpbmVqb2luOiBtaXRlciIgeT0iMzMyLjYwMzY1NCIgeD0iMjI0LjA2NDkzNSIgeGxpbms6aHJlZj0iI20wYTBkZWVmNWUwIi8+JiN4YTsgICAgIDx1c2Ugc3R5bGU9ImZpbGw6ICMwMDAwZmY7IHN0cm9rZTogI2ZmZmZmZjsgc3Ryb2tlLXdpZHRoOiAwLjc1OyBzdHJva2UtbGluZWpvaW46IG1pdGVyIiB5PSIzMzQuNjQ1MTQ2IiB4PSIyMzEuMzExNjg4IiB4bGluazpocmVmPSIjbTBhMGRlZWY1ZTAiLz4mI3hhOyAgICAgPHVzZSBzdHlsZT0iZmlsbDogIzAwMDBmZjsgc3Ryb2tlOiAjZmZmZmZmOyBzdHJva2Utd2lkdGg6IDAuNzU7IHN0cm9rZS1saW5lam9pbjogbWl0ZXIiIHk9IjMzMy4wODExMTgiIHg9IjIzOC41NTg0NDIiIHhsaW5rOmhyZWY9IiNtMGEwZGVlZjVlMCIvPiYjeGE7ICAgICA8dXNlIHN0eWxlPSJmaWxsOiAjMDAwMGZmOyBzdHJva2U6ICNmZmZmZmY7IHN0cm9rZS13aWR0aDogMC43NTsgc3Ryb2tlLWxpbmVqb2luOiBtaXRlciIgeT0iMzI4LjY3OTY1NiIgeD0iMjQ1LjgwNTE5NSIgeGxpbms6aHJlZj0iI20wYTBkZWVmNWUwIi8+JiN4YTsgICAgIDx1c2Ugc3R5bGU9ImZpbGw6ICMwMDAwZmY7IHN0cm9rZTogI2ZmZmZmZjsgc3Ryb2tlLXdpZHRoOiAwLjc1OyBzdHJva2UtbGluZWpvaW46IG1pdGVyIiB5PSIzMzMuMTY2MzcxIiB4PSIyNTMuMDUxOTQ4IiB4bGluazpocmVmPSIjbTBhMGRlZWY1ZTAiLz4mI3hhOyAgICAgPHVzZSBzdHlsZT0iZmlsbDogIzAwMDBmZjsgc3Ryb2tlOiAjZmZmZmZmOyBzdHJva2Utd2lkdGg6IDAuNzU7IHN0cm9rZS1saW5lam9pbjogbWl0ZXIiIHk9IjMzNC41MjgwNzIiIHg9IjI2MC4yOTg3MDEiIHhsaW5rOmhyZWY9IiNtMGEwZGVlZjVlMCIvPiYjeGE7ICAgICA8dXNlIHN0eWxlPSJmaWxsOiAjMDAwMGZmOyBzdHJva2U6ICNmZmZmZmY7IHN0cm9rZS13aWR0aDogMC43NTsgc3Ryb2tlLWxpbmVqb2luOiBtaXRlciIgeT0iMzI4LjQxMTg3NyIgeD0iMjY3LjU0NTQ1NSIgeGxpbms6aHJlZj0iI20wYTBkZWVmNWUwIi8+JiN4YTsgICAgIDx1c2Ugc3R5bGU9ImZpbGw6ICMwMDAwZmY7IHN0cm9rZTogI2ZmZmZmZjsgc3Ryb2tlLXdpZHRoOiAwLjc1OyBzdHJva2UtbGluZWpvaW46IG1pdGVyIiB5PSIzNDAuMjM4OTU5IiB4PSIyNzQuNzkyMjA4IiB4bGluazpocmVmPSIjbTBhMGRlZWY1ZTAiLz4mI3hhOyAgICAgPHVzZSBzdHlsZT0iZmlsbDogIzAwMDBmZjsgc3Ryb2tlOiAjZmZmZmZmOyBzdHJva2Utd2lkdGg6IDAuNzU7IHN0cm9rZS1saW5lam9pbjogbWl0ZXIiIHk9IjMzNS43MzIwMTkiIHg9IjI4Mi4wMzg5NjEiIHhsaW5rOmhyZWY9IiNtMGEwZGVlZjVlMCIvPiYjeGE7ICAgICA8dXNlIHN0eWxlPSJmaWxsOiAjMDAwMGZmOyBzdHJva2U6ICNmZmZmZmY7IHN0cm9rZS13aWR0aDogMC43NTsgc3Ryb2tlLWxpbmVqb2luOiBtaXRlciIgeT0iMzQwLjExNTU2NyIgeD0iMjg5LjI4NTcxNCIgeGxpbms6aHJlZj0iI20wYTBkZWVmNWUwIi8+JiN4YTsgICAgIDx1c2Ugc3R5bGU9ImZpbGw6ICMwMDAwZmY7IHN0cm9rZTogI2ZmZmZmZjsgc3Ryb2tlLXdpZHRoOiAwLjc1OyBzdHJva2UtbGluZWpvaW46IG1pdGVyIiB5PSIzMzcuNDU2OTYxIiB4PSIyOTYuNTMyNDY4IiB4bGluazpocmVmPSIjbTBhMGRlZWY1ZTAiLz4mI3hhOyAgICAgPHVzZSBzdHlsZT0iZmlsbDogIzAwMDBmZjsgc3Ryb2tlOiAjZmZmZmZmOyBzdHJva2Utd2lkdGg6IDAuNzU7IHN0cm9rZS1saW5lam9pbjogbWl0ZXIiIHk9IjMzNi4wNzcxMTUiIHg9IjMwMy43NzkyMjEiIHhsaW5rOmhyZWY9IiNtMGEwZGVlZjVlMCIvPiYjeGE7ICAgICA8dXNlIHN0eWxlPSJmaWxsOiAjMDAwMGZmOyBzdHJva2U6ICNmZmZmZmY7IHN0cm9rZS13aWR0aDogMC43NTsgc3Ryb2tlLWxpbmVqb2luOiBtaXRlciIgeT0iMzM0LjY0MjY4MSIgeD0iMzExLjAyNTk3NCIgeGxpbms6aHJlZj0iI20wYTBkZWVmNWUwIi8+JiN4YTsgICAgIDx1c2Ugc3R5bGU9ImZpbGw6ICMwMDAwZmY7IHN0cm9rZTogI2ZmZmZmZjsgc3Ryb2tlLXdpZHRoOiAwLjc1OyBzdHJva2UtbGluZWpvaW46IG1pdGVyIiB5PSIzMzcuMzMwMTgiIHg9IjMxOC4yNzI3MjciIHhsaW5rOmhyZWY9IiNtMGEwZGVlZjVlMCIvPiYjeGE7ICAgICA8dXNlIHN0eWxlPSJmaWxsOiAjMDAwMGZmOyBzdHJva2U6ICNmZmZmZmY7IHN0cm9rZS13aWR0aDogMC43NTsgc3Ryb2tlLWxpbmVqb2luOiBtaXRlciIgeT0iMzM0LjczNjAyNCIgeD0iMzI1LjUxOTQ4MSIgeGxpbms6aHJlZj0iI20wYTBkZWVmNWUwIi8+JiN4YTsgICAgIDx1c2Ugc3R5bGU9ImZpbGw6ICMwMDAwZmY7IHN0cm9rZTogI2ZmZmZmZjsgc3Ryb2tlLXdpZHRoOiAwLjc1OyBzdHJva2UtbGluZWpvaW46IG1pdGVyIiB5PSIzNDEuODc0OTEyIiB4PSIzMzIuNzY2MjM0IiB4bGluazpocmVmPSIjbTBhMGRlZWY1ZTAiLz4mI3hhOyAgICAgPHVzZSBzdHlsZT0iZmlsbDogIzAwMDBmZjsgc3Ryb2tlOiAjZmZmZmZmOyBzdHJva2Utd2lkdGg6IDAuNzU7IHN0cm9rZS1saW5lam9pbjogbWl0ZXIiIHk9IjMzNi45MDE3OTUiIHg9IjM0MC4wMTI5ODciIHhsaW5rOmhyZWY9IiNtMGEwZGVlZjVlMCIvPiYjeGE7ICAgICA8dXNlIHN0eWxlPSJmaWxsOiAjMDAwMGZmOyBzdHJva2U6ICNmZmZmZmY7IHN0cm9rZS13aWR0aDogMC43NTsgc3Ryb2tlLWxpbmVqb2luOiBtaXRlciIgeT0iMzM2LjkyMjMyOCIgeD0iMzQ3LjI1OTc0IiB4bGluazpocmVmPSIjbTBhMGRlZWY1ZTAiLz4mI3hhOyAgICAgPHVzZSBzdHlsZT0iZmlsbDogIzAwMDBmZjsgc3Ryb2tlOiAjZmZmZmZmOyBzdHJva2Utd2lkdGg6IDAuNzU7IHN0cm9rZS1saW5lam9pbjogbWl0ZXIiIHk9IjMzMC44NTkyNTciIHg9IjM1NC41MDY0OTQiIHhsaW5rOmhyZWY9IiNtMGEwZGVlZjVlMCIvPiYjeGE7ICAgICA8dXNlIHN0eWxlPSJmaWxsOiAjMDAwMGZmOyBzdHJva2U6ICNmZmZmZmY7IHN0cm9rZS13aWR0aDogMC43NTsgc3Ryb2tlLWxpbmVqb2luOiBtaXRlciIgeT0iMzM5LjAzNjEzIiB4PSIzNjEuNzUzMjQ3IiB4bGluazpocmVmPSIjbTBhMGRlZWY1ZTAiLz4mI3hhOyAgICAgPHVzZSBzdHlsZT0iZmlsbDogIzAwMDBmZjsgc3Ryb2tlOiAjZmZmZmZmOyBzdHJva2Utd2lkdGg6IDAuNzU7IHN0cm9rZS1saW5lam9pbjogbWl0ZXIiIHk9IjMzMi44MTM3MjQiIHg9IjM2OSIgeGxpbms6aHJlZj0iI20wYTBkZWVmNWUwIi8+JiN4YTsgICAgIDx1c2Ugc3R5bGU9ImZpbGw6ICMwMDAwZmY7IHN0cm9rZTogI2ZmZmZmZjsgc3Ryb2tlLXdpZHRoOiAwLjc1OyBzdHJva2UtbGluZWpvaW46IG1pdGVyIiB5PSIzNDMuNDk5OTYyIiB4PSIzNzYuMjQ2NzUzIiB4bGluazpocmVmPSIjbTBhMGRlZWY1ZTAiLz4mI3hhOyAgICAgPHVzZSBzdHlsZT0iZmlsbDogIzAwMDBmZjsgc3Ryb2tlOiAjZmZmZmZmOyBzdHJva2Utd2lkdGg6IDAuNzU7IHN0cm9rZS1saW5lam9pbjogbWl0ZXIiIHk9IjMzOS43NDY5NzEiIHg9IjM4My40OTM1MDYiIHhsaW5rOmhyZWY9IiNtMGEwZGVlZjVlMCIvPiYjeGE7ICAgICA8dXNlIHN0eWxlPSJmaWxsOiAjMDAwMGZmOyBzdHJva2U6ICNmZmZmZmY7IHN0cm9rZS13aWR0aDogMC43NTsgc3Ryb2tlLWxpbmVqb2luOiBtaXRlciIgeT0iMzQzLjA2MTMzIiB4PSIzOTAuNzQwMjYiIHhsaW5rOmhyZWY9IiNtMGEwZGVlZjVlMCIvPiYjeGE7ICAgICA8dXNlIHN0eWxlPSJmaWxsOiAjMDAwMGZmOyBzdHJva2U6ICNmZmZmZmY7IHN0cm9rZS13aWR0aDogMC43NTsgc3Ryb2tlLWxpbmVqb2luOiBtaXRlciIgeT0iMzM4LjM2MDMwNiIgeD0iMzk3Ljk4NzAxMyIgeGxpbms6aHJlZj0iI20wYTBkZWVmNWUwIi8+JiN4YTsgICAgIDx1c2Ugc3R5bGU9ImZpbGw6ICMwMDAwZmY7IHN0cm9rZTogI2ZmZmZmZjsgc3Ryb2tlLXdpZHRoOiAwLjc1OyBzdHJva2UtbGluZWpvaW46IG1pdGVyIiB5PSIzNDQuMzcyOTg5IiB4PSI0MDUuMjMzNzY2IiB4bGluazpocmVmPSIjbTBhMGRlZWY1ZTAiLz4mI3hhOyAgICAgPHVzZSBzdHlsZT0iZmlsbDogIzAwMDBmZjsgc3Ryb2tlOiAjZmZmZmZmOyBzdHJva2Utd2lkdGg6IDAuNzU7IHN0cm9rZS1saW5lam9pbjogbWl0ZXIiIHk9IjMzNi45NjQ2MjciIHg9IjQxMi40ODA1MTkiIHhsaW5rOmhyZWY9IiNtMGEwZGVlZjVlMCIvPiYjeGE7ICAgICA8dXNlIHN0eWxlPSJmaWxsOiAjMDAwMGZmOyBzdHJva2U6ICNmZmZmZmY7IHN0cm9rZS13aWR0aDogMC43NTsgc3Ryb2tlLWxpbmVqb2luOiBtaXRlciIgeT0iMzQwLjYxMTcxNSIgeD0iNDE5LjcyNzI3MyIgeGxpbms6aHJlZj0iI20wYTBkZWVmNWUwIi8+JiN4YTsgICAgIDx1c2Ugc3R5bGU9ImZpbGw6ICMwMDAwZmY7IHN0cm9rZTogI2ZmZmZmZjsgc3Ryb2tlLXdpZHRoOiAwLjc1OyBzdHJva2UtbGluZWpvaW46IG1pdGVyIiB5PSIzNDEuMjkyMjM5IiB4PSI0MjYuOTc0MDI2IiB4bGluazpocmVmPSIjbTBhMGRlZWY1ZTAiLz4mI3hhOyAgICAgPHVzZSBzdHlsZT0iZmlsbDogIzAwMDBmZjsgc3Ryb2tlOiAjZmZmZmZmOyBzdHJva2Utd2lkdGg6IDAuNzU7IHN0cm9rZS1saW5lam9pbjogbWl0ZXIiIHk9IjM0My4zMjc3OTkiIHg9IjQzNC4yMjA3NzkiIHhsaW5rOmhyZWY9IiNtMGEwZGVlZjVlMCIvPiYjeGE7ICAgICA8dXNlIHN0eWxlPSJmaWxsOiAjMDAwMGZmOyBzdHJva2U6ICNmZmZmZmY7IHN0cm9rZS13aWR0aDogMC43NTsgc3Ryb2tlLWxpbmVqb2luOiBtaXRlciIgeT0iMzQ0LjQyNjE5IiB4PSI0NDEuNDY3NTMyIiB4bGluazpocmVmPSIjbTBhMGRlZWY1ZTAiLz4mI3hhOyAgICAgPHVzZSBzdHlsZT0iZmlsbDogIzAwMDBmZjsgc3Ryb2tlOiAjZmZmZmZmOyBzdHJva2Utd2lkdGg6IDAuNzU7IHN0cm9rZS1saW5lam9pbjogbWl0ZXIiIHk9IjMzOS42MjIzODUiIHg9IjQ0OC43MTQyODYiIHhsaW5rOmhyZWY9IiNtMGEwZGVlZjVlMCIvPiYjeGE7ICAgICA8dXNlIHN0eWxlPSJmaWxsOiAjMDAwMGZmOyBzdHJva2U6ICNmZmZmZmY7IHN0cm9rZS13aWR0aDogMC43NTsgc3Ryb2tlLWxpbmVqb2luOiBtaXRlciIgeT0iMzM4LjAwOTU0NyIgeD0iNDU1Ljk2MTAzOSIgeGxpbms6aHJlZj0iI20wYTBkZWVmNWUwIi8+JiN4YTsgICAgIDx1c2Ugc3R5bGU9ImZpbGw6ICMwMDAwZmY7IHN0cm9rZTogI2ZmZmZmZjsgc3Ryb2tlLXdpZHRoOiAwLjc1OyBzdHJva2UtbGluZWpvaW46IG1pdGVyIiB5PSIzNDEuOTI4MzQ0IiB4PSI0NjMuMjA3NzkyIiB4bGluazpocmVmPSIjbTBhMGRlZWY1ZTAiLz4mI3hhOyAgICAgPHVzZSBzdHlsZT0iZmlsbDogIzAwMDBmZjsgc3Ryb2tlOiAjZmZmZmZmOyBzdHJva2Utd2lkdGg6IDAuNzU7IHN0cm9rZS1saW5lam9pbjogbWl0ZXIiIHk9IjM0MS41MjM5OTgiIHg9IjQ3MC40NTQ1NDUiIHhsaW5rOmhyZWY9IiNtMGEwZGVlZjVlMCIvPiYjeGE7ICAgICA8dXNlIHN0eWxlPSJmaWxsOiAjMDAwMGZmOyBzdHJva2U6ICNmZmZmZmY7IHN0cm9rZS13aWR0aDogMC43NTsgc3Ryb2tlLWxpbmVqb2luOiBtaXRlciIgeT0iMzQyLjk1MzE5MyIgeD0iNDc3LjcwMTI5OSIgeGxpbms6aHJlZj0iI20wYTBkZWVmNWUwIi8+JiN4YTsgICAgIDx1c2Ugc3R5bGU9ImZpbGw6ICMwMDAwZmY7IHN0cm9rZTogI2ZmZmZmZjsgc3Ryb2tlLXdpZHRoOiAwLjc1OyBzdHJva2UtbGluZWpvaW46IG1pdGVyIiB5PSIzNDIuOTYxNDM3IiB4PSI0ODQuOTQ4MDUyIiB4bGluazpocmVmPSIjbTBhMGRlZWY1ZTAiLz4mI3hhOyAgICAgPHVzZSBzdHlsZT0iZmlsbDogIzAwMDBmZjsgc3Ryb2tlOiAjZmZmZmZmOyBzdHJva2Utd2lkdGg6IDAuNzU7IHN0cm9rZS1saW5lam9pbjogbWl0ZXIiIHk9IjM0MC42NzkyODYiIHg9IjQ5Mi4xOTQ4MDUiIHhsaW5rOmhyZWY9IiNtMGEwZGVlZjVlMCIvPiYjeGE7ICAgICA8dXNlIHN0eWxlPSJmaWxsOiAjMDAwMGZmOyBzdHJva2U6ICNmZmZmZmY7IHN0cm9rZS13aWR0aDogMC43NTsgc3Ryb2tlLWxpbmVqb2luOiBtaXRlciIgeT0iMzQzLjI4Nzc3MyIgeD0iNDk5LjQ0MTU1OCIgeGxpbms6aHJlZj0iI20wYTBkZWVmNWUwIi8+JiN4YTsgICAgIDx1c2Ugc3R5bGU9ImZpbGw6ICMwMDAwZmY7IHN0cm9rZTogI2ZmZmZmZjsgc3Ryb2tlLXdpZHRoOiAwLjc1OyBzdHJva2UtbGluZWpvaW46IG1pdGVyIiB5PSIzNDMuMTY3MTU1IiB4PSI1MDYuNjg4MzEyIiB4bGluazpocmVmPSIjbTBhMGRlZWY1ZTAiLz4mI3hhOyAgICAgPHVzZSBzdHlsZT0iZmlsbDogIzAwMDBmZjsgc3Ryb2tlOiAjZmZmZmZmOyBzdHJva2Utd2lkdGg6IDAuNzU7IHN0cm9rZS1saW5lam9pbjogbWl0ZXIiIHk9IjMzNy45MzUzNSIgeD0iNTEzLjkzNTA2NSIgeGxpbms6aHJlZj0iI20wYTBkZWVmNWUwIi8+JiN4YTsgICAgIDx1c2Ugc3R5bGU9ImZpbGw6ICMwMDAwZmY7IHN0cm9rZTogI2ZmZmZmZjsgc3Ryb2tlLXdpZHRoOiAwLjc1OyBzdHJva2UtbGluZWpvaW46IG1pdGVyIiB5PSIzMzkuNjgxMjg4IiB4PSI1MjEuMTgxODE4IiB4bGluazpocmVmPSIjbTBhMGRlZWY1ZTAiLz4mI3hhOyAgICAgPHVzZSBzdHlsZT0iZmlsbDogIzAwMDBmZjsgc3Ryb2tlOiAjZmZmZmZmOyBzdHJva2Utd2lkdGg6IDAuNzU7IHN0cm9rZS1saW5lam9pbjogbWl0ZXIiIHk9IjM0MC4zNjYyNDIiIHg9IjUyOC40Mjg1NzEiIHhsaW5rOmhyZWY9IiNtMGEwZGVlZjVlMCIvPiYjeGE7ICAgICA8dXNlIHN0eWxlPSJmaWxsOiAjMDAwMGZmOyBzdHJva2U6ICNmZmZmZmY7IHN0cm9rZS13aWR0aDogMC43NTsgc3Ryb2tlLWxpbmVqb2luOiBtaXRlciIgeT0iMzQwLjU3MzE1MyIgeD0iNTM1LjY3NTMyNSIgeGxpbms6aHJlZj0iI20wYTBkZWVmNWUwIi8+JiN4YTsgICAgIDx1c2Ugc3R5bGU9ImZpbGw6ICMwMDAwZmY7IHN0cm9rZTogI2ZmZmZmZjsgc3Ryb2tlLXdpZHRoOiAwLjc1OyBzdHJva2UtbGluZWpvaW46IG1pdGVyIiB5PSIzMzkuOTAxNDEzIiB4PSI1NDIuOTIyMDc4IiB4bGluazpocmVmPSIjbTBhMGRlZWY1ZTAiLz4mI3hhOyAgICAgPHVzZSBzdHlsZT0iZmlsbDogIzAwMDBmZjsgc3Ryb2tlOiAjZmZmZmZmOyBzdHJva2Utd2lkdGg6IDAuNzU7IHN0cm9rZS1saW5lam9pbjogbWl0ZXIiIHk9IjM0Mi4xODE0ODQiIHg9IjU1MC4xNjg4MzEiIHhsaW5rOmhyZWY9IiNtMGEwZGVlZjVlMCIvPiYjeGE7ICAgICA8dXNlIHN0eWxlPSJmaWxsOiAjMDAwMGZmOyBzdHJva2U6ICNmZmZmZmY7IHN0cm9rZS13aWR0aDogMC43NTsgc3Ryb2tlLWxpbmVqb2luOiBtaXRlciIgeT0iMzQwLjEwMDMxMiIgeD0iNTU3LjQxNTU4NCIgeGxpbms6aHJlZj0iI20wYTBkZWVmNWUwIi8+JiN4YTsgICAgIDx1c2Ugc3R5bGU9ImZpbGw6ICMwMDAwZmY7IHN0cm9rZTogI2ZmZmZmZjsgc3Ryb2tlLXdpZHRoOiAwLjc1OyBzdHJva2UtbGluZWpvaW46IG1pdGVyIiB5PSIzNDAuNTM1OTM5IiB4PSI1NjQuNjYyMzM4IiB4bGluazpocmVmPSIjbTBhMGRlZWY1ZTAiLz4mI3hhOyAgICAgPHVzZSBzdHlsZT0iZmlsbDogIzAwMDBmZjsgc3Ryb2tlOiAjZmZmZmZmOyBzdHJva2Utd2lkdGg6IDAuNzU7IHN0cm9rZS1saW5lam9pbjogbWl0ZXIiIHk9IjM0MC42MzkwMjkiIHg9IjU3MS45MDkwOTEiIHhsaW5rOmhyZWY9IiNtMGEwZGVlZjVlMCIvPiYjeGE7ICAgICA8dXNlIHN0eWxlPSJmaWxsOiAjMDAwMGZmOyBzdHJva2U6ICNmZmZmZmY7IHN0cm9rZS13aWR0aDogMC43NTsgc3Ryb2tlLWxpbmVqb2luOiBtaXRlciIgeT0iMzQwLjQ5MTkwNiIgeD0iNTc5LjE1NTg0NCIgeGxpbms6aHJlZj0iI20wYTBkZWVmNWUwIi8+JiN4YTsgICAgIDx1c2Ugc3R5bGU9ImZpbGw6ICMwMDAwZmY7IHN0cm9rZTogI2ZmZmZmZjsgc3Ryb2tlLXdpZHRoOiAwLjc1OyBzdHJva2UtbGluZWpvaW46IG1pdGVyIiB5PSIzMzYuNjg0NTU5IiB4PSI1ODYuNDAyNTk3IiB4bGluazpocmVmPSIjbTBhMGRlZWY1ZTAiLz4mI3hhOyAgICAgPHVzZSBzdHlsZT0iZmlsbDogIzAwMDBmZjsgc3Ryb2tlOiAjZmZmZmZmOyBzdHJva2Utd2lkdGg6IDAuNzU7IHN0cm9rZS1saW5lam9pbjogbWl0ZXIiIHk9IjM0MS44MjYzMzMiIHg9IjU5My42NDkzNTEiIHhsaW5rOmhyZWY9IiNtMGEwZGVlZjVlMCIvPiYjeGE7ICAgICA8dXNlIHN0eWxlPSJmaWxsOiAjMDAwMGZmOyBzdHJva2U6ICNmZmZmZmY7IHN0cm9rZS13aWR0aDogMC43NTsgc3Ryb2tlLWxpbmVqb2luOiBtaXRlciIgeT0iMzM0LjIxMTU2MSIgeD0iNjAwLjg5NjEwNCIgeGxpbms6aHJlZj0iI20wYTBkZWVmNWUwIi8+JiN4YTsgICAgIDx1c2Ugc3R5bGU9ImZpbGw6ICMwMDAwZmY7IHN0cm9rZTogI2ZmZmZmZjsgc3Ryb2tlLXdpZHRoOiAwLjc1OyBzdHJva2UtbGluZWpvaW46IG1pdGVyIiB5PSIzMzkuMjE4Njk0IiB4PSI2MDguMTQyODU3IiB4bGluazpocmVmPSIjbTBhMGRlZWY1ZTAiLz4mI3hhOyAgICAgPHVzZSBzdHlsZT0iZmlsbDogIzAwMDBmZjsgc3Ryb2tlOiAjZmZmZmZmOyBzdHJva2Utd2lkdGg6IDAuNzU7IHN0cm9rZS1saW5lam9pbjogbWl0ZXIiIHk9IjMzNy44NzU2IiB4PSI2MTUuMzg5NjEiIHhsaW5rOmhyZWY9IiNtMGEwZGVlZjVlMCIvPiYjeGE7ICAgICA8dXNlIHN0eWxlPSJmaWxsOiAjMDAwMGZmOyBzdHJva2U6ICNmZmZmZmY7IHN0cm9rZS13aWR0aDogMC43NTsgc3Ryb2tlLWxpbmVqb2luOiBtaXRlciIgeT0iMzI0LjU5OTM2NyIgeD0iNjIyLjYzNjM2NCIgeGxpbms6aHJlZj0iI20wYTBkZWVmNWUwIi8+JiN4YTsgICAgPC9nPiYjeGE7ICAgPC9nPiYjeGE7ICAgPGcgaWQ9ImxpbmUyZF8xNiIvPiYjeGE7ICAgPGcgaWQ9ImxpbmUyZF8xNyIvPiYjeGE7ICAgPGcgaWQ9InBhdGNoXzMiPiYjeGE7ICAgIDxwYXRoIHN0eWxlPSJmaWxsOiBub25lOyBzdHJva2U6ICNjY2NjY2M7IHN0cm9rZS13aWR0aDogMS4yNTsgc3Ryb2tlLWxpbmVqb2luOiBtaXRlcjsgc3Ryb2tlLWxpbmVjYXA6IHNxdWFyZSIgZD0iTSA5MCAzODQuNDggJiMxMDtMIDkwIDUxLjg0Ii8+JiN4YTsgICA8L2c+JiN4YTsgICA8ZyBpZD0icGF0Y2hfNCI+JiN4YTsgICAgPHBhdGggc3R5bGU9ImZpbGw6IG5vbmU7IHN0cm9rZTogI2NjY2NjYzsgc3Ryb2tlLXdpZHRoOiAxLjI1OyBzdHJva2UtbGluZWpvaW46IG1pdGVyOyBzdHJva2UtbGluZWNhcDogc3F1YXJlIiBkPSJNIDY0OCAzODQuNDggJiMxMDtMIDY0OCA1MS44NCIvPiYjeGE7ICAgPC9nPiYjeGE7ICAgPGcgaWQ9InBhdGNoXzUiPiYjeGE7ICAgIDxwYXRoIHN0eWxlPSJmaWxsOiBub25lOyBzdHJva2U6ICNjY2NjY2M7IHN0cm9rZS13aWR0aDogMS4yNTsgc3Ryb2tlLWxpbmVqb2luOiBtaXRlcjsgc3Ryb2tlLWxpbmVjYXA6IHNxdWFyZSIgZD0iTSA5MCAzODQuNDggJiMxMDtMIDY0OCAzODQuNDgiLz4mI3hhOyAgIDwvZz4mI3hhOyAgIDxnIGlkPSJwYXRjaF82Ij4mI3hhOyAgICA8cGF0aCBzdHlsZT0iZmlsbDogbm9uZTsgc3Ryb2tlOiAjY2NjY2NjOyBzdHJva2Utd2lkdGg6IDEuMjU7IHN0cm9rZS1saW5lam9pbjogbWl0ZXI7IHN0cm9rZS1saW5lY2FwOiBzcXVhcmUiIGQ9Ik0gOTAgNTEuODQgJiMxMDtMIDY0OCA1MS44NCIvPiYjeGE7ICAgPC9nPiYjeGE7ICAgPGcgaWQ9InRleHRfMTYiPiYjeGE7ICAgICYjeGE7ICAgIDxnIHRyYW5zZm9ybT0idHJhbnNsYXRlKDMzNi4wOTYyNSA0NS44NCkgc2NhbGUoMC4xNiAtMC4xNikiIHN0eWxlPSJmaWxsOiAjMjYyNjI2Ij4mI3hhOyAgICAgPGRlZnM+JiN4YTsgICAgICA8cGF0aCB0cmFuc2Zvcm09InNjYWxlKDAuMDE1NjI1KSIgZD0iTSA0NzUgMCAmIzEwO0wgNDc1IDQ1ODEgJiMxMDtMIDEzODggNDU4MSAmIzEwO0wgMjQ3MiAxMzM4ICYjMTA7USAyNjIyIDg4NCAyNjkxIDY1OSAmIzEwO1EgMjc2OSA5MDkgMjkzNCAxMzk0ICYjMTA7TCA0MDMxIDQ1ODEgJiMxMDtMIDQ4NDcgNDU4MSAmIzEwO0wgNDg0NyAwICYjMTA7TCA0MjYzIDAgJiMxMDtMIDQyNjMgMzgzNCAmIzEwO0wgMjkzMSAwICYjMTA7TCAyMzg0IDAgJiMxMDtMIDEwNTkgMzkwMCAmIzEwO0wgMTA1OSAwICYjMTA7TCA0NzUgMCAmIzEwO3oiIGlkPSJBcmlhbE1ULTRkIi8+JiN4YTsgICAgICA8cGF0aCB0cmFuc2Zvcm09InNjYWxlKDAuMDE1NjI1KSIgZD0iTSAyNTc1IDAgJiMxMDtMIDI1NzUgNDE5ICYjMTA7USAyMjU5IC03NSAxNjQ3IC03NSAmIzEwO1EgMTI1MCAtNzUgOTE3IDE0NCAmIzEwO1EgNTg0IDM2MyA0MDEgNzU1ICYjMTA7USAyMTkgMTE0NyAyMTkgMTY1NiAmIzEwO1EgMjE5IDIxNTMgMzg0IDI1NTggJiMxMDtRIDU1MCAyOTYzIDg4MSAzMTc4ICYjMTA7USAxMjEzIDMzOTQgMTYyMiAzMzk0ICYjMTA7USAxOTIyIDMzOTQgMjE1NiAzMjY3ICYjMTA7USAyMzkxIDMxNDEgMjUzOCAyOTM4ICYjMTA7TCAyNTM4IDQ1ODEgJiMxMDtMIDMwOTcgNDU4MSAmIzEwO0wgMzA5NyAwICYjMTA7TCAyNTc1IDAgJiMxMDt6JiMxMDtNIDc5NyAxNjU2ICYjMTA7USA3OTcgMTAxOSAxMDY1IDcwMyAmIzEwO1EgMTMzNCAzODggMTcwMCAzODggJiMxMDtRIDIwNjkgMzg4IDIzMjYgNjg5ICYjMTA7USAyNTg0IDk5MSAyNTg0IDE2MDkgJiMxMDtRIDI1ODQgMjI5MSAyMzIxIDI2MDkgJiMxMDtRIDIwNTkgMjkyOCAxNjc1IDI5MjggJiMxMDtRIDEzMDAgMjkyOCAxMDQ4IDI2MjIgJiMxMDtRIDc5NyAyMzE2IDc5NyAxNjU2ICYjMTA7eiIgaWQ9IkFyaWFsTVQtNjQiLz4mI3hhOyAgICAgIDxwYXRoIHRyYW5zZm9ybT0ic2NhbGUoMC4wMTU2MjUpIiBkPSJNIDE2NTAgNTAzICYjMTA7TCAxNzMxIDYgJiMxMDtRIDE0OTQgLTQ0IDEzMDYgLTQ0ICYjMTA7USAxMDAwIC00NCA4MzEgNTMgJiMxMDtRIDY2MyAxNTAgNTk0IDMwOCAmIzEwO1EgNTI1IDQ2NiA1MjUgOTcyICYjMTA7TCA1MjUgMjg4MSAmIzEwO0wgMTEzIDI4ODEgJiMxMDtMIDExMyAzMzE5ICYjMTA7TCA1MjUgMzMxOSAmIzEwO0wgNTI1IDQxNDEgJiMxMDtMIDEwODQgNDQ3OCAmIzEwO0wgMTA4NCAzMzE5ICYjMTA7TCAxNjUwIDMzMTkgJiMxMDtMIDE2NTAgMjg4MSAmIzEwO0wgMTA4NCAyODgxICYjMTA7TCAxMDg0IDk0MSAmIzEwO1EgMTA4NCA3MDAgMTExNCA2MzEgJiMxMDtRIDExNDQgNTYzIDEyMTEgNTIyICYjMTA7USAxMjc4IDQ4MSAxNDAzIDQ4MSAmIzEwO1EgMTQ5NyA0ODEgMTY1MCA1MDMgJiMxMDt6IiBpZD0iQXJpYWxNVC03NCIvPiYjeGE7ICAgICAgPHBhdGggdHJhbnNmb3JtPSJzY2FsZSgwLjAxNTYyNSkiIGQ9Ik0gNTU2IDAgJiMxMDtMIDU1NiAyODgxICYjMTA7TCA1OSAyODgxICYjMTA7TCA1OSAzMzE5ICYjMTA7TCA1NTYgMzMxOSAmIzEwO0wgNTU2IDM2NzIgJiMxMDtRIDU1NiA0MDA2IDYxNiA0MTY5ICYjMTA7USA2OTcgNDM4OCA5MDEgNDUyMyAmIzEwO1EgMTEwNiA0NjU5IDE0NzUgNDY1OSAmIzEwO1EgMTcxMyA0NjU5IDIwMDAgNDYwMyAmIzEwO0wgMTkxNiA0MTEzICYjMTA7USAxNzQxIDQxNDQgMTU4NCA0MTQ0ICYjMTA7USAxMzI4IDQxNDQgMTIyMiA0MDM0ICYjMTA7USAxMTE2IDM5MjUgMTExNiAzNjI1ICYjMTA7TCAxMTE2IDMzMTkgJiMxMDtMIDE3NjMgMzMxOSAmIzEwO0wgMTc2MyAyODgxICYjMTA7TCAxMTE2IDI4ODEgJiMxMDtMIDExMTYgMCAmIzEwO0wgNTU2IDAgJiMxMDt6IiBpZD0iQXJpYWxNVC02NiIvPiYjeGE7ICAgICA8L2RlZnM+JiN4YTsgICAgIDx1c2UgeGxpbms6aHJlZj0iI0FyaWFsTVQtNGQiLz4mI3hhOyAgICAgPHVzZSB4PSI4My4zMDA3ODEiIHhsaW5rOmhyZWY9IiNBcmlhbE1ULTZmIi8+JiN4YTsgICAgIDx1c2UgeD0iMTM4LjkxNjAxNiIgeGxpbms6aHJlZj0iI0FyaWFsTVQtNjQiLz4mI3hhOyAgICAgPHVzZSB4PSIxOTQuNTMxMjUiIHhsaW5rOmhyZWY9IiNBcmlhbE1ULTY1Ii8+JiN4YTsgICAgIDx1c2UgeD0iMjUwLjE0NjQ4NCIgeGxpbms6aHJlZj0iI0FyaWFsTVQtNmMiLz4mI3hhOyAgICAgPHVzZSB4PSIyNzIuMzYzMjgxIiB4bGluazpocmVmPSIjQXJpYWxNVC0zMCIvPiYjeGE7ICAgICA8dXNlIHg9IjMyNy45Nzg1MTYiIHhsaW5rOmhyZWY9IiNBcmlhbE1ULTJlIi8+JiN4YTsgICAgIDx1c2UgeD0iMzU1Ljc2MTcxOSIgeGxpbms6aHJlZj0iI0FyaWFsTVQtNzQiLz4mI3hhOyAgICAgPHVzZSB4PSIzODMuNTQ0OTIyIiB4bGluazpocmVmPSIjQXJpYWxNVC02NiIvPiYjeGE7ICAgIDwvZz4mI3hhOyAgIDwvZz4mI3hhOyAgIDxnIGlkPSJsZWdlbmRfMSI+JiN4YTsgICAgPGcgaWQ9InBhdGNoXzciPiYjeGE7ICAgICA8cGF0aCBzdHlsZT0iZmlsbDogI2ZmZmZmZjsgb3BhY2l0eTogMC44OyBzdHJva2U6ICNjY2NjY2M7IHN0cm9rZS1saW5lam9pbjogbWl0ZXIiIGQ9Ik0gNTA5LjkxNTYyNSAxMDkuMjc3NSAmIzEwO0wgNjQwLjMgMTA5LjI3NzUgJiMxMDtRIDY0Mi41IDEwOS4yNzc1IDY0Mi41IDEwNy4wNzc1ICYjMTA7TCA2NDIuNSA1OS41NCAmIzEwO1EgNjQyLjUgNTcuMzQgNjQwLjMgNTcuMzQgJiMxMDtMIDUwOS45MTU2MjUgNTcuMzQgJiMxMDtRIDUwNy43MTU2MjUgNTcuMzQgNTA3LjcxNTYyNSA1OS41NCAmIzEwO0wgNTA3LjcxNTYyNSAxMDcuMDc3NSAmIzEwO1EgNTA3LjcxNTYyNSAxMDkuMjc3NSA1MDkuOTE1NjI1IDEwOS4yNzc1ICYjMTA7eiIvPiYjeGE7ICAgIDwvZz4mI3hhOyAgICA8ZyBpZD0idGV4dF8xNyI+JiN4YTsgICAgICYjeGE7ICAgICA8ZyB0cmFuc2Zvcm09InRyYW5zbGF0ZSg1NTcuNDE0NjA5IDcxLjA0NTE1Nikgc2NhbGUoMC4xMyAtMC4xMykiIHN0eWxlPSJmaWxsOiAjMjYyNjI2Ij4mI3hhOyAgICAgIDxkZWZzPiYjeGE7ICAgICAgIDxwYXRoIHRyYW5zZm9ybT0ic2NhbGUoMC4wMTU2MjUpIiBkPSJNIDQxNiAwICYjMTA7TCA0MTYgMzMxOSAmIzEwO0wgOTIyIDMzMTkgJiMxMDtMIDkyMiAyODE2ICYjMTA7USAxMTE2IDMxNjkgMTI4MCAzMjgxICYjMTA7USAxNDQ0IDMzOTQgMTY0MSAzMzk0ICYjMTA7USAxOTI1IDMzOTQgMjIxOSAzMjEzICYjMTA7TCAyMDI1IDI2OTEgJiMxMDtRIDE4MTkgMjgxMyAxNjEzIDI4MTMgJiMxMDtRIDE0MjggMjgxMyAxMjgxIDI3MDIgJiMxMDtRIDExMzQgMjU5MSAxMDcyIDIzOTQgJiMxMDtRIDk3OCAyMDk0IDk3OCAxNzM4ICYjMTA7TCA5NzggMCAmIzEwO0wgNDE2IDAgJiMxMDt6IiBpZD0iQXJpYWxNVC03MiIvPiYjeGE7ICAgICAgIDxwYXRoIHRyYW5zZm9ybT0ic2NhbGUoMC4wMTU2MjUpIiBkPSJNIDQyNSAzOTM0ICYjMTA7TCA0MjUgNDU4MSAmIzEwO0wgOTg4IDQ1ODEgJiMxMDtMIDk4OCAzOTM0ICYjMTA7TCA0MjUgMzkzNCAmIzEwO3omIzEwO00gNDI1IDAgJiMxMDtMIDQyNSAzMzE5ICYjMTA7TCA5ODggMzMxOSAmIzEwO0wgOTg4IDAgJiMxMDtMIDQyNSAwICYjMTA7eiIgaWQ9IkFyaWFsTVQtNjkiLz4mI3hhOyAgICAgIDwvZGVmcz4mI3hhOyAgICAgIDx1c2UgeGxpbms6aHJlZj0iI0FyaWFsTVQtNGQiLz4mI3hhOyAgICAgIDx1c2UgeD0iODMuMzAwNzgxIiB4bGluazpocmVmPSIjQXJpYWxNVC02NSIvPiYjeGE7ICAgICAgPHVzZSB4PSIxMzguOTE2MDE2IiB4bGluazpocmVmPSIjQXJpYWxNVC03NCIvPiYjeGE7ICAgICAgPHVzZSB4PSIxNjYuNjk5MjE5IiB4bGluazpocmVmPSIjQXJpYWxNVC03MiIvPiYjeGE7ICAgICAgPHVzZSB4PSIyMDAiIHhsaW5rOmhyZWY9IiNBcmlhbE1ULTY5Ii8+JiN4YTsgICAgICA8dXNlIHg9IjIyMi4yMTY3OTciIHhsaW5rOmhyZWY9IiNBcmlhbE1ULTYzIi8+JiN4YTsgICAgIDwvZz4mI3hhOyAgICA8L2c+JiN4YTsgICAgPGcgaWQ9ImxpbmUyZF8xOCI+JiN4YTsgICAgIDxwYXRoIHN0eWxlPSJmaWxsOiBub25lOyBzdHJva2U6ICNmZjAwMDA7IHN0cm9rZS13aWR0aDogMS41OyBzdHJva2UtbGluZWNhcDogcm91bmQiIGQ9Ik0gNTEyLjExNTYyNSA4My4xNTI1ICYjMTA7TCA1MjMuMTE1NjI1IDgzLjE1MjUgJiMxMDtMIDUzNC4xMTU2MjUgODMuMTUyNSIvPiYjeGE7ICAgICA8ZGVmcz4mI3hhOyAgICAgIDxwYXRoIHN0eWxlPSJzdHJva2U6ICNmZjAwMDAiIGQ9Ik0gMCAzICYjMTA7QyAwLjc5NTYwOSAzIDEuNTU4NzQgMi42ODM5MDEgMi4xMjEzMiAyLjEyMTMyICYjMTA7QyAyLjY4MzkwMSAxLjU1ODc0IDMgMC43OTU2MDkgMyAwICYjMTA7QyAzIC0wLjc5NTYwOSAyLjY4MzkwMSAtMS41NTg3NCAyLjEyMTMyIC0yLjEyMTMyICYjMTA7QyAxLjU1ODc0IC0yLjY4MzkwMSAwLjc5NTYwOSAtMyAwIC0zICYjMTA7QyAtMC43OTU2MDkgLTMgLTEuNTU4NzQgLTIuNjgzOTAxIC0yLjEyMTMyIC0yLjEyMTMyICYjMTA7QyAtMi42ODM5MDEgLTEuNTU4NzQgLTMgLTAuNzk1NjA5IC0zIDAgJiMxMDtDIC0zIDAuNzk1NjA5IC0yLjY4MzkwMSAxLjU1ODc0IC0yLjEyMTMyIDIuMTIxMzIgJiMxMDtDIC0xLjU1ODc0IDIuNjgzOTAxIC0wLjc5NTYwOSAzIDAgMyAmIzEwO3oiIGlkPSJtYjMxMTU5NTY5MCIvPiYjeGE7ICAgICA8L2RlZnM+JiN4YTsgICAgIDxnPiYjeGE7ICAgICAgPHVzZSBzdHlsZT0iZmlsbDogI2ZmMDAwMDsgc3Ryb2tlOiAjZmYwMDAwIiB5PSI4My4xNTI1IiB4PSI1MjMuMTE1NjI1IiB4bGluazpocmVmPSIjbWIzMTE1OTU2OTAiLz4mI3hhOyAgICAgPC9nPiYjeGE7ICAgIDwvZz4mI3hhOyAgICA8ZyBpZD0idGV4dF8xOCI+JiN4YTsgICAgICYjeGE7ICAgICA8ZyB0cmFuc2Zvcm09InRyYW5zbGF0ZSg1NDIuOTE1NjI1IDg3LjAwMjUpIHNjYWxlKDAuMTEgLTAuMTEpIiBzdHlsZT0iZmlsbDogIzI2MjYyNiI+JiN4YTsgICAgICA8ZGVmcz4mI3hhOyAgICAgICA8cGF0aCB0cmFuc2Zvcm09InNjYWxlKDAuMDE1NjI1KSIgZD0iTSA0MjIgMCAmIzEwO0wgNDIyIDMzMTkgJiMxMDtMIDkyOCAzMzE5ICYjMTA7TCA5MjggMjg0NyAmIzEwO1EgMTI5NCAzMzk0IDE5ODQgMzM5NCAmIzEwO1EgMjI4NCAzMzk0IDI1MzYgMzI4NiAmIzEwO1EgMjc4OCAzMTc4IDI5MTMgMzAwMyAmIzEwO1EgMzAzOCAyODI4IDMwODggMjU4OCAmIzEwO1EgMzExOSAyNDMxIDMxMTkgMjA0MSAmIzEwO0wgMzExOSAwICYjMTA7TCAyNTU2IDAgJiMxMDtMIDI1NTYgMjAxOSAmIzEwO1EgMjU1NiAyMzYzIDI0OTAgMjUzMyAmIzEwO1EgMjQyNSAyNzAzIDIyNTggMjgwNCAmIzEwO1EgMjA5MSAyOTA2IDE4NjYgMjkwNiAmIzEwO1EgMTUwNiAyOTA2IDEyNDUgMjY3OCAmIzEwO1EgOTg0IDI0NTAgOTg0IDE4MTMgJiMxMDtMIDk4NCAwICYjMTA7TCA0MjIgMCAmIzEwO3oiIGlkPSJBcmlhbE1ULTZlIi8+JiN4YTsgICAgICAgPHBhdGggdHJhbnNmb3JtPSJzY2FsZSgwLjAxNTYyNSkiIGlkPSJBcmlhbE1ULTIwIi8+JiN4YTsgICAgICAgPHBhdGggdHJhbnNmb3JtPSJzY2FsZSgwLjAxNTYyNSkiIGQ9Ik0gLTkgMCAmIzEwO0wgMTc1MCA0NTgxICYjMTA7TCAyNDAzIDQ1ODEgJiMxMDtMIDQyNzggMCAmIzEwO0wgMzU4OCAwICYjMTA7TCAzMDUzIDEzODggJiMxMDtMIDExMzggMTM4OCAmIzEwO0wgNjM0IDAgJiMxMDtMIC05IDAgJiMxMDt6JiMxMDtNIDEzMTMgMTg4MSAmIzEwO0wgMjg2NiAxODgxICYjMTA7TCAyMzg4IDMxNTAgJiMxMDtRIDIxNjkgMzcyOCAyMDYzIDQxMDAgJiMxMDtRIDE5NzUgMzY1OSAxODE2IDMyMjUgJiMxMDtMIDEzMTMgMTg4MSAmIzEwO3oiIGlkPSJBcmlhbE1ULTQxIi8+JiN4YTsgICAgICAgPHBhdGggdHJhbnNmb3JtPSJzY2FsZSgwLjAxNTYyNSkiIGQ9Ik0gMzk3IC0xMjc4ICYjMTA7TCAzMzQgLTc1MCAmIzEwO1EgNTE5IC04MDAgNjU2IC04MDAgJiMxMDtRIDg0NCAtODAwIDk1NiAtNzM3ICYjMTA7USAxMDY5IC02NzUgMTE0MSAtNTYzICYjMTA7USAxMTk0IC00NzggMTMxMyAtMTQ0ICYjMTA7USAxMzI4IC05NyAxMzYzIC02ICYjMTA7TCAxMDMgMzMxOSAmIzEwO0wgNzA5IDMzMTkgJiMxMDtMIDE0MDAgMTM5NyAmIzEwO1EgMTUzNCAxMDMxIDE2NDEgNjI4ICYjMTA7USAxNzM4IDEwMTYgMTg3MiAxMzg0ICYjMTA7TCAyNTgxIDMzMTkgJiMxMDtMIDMxNDQgMzMxOSAmIzEwO0wgMTg4MSAtNTYgJiMxMDtRIDE2NzggLTYwMyAxNTY2IC04MDkgJiMxMDtRIDE0MTYgLTEwODggMTIyMiAtMTIxNyAmIzEwO1EgMTAyOCAtMTM0NyA3NTkgLTEzNDcgJiMxMDtRIDU5NyAtMTM0NyAzOTcgLTEyNzggJiMxMDt6IiBpZD0iQXJpYWxNVC03OSIvPiYjeGE7ICAgICAgPC9kZWZzPiYjeGE7ICAgICAgPHVzZSB4bGluazpocmVmPSIjQXJpYWxNVC01NiIvPiYjeGE7ICAgICAgPHVzZSB4PSI1OS4zMjQyMTkiIHhsaW5rOmhyZWY9IiNBcmlhbE1ULTYxIi8+JiN4YTsgICAgICA8dXNlIHg9IjExNC45Mzk0NTMiIHhsaW5rOmhyZWY9IiNBcmlhbE1ULTZjIi8+JiN4YTsgICAgICA8dXNlIHg9IjEzNy4xNTYyNSIgeGxpbms6aHJlZj0iI0FyaWFsTVQtNjkiLz4mI3hhOyAgICAgIDx1c2UgeD0iMTU5LjM3MzA0NyIgeGxpbms6aHJlZj0iI0FyaWFsTVQtNjQiLz4mI3hhOyAgICAgIDx1c2UgeD0iMjE0Ljk4ODI4MSIgeGxpbms6aHJlZj0iI0FyaWFsTVQtNjEiLz4mI3hhOyAgICAgIDx1c2UgeD0iMjcwLjYwMzUxNiIgeGxpbms6aHJlZj0iI0FyaWFsTVQtNzQiLz4mI3hhOyAgICAgIDx1c2UgeD0iMjk4LjM4NjcxOSIgeGxpbms6aHJlZj0iI0FyaWFsTVQtNjkiLz4mI3hhOyAgICAgIDx1c2UgeD0iMzIwLjYwMzUxNiIgeGxpbms6aHJlZj0iI0FyaWFsTVQtNmYiLz4mI3hhOyAgICAgIDx1c2UgeD0iMzc2LjIxODc1IiB4bGluazpocmVmPSIjQXJpYWxNVC02ZSIvPiYjeGE7ICAgICAgPHVzZSB4PSI0MzEuODMzOTg0IiB4bGluazpocmVmPSIjQXJpYWxNVC0yMCIvPiYjeGE7ICAgICAgPHVzZSB4PSI0NTQuMTE3MTg4IiB4bGluazpocmVmPSIjQXJpYWxNVC00MSIvPiYjeGE7ICAgICAgPHVzZSB4PSI1MjAuODE2NDA2IiB4bGluazpocmVmPSIjQXJpYWxNVC02MyIvPiYjeGE7ICAgICAgPHVzZSB4PSI1NzAuODE2NDA2IiB4bGluazpocmVmPSIjQXJpYWxNVC02MyIvPiYjeGE7ICAgICAgPHVzZSB4PSI2MjAuODE2NDA2IiB4bGluazpocmVmPSIjQXJpYWxNVC03NSIvPiYjeGE7ICAgICAgPHVzZSB4PSI2NzYuNDMxNjQxIiB4bGluazpocmVmPSIjQXJpYWxNVC03MiIvPiYjeGE7ICAgICAgPHVzZSB4PSI3MDkuNzMyNDIyIiB4bGluazpocmVmPSIjQXJpYWxNVC02MSIvPiYjeGE7ICAgICAgPHVzZSB4PSI3NjUuMzQ3NjU2IiB4bGluazpocmVmPSIjQXJpYWxNVC02MyIvPiYjeGE7ICAgICAgPHVzZSB4PSI4MTUuMzQ3NjU2IiB4bGluazpocmVmPSIjQXJpYWxNVC03OSIvPiYjeGE7ICAgICA8L2c+JiN4YTsgICAgPC9nPiYjeGE7ICAgIDxnIGlkPSJsaW5lMmRfMTkiPiYjeGE7ICAgICA8cGF0aCBzdHlsZT0iZmlsbDogbm9uZTsgc3Ryb2tlOiAjMDAwMGZmOyBzdHJva2Utd2lkdGg6IDEuNTsgc3Ryb2tlLWxpbmVjYXA6IHJvdW5kIiBkPSJNIDUxMi4xMTU2MjUgOTguODQxMjUgJiMxMDtMIDUyMy4xMTU2MjUgOTguODQxMjUgJiMxMDtMIDUzNC4xMTU2MjUgOTguODQxMjUiLz4mI3hhOyAgICAgPGRlZnM+JiN4YTsgICAgICA8cGF0aCBzdHlsZT0ic3Ryb2tlOiAjMDAwMGZmOyBzdHJva2UtbGluZWpvaW46IG1pdGVyIiBkPSJNIC0xLjUgMyAmIzEwO0wgMCAxLjUgJiMxMDtMIDEuNSAzICYjMTA7TCAzIDEuNSAmIzEwO0wgMS41IDAgJiMxMDtMIDMgLTEuNSAmIzEwO0wgMS41IC0zICYjMTA7TCAwIC0xLjUgJiMxMDtMIC0xLjUgLTMgJiMxMDtMIC0zIC0xLjUgJiMxMDtMIC0xLjUgMCAmIzEwO0wgLTMgMS41ICYjMTA7eiIgaWQ9Im05OGI4NDAwMTJkIi8+JiN4YTsgICAgIDwvZGVmcz4mI3hhOyAgICAgPGc+JiN4YTsgICAgICA8dXNlIHN0eWxlPSJmaWxsOiAjMDAwMGZmOyBzdHJva2U6ICMwMDAwZmY7IHN0cm9rZS1saW5lam9pbjogbWl0ZXIiIHk9Ijk4Ljg0MTI1IiB4PSI1MjMuMTE1NjI1IiB4bGluazpocmVmPSIjbTk4Yjg0MDAxMmQiLz4mI3hhOyAgICAgPC9nPiYjeGE7ICAgIDwvZz4mI3hhOyAgICA8ZyBpZD0idGV4dF8xOSI+JiN4YTsgICAgICYjeGE7ICAgICA8ZyB0cmFuc2Zvcm09InRyYW5zbGF0ZSg1NDIuOTE1NjI1IDEwMi42OTEyNSkgc2NhbGUoMC4xMSAtMC4xMSkiIHN0eWxlPSJmaWxsOiAjMjYyNjI2Ij4mI3hhOyAgICAgIDxkZWZzPiYjeGE7ICAgICAgIDxwYXRoIHRyYW5zZm9ybT0ic2NhbGUoMC4wMTU2MjUpIiBkPSJNIDQ2OSAwICYjMTA7TCA0NjkgNDU4MSAmIzEwO0wgMTA3NSA0NTgxICYjMTA7TCAxMDc1IDU0MSAmIzEwO0wgMzMzMSA1NDEgJiMxMDtMIDMzMzEgMCAmIzEwO0wgNDY5IDAgJiMxMDt6IiBpZD0iQXJpYWxNVC00YyIvPiYjeGE7ICAgICAgIDxwYXRoIHRyYW5zZm9ybT0ic2NhbGUoMC4wMTU2MjUpIiBkPSJNIDE5NyA5OTEgJiMxMDtMIDc1MyAxMDc4ICYjMTA7USA4MDAgNzQ0IDEwMTQgNTY2ICYjMTA7USAxMjI4IDM4OCAxNjEzIDM4OCAmIzEwO1EgMjAwMCAzODggMjE4NyA1NDUgJiMxMDtRIDIzNzUgNzAzIDIzNzUgOTE2ICYjMTA7USAyMzc1IDExMDYgMjIwOSAxMjE2ICYjMTA7USAyMDk0IDEyOTEgMTYzNCAxNDA2ICYjMTA7USAxMDE2IDE1NjMgNzc3IDE2NzcgJiMxMDtRIDUzOCAxNzkxIDQxNCAxOTkyICYjMTA7USAyOTEgMjE5NCAyOTEgMjQzOCAmIzEwO1EgMjkxIDI2NTkgMzkyIDI4NDggJiMxMDtRIDQ5NCAzMDM4IDY2OSAzMTYzICYjMTA7USA4MDAgMzI1OSAxMDI2IDMzMjYgJiMxMDtRIDEyNTMgMzM5NCAxNTEzIDMzOTQgJiMxMDtRIDE5MDMgMzM5NCAyMTk4IDMyODEgJiMxMDtRIDI0OTQgMzE2OSAyNjM0IDI5NzYgJiMxMDtRIDI3NzUgMjc4NCAyODI4IDI0NjMgJiMxMDtMIDIyNzggMjM4OCAmIzEwO1EgMjI0MSAyNjQ0IDIwNjEgMjc4NyAmIzEwO1EgMTg4MSAyOTMxIDE1NTMgMjkzMSAmIzEwO1EgMTE2NiAyOTMxIDEwMDAgMjgwMyAmIzEwO1EgODM0IDI2NzUgODM0IDI1MDMgJiMxMDtRIDgzNCAyMzk0IDkwMyAyMzA2ICYjMTA7USA5NzIgMjIxNiAxMTE5IDIxNTYgJiMxMDtRIDEyMDMgMjEyNSAxNjE2IDIwMTMgJiMxMDtRIDIyMTMgMTg1MyAyNDQ4IDE3NTEgJiMxMDtRIDI2ODQgMTY1MCAyODE4IDE0NTYgJiMxMDtRIDI5NTMgMTI2MyAyOTUzIDk3NSAmIzEwO1EgMjk1MyA2OTQgMjc4OSA0NDUgJiMxMDtRIDI2MjUgMTk3IDIzMTUgNjEgJiMxMDtRIDIwMDYgLTc1IDE2MTYgLTc1ICYjMTA7USA5NjkgLTc1IDYzMCAxOTQgJiMxMDtRIDI5MSA0NjMgMTk3IDk5MSAmIzEwO3oiIGlkPSJBcmlhbE1ULTczIi8+JiN4YTsgICAgICA8L2RlZnM+JiN4YTsgICAgICA8dXNlIHhsaW5rOmhyZWY9IiNBcmlhbE1ULTU2Ii8+JiN4YTsgICAgICA8dXNlIHg9IjU5LjMyNDIxOSIgeGxpbms6aHJlZj0iI0FyaWFsTVQtNjEiLz4mI3hhOyAgICAgIDx1c2UgeD0iMTE0LjkzOTQ1MyIgeGxpbms6aHJlZj0iI0FyaWFsTVQtNmMiLz4mI3hhOyAgICAgIDx1c2UgeD0iMTM3LjE1NjI1IiB4bGluazpocmVmPSIjQXJpYWxNVC02OSIvPiYjeGE7ICAgICAgPHVzZSB4PSIxNTkuMzczMDQ3IiB4bGluazpocmVmPSIjQXJpYWxNVC02NCIvPiYjeGE7ICAgICAgPHVzZSB4PSIyMTQuOTg4MjgxIiB4bGluazpocmVmPSIjQXJpYWxNVC02MSIvPiYjeGE7ICAgICAgPHVzZSB4PSIyNzAuNjAzNTE2IiB4bGluazpocmVmPSIjQXJpYWxNVC03NCIvPiYjeGE7ICAgICAgPHVzZSB4PSIyOTguMzg2NzE5IiB4bGluazpocmVmPSIjQXJpYWxNVC02OSIvPiYjeGE7ICAgICAgPHVzZSB4PSIzMjAuNjAzNTE2IiB4bGluazpocmVmPSIjQXJpYWxNVC02ZiIvPiYjeGE7ICAgICAgPHVzZSB4PSIzNzYuMjE4NzUiIHhsaW5rOmhyZWY9IiNBcmlhbE1ULTZlIi8+JiN4YTsgICAgICA8dXNlIHg9IjQzMS44MzM5ODQiIHhsaW5rOmhyZWY9IiNBcmlhbE1ULTIwIi8+JiN4YTsgICAgICA8dXNlIHg9IjQ1OS42MTcxODgiIHhsaW5rOmhyZWY9IiNBcmlhbE1ULTRjIi8+JiN4YTsgICAgICA8dXNlIHg9IjUxNS4yMzI0MjIiIHhsaW5rOmhyZWY9IiNBcmlhbE1ULTZmIi8+JiN4YTsgICAgICA8dXNlIHg9IjU3MC44NDc2NTYiIHhsaW5rOmhyZWY9IiNBcmlhbE1ULTczIi8+JiN4YTsgICAgICA8dXNlIHg9IjYyMC44NDc2NTYiIHhsaW5rOmhyZWY9IiNBcmlhbE1ULTczIi8+JiN4YTsgICAgIDwvZz4mI3hhOyAgICA8L2c+JiN4YTsgICA8L2c+JiN4YTsgIDwvZz4mI3hhOyA8L2c+JiN4YTsgPGRlZnM+JiN4YTsgIDxjbGlwUGF0aCBpZD0icGY0YjVjODdlODkiPiYjeGE7ICAgPHJlY3QgaGVpZ2h0PSIzMzIuNjQiIHdpZHRoPSI1NTgiIHk9IjUxLjg0IiB4PSI5MCIvPiYjeGE7ICA8L2NsaXBQYXRoPiYjeGE7IDwvZGVmcz4mI3hhOzwvc3ZnPg==;" vertex="1" parent="XdAkhKP-J2ckDoqyLxTf-3">
          <mxGeometry width="720" height="432" as="geometry" />
        </mxCell>
        <mxCell id="XdAkhKP-J2ckDoqyLxTf-2" value="" style="shape=image;verticalLabelPosition=bottom;labelBackgroundColor=default;verticalAlign=top;aspect=fixed;imageAspect=0;image=data:image/svg+xml,PHN2ZyB4bWxucz0iaHR0cDovL3d3dy53My5vcmcvMjAwMC9zdmciIHhtbG5zOnhsaW5rPSJodHRwOi8vd3d3LnczLm9yZy8xOTk5L3hsaW5rIiB2ZXJzaW9uPSIxLjEiIHZpZXdCb3g9IjAgMCA3MjAgNDMyIiBoZWlnaHQ9IjQzMnB0IiB3aWR0aD0iNzIwcHQiPiYjeGE7IDxtZXRhZGF0YT4mI3hhOyAgJiN4YTsgICAmI3hhOyAgICAmI3hhOyAgICAyMDI0LTA0LTIxVDE2OjE4OjEzLjY1MjMxMSYjeGE7ICAgIGltYWdlL3N2Zyt4bWwmI3hhOyAgICAmI3hhOyAgICAgJiN4YTsgICAgICBNYXRwbG90bGliIHYzLjguMCwgaHR0cHM6Ly9tYXRwbG90bGliLm9yZy8mI3hhOyAgICAgJiN4YTsgICAgJiN4YTsgICAmI3hhOyAgJiN4YTsgPC9tZXRhZGF0YT4mI3hhOyA8ZGVmcz4mI3hhOyAgPHN0eWxlIHR5cGU9InRleHQvY3NzIj4qe3N0cm9rZS1saW5lam9pbjogcm91bmQ7IHN0cm9rZS1saW5lY2FwOiBidXR0fTwvc3R5bGU+JiN4YTsgPC9kZWZzPiYjeGE7IDxnIGlkPSJmaWd1cmVfMSI+JiN4YTsgIDxnIGlkPSJwYXRjaF8xIj4mI3hhOyAgIDxwYXRoIHN0eWxlPSJmaWxsOiAjZmZmZmZmIiBkPSJNIDAgNDMyICYjMTA7TCA3MjAgNDMyICYjMTA7TCA3MjAgMCAmIzEwO0wgMCAwICYjMTA7eiIvPiYjeGE7ICA8L2c+JiN4YTsgIDxnIGlkPSJheGVzXzEiPiYjeGE7ICAgPGcgaWQ9InBhdGNoXzIiPiYjeGE7ICAgIDxwYXRoIHN0eWxlPSJmaWxsOiAjZmZmZmZmIiBkPSJNIDkwIDM4NC40OCAmIzEwO0wgNjQ4IDM4NC40OCAmIzEwO0wgNjQ4IDUxLjg0ICYjMTA7TCA5MCA1MS44NCAmIzEwO3oiLz4mI3hhOyAgIDwvZz4mI3hhOyAgIDxnIGlkPSJtYXRwbG90bGliLmF4aXNfMSI+JiN4YTsgICAgPGcgaWQ9Inh0aWNrXzEiPiYjeGE7ICAgICA8ZyBpZD0ibGluZTJkXzEiPiYjeGE7ICAgICAgPHBhdGggc3R5bGU9ImZpbGw6IG5vbmU7IHN0cm9rZTogI2NjY2NjYzsgc3Ryb2tlLWxpbmVjYXA6IHJvdW5kIiBjbGlwLXBhdGg9InVybCgjcGI4NDc3YjFmNTgpIiBkPSJNIDEwNS4wMTExMzIgMzg0LjQ4ICYjMTA7TCAxMDUuMDExMTMyIDUxLjg0Ii8+JiN4YTsgICAgIDwvZz4mI3hhOyAgICAgPGcgaWQ9InRleHRfMSI+JiN4YTsgICAgICAmI3hhOyAgICAgIDxnIHRyYW5zZm9ybT0idHJhbnNsYXRlKDEwMC40MjMzNTggNDA1Ljc5MDM5MSkgc2NhbGUoMC4xNjUgLTAuMTY1KSIgc3R5bGU9ImZpbGw6ICMyNjI2MjYiPiYjeGE7ICAgICAgIDxkZWZzPiYjeGE7ICAgICAgICA8cGF0aCB0cmFuc2Zvcm09InNjYWxlKDAuMDE1NjI1KSIgZD0iTSAyNjYgMjI1OSAmIzEwO1EgMjY2IDMwNzIgNDMzIDM1NjcgJiMxMDtRIDYwMCA0MDYzIDkyOSA0MzMxICYjMTA7USAxMjU5IDQ2MDAgMTc1OSA0NjAwICYjMTA7USAyMTI4IDQ2MDAgMjQwNiA0NDUxICYjMTA7USAyNjg0IDQzMDMgMjg2NSA0MDIzICYjMTA7USAzMDQ3IDM3NDQgMzE1MCAzMzQyICYjMTA7USAzMjUzIDI5NDEgMzI1MyAyMjU5ICYjMTA7USAzMjUzIDE0NTMgMzA4NyA5NTggJiMxMDtRIDI5MjIgNDYzIDI1OTIgMTkyICYjMTA7USAyMjYzIC03OCAxNzU5IC03OCAmIzEwO1EgMTA5NyAtNzggNzE5IDM5NyAmIzEwO1EgMjY2IDk2OSAyNjYgMjI1OSAmIzEwO3omIzEwO00gODQ0IDIyNTkgJiMxMDtRIDg0NCAxMTMxIDExMDggNzU3ICYjMTA7USAxMzcyIDM4NCAxNzU5IDM4NCAmIzEwO1EgMjE0NyAzODQgMjQxMSA3NTkgJiMxMDtRIDI2NzUgMTEzNCAyNjc1IDIyNTkgJiMxMDtRIDI2NzUgMzM5MSAyNDExIDM3NjIgJiMxMDtRIDIxNDcgNDEzNCAxNzUzIDQxMzQgJiMxMDtRIDEzNjYgNDEzNCAxMTM0IDM4MDYgJiMxMDtRIDg0NCAzMzg4IDg0NCAyMjU5ICYjMTA7eiIgaWQ9IkFyaWFsTVQtMzAiLz4mI3hhOyAgICAgICA8L2RlZnM+JiN4YTsgICAgICAgPHVzZSB4bGluazpocmVmPSIjQXJpYWxNVC0zMCIvPiYjeGE7ICAgICAgPC9nPiYjeGE7ICAgICA8L2c+JiN4YTsgICAgPC9nPiYjeGE7ICAgIDxnIGlkPSJ4dGlja18yIj4mI3hhOyAgICAgPGcgaWQ9ImxpbmUyZF8yIj4mI3hhOyAgICAgIDxwYXRoIHN0eWxlPSJmaWxsOiBub25lOyBzdHJva2U6ICNjY2NjY2M7IHN0cm9rZS1saW5lY2FwOiByb3VuZCIgY2xpcC1wYXRoPSJ1cmwoI3BiODQ3N2IxZjU4KSIgZD0iTSAyMDguNTM2MTc4IDM4NC40OCAmIzEwO0wgMjA4LjUzNjE3OCA1MS44NCIvPiYjeGE7ICAgICA8L2c+JiN4YTsgICAgIDxnIGlkPSJ0ZXh0XzIiPiYjeGE7ICAgICAgJiN4YTsgICAgICA8ZyB0cmFuc2Zvcm09InRyYW5zbGF0ZSgxOTkuMzYwNjMxIDQwNS43OTAzOTEpIHNjYWxlKDAuMTY1IC0wLjE2NSkiIHN0eWxlPSJmaWxsOiAjMjYyNjI2Ij4mI3hhOyAgICAgICA8ZGVmcz4mI3hhOyAgICAgICAgPHBhdGggdHJhbnNmb3JtPSJzY2FsZSgwLjAxNTYyNSkiIGQ9Ik0gMjM4NCAwICYjMTA7TCAxODIyIDAgJiMxMDtMIDE4MjIgMzU4NCAmIzEwO1EgMTYxOSAzMzkxIDEyODkgMzE5NyAmIzEwO1EgOTU5IDMwMDMgNjk3IDI5MDYgJiMxMDtMIDY5NyAzNDUwICYjMTA7USAxMTY5IDM2NzIgMTUyMiAzOTg3ICYjMTA7USAxODc1IDQzMDMgMjAyMiA0NjAwICYjMTA7TCAyMzg0IDQ2MDAgJiMxMDtMIDIzODQgMCAmIzEwO3oiIGlkPSJBcmlhbE1ULTMxIi8+JiN4YTsgICAgICAgPC9kZWZzPiYjeGE7ICAgICAgIDx1c2UgeGxpbms6aHJlZj0iI0FyaWFsTVQtMzEiLz4mI3hhOyAgICAgICA8dXNlIHg9IjU1LjYxNTIzNCIgeGxpbms6aHJlZj0iI0FyaWFsTVQtMzAiLz4mI3hhOyAgICAgIDwvZz4mI3hhOyAgICAgPC9nPiYjeGE7ICAgIDwvZz4mI3hhOyAgICA8ZyBpZD0ieHRpY2tfMyI+JiN4YTsgICAgIDxnIGlkPSJsaW5lMmRfMyI+JiN4YTsgICAgICA8cGF0aCBzdHlsZT0iZmlsbDogbm9uZTsgc3Ryb2tlOiAjY2NjY2NjOyBzdHJva2UtbGluZWNhcDogcm91bmQiIGNsaXAtcGF0aD0idXJsKCNwYjg0NzdiMWY1OCkiIGQ9Ik0gMzEyLjA2MTIyNCAzODQuNDggJiMxMDtMIDMxMi4wNjEyMjQgNTEuODQiLz4mI3hhOyAgICAgPC9nPiYjeGE7ICAgICA8ZyBpZD0idGV4dF8zIj4mI3hhOyAgICAgICYjeGE7ICAgICAgPGcgdHJhbnNmb3JtPSJ0cmFuc2xhdGUoMzAyLjg4NTY3OCA0MDUuNzkwMzkxKSBzY2FsZSgwLjE2NSAtMC4xNjUpIiBzdHlsZT0iZmlsbDogIzI2MjYyNiI+JiN4YTsgICAgICAgPGRlZnM+JiN4YTsgICAgICAgIDxwYXRoIHRyYW5zZm9ybT0ic2NhbGUoMC4wMTU2MjUpIiBkPSJNIDMyMjIgNTQxICYjMTA7TCAzMjIyIDAgJiMxMDtMIDE5NCAwICYjMTA7USAxODggMjAzIDI1OSAzOTEgJiMxMDtRIDM3NSA3MDAgNjI5IDEwMDAgJiMxMDtRIDg4NCAxMzAwIDEzNjYgMTY5NCAmIzEwO1EgMjExMyAyMzA2IDIzNzUgMjY2NCAmIzEwO1EgMjYzOCAzMDIyIDI2MzggMzM0MSAmIzEwO1EgMjYzOCAzNjc1IDIzOTggMzkwNCAmIzEwO1EgMjE1OSA0MTM0IDE3NzUgNDEzNCAmIzEwO1EgMTM2OSA0MTM0IDExMjUgMzg5MCAmIzEwO1EgODgxIDM2NDcgODc4IDMyMTYgJiMxMDtMIDMwMCAzMjc1ICYjMTA7USAzNTkgMzkyMiA3NDYgNDI2MSAmIzEwO1EgMTEzNCA0NjAwIDE3ODggNDYwMCAmIzEwO1EgMjQ0NyA0NjAwIDI4MzEgNDIzNCAmIzEwO1EgMzIxNiAzODY5IDMyMTYgMzMyOCAmIzEwO1EgMzIxNiAzMDUzIDMxMDMgMjc4NyAmIzEwO1EgMjk5MSAyNTIyIDI3MzAgMjIyOCAmIzEwO1EgMjQ2OSAxOTM0IDE4NjMgMTQyMiAmIzEwO1EgMTM1NiA5OTcgMTIxMiA4NDUgJiMxMDtRIDEwNjkgNjk0IDk3NSA1NDEgJiMxMDtMIDMyMjIgNTQxICYjMTA7eiIgaWQ9IkFyaWFsTVQtMzIiLz4mI3hhOyAgICAgICA8L2RlZnM+JiN4YTsgICAgICAgPHVzZSB4bGluazpocmVmPSIjQXJpYWxNVC0zMiIvPiYjeGE7ICAgICAgIDx1c2UgeD0iNTUuNjE1MjM0IiB4bGluazpocmVmPSIjQXJpYWxNVC0zMCIvPiYjeGE7ICAgICAgPC9nPiYjeGE7ICAgICA8L2c+JiN4YTsgICAgPC9nPiYjeGE7ICAgIDxnIGlkPSJ4dGlja180Ij4mI3hhOyAgICAgPGcgaWQ9ImxpbmUyZF80Ij4mI3hhOyAgICAgIDxwYXRoIHN0eWxlPSJmaWxsOiBub25lOyBzdHJva2U6ICNjY2NjY2M7IHN0cm9rZS1saW5lY2FwOiByb3VuZCIgY2xpcC1wYXRoPSJ1cmwoI3BiODQ3N2IxZjU4KSIgZD0iTSA0MTUuNTg2MjcxIDM4NC40OCAmIzEwO0wgNDE1LjU4NjI3MSA1MS44NCIvPiYjeGE7ICAgICA8L2c+JiN4YTsgICAgIDxnIGlkPSJ0ZXh0XzQiPiYjeGE7ICAgICAgJiN4YTsgICAgICA8ZyB0cmFuc2Zvcm09InRyYW5zbGF0ZSg0MDYuNDEwNzI0IDQwNS43OTAzOTEpIHNjYWxlKDAuMTY1IC0wLjE2NSkiIHN0eWxlPSJmaWxsOiAjMjYyNjI2Ij4mI3hhOyAgICAgICA8ZGVmcz4mI3hhOyAgICAgICAgPHBhdGggdHJhbnNmb3JtPSJzY2FsZSgwLjAxNTYyNSkiIGQ9Ik0gMjY5IDEyMDkgJiMxMDtMIDgzMSAxMjg0ICYjMTA7USA5MjggODA2IDExNjEgNTk1ICYjMTA7USAxMzk0IDM4NCAxNzI4IDM4NCAmIzEwO1EgMjEyNSAzODQgMjM5OCA2NTkgJiMxMDtRIDI2NzIgOTM0IDI2NzIgMTM0MSAmIzEwO1EgMjY3MiAxNzI4IDI0MTkgMTk3OSAmIzEwO1EgMjE2NiAyMjMxIDE3NzUgMjIzMSAmIzEwO1EgMTYxNiAyMjMxIDEzNzggMjE2OSAmIzEwO0wgMTQ0MSAyNjYzICYjMTA7USAxNDk3IDI2NTYgMTUzMSAyNjU2ICYjMTA7USAxODkxIDI2NTYgMjE3OCAyODQzICYjMTA7USAyNDY2IDMwMzEgMjQ2NiAzNDIyICYjMTA7USAyNDY2IDM3MzEgMjI1NiAzOTM0ICYjMTA7USAyMDQ3IDQxMzggMTcxNiA0MTM4ICYjMTA7USAxMzg4IDQxMzggMTE2OSAzOTMxICYjMTA7USA5NTAgMzcyNSA4ODggMzMxMyAmIzEwO0wgMzI1IDM0MTMgJiMxMDtRIDQyOCAzOTc4IDc5MyA0Mjg5ICYjMTA7USAxMTU5IDQ2MDAgMTcwMyA0NjAwICYjMTA7USAyMDc4IDQ2MDAgMjM5MyA0NDM5ICYjMTA7USAyNzA5IDQyNzggMjg3NiA0MDAwICYjMTA7USAzMDQ0IDM3MjIgMzA0NCAzNDA5ICYjMTA7USAzMDQ0IDMxMTMgMjg4NCAyODY5ICYjMTA7USAyNzI1IDI2MjUgMjQxMyAyNDgxICYjMTA7USAyODE5IDIzODggMzA0NCAyMDkyICYjMTA7USAzMjY5IDE3OTcgMzI2OSAxMzUzICYjMTA7USAzMjY5IDc1MyAyODMxIDMzNiAmIzEwO1EgMjM5NCAtODEgMTcyNSAtODEgJiMxMDtRIDExMjIgLTgxIDcyMyAyNzggJiMxMDtRIDMyNSA2MzggMjY5IDEyMDkgJiMxMDt6IiBpZD0iQXJpYWxNVC0zMyIvPiYjeGE7ICAgICAgIDwvZGVmcz4mI3hhOyAgICAgICA8dXNlIHhsaW5rOmhyZWY9IiNBcmlhbE1ULTMzIi8+JiN4YTsgICAgICAgPHVzZSB4PSI1NS42MTUyMzQiIHhsaW5rOmhyZWY9IiNBcmlhbE1ULTMwIi8+JiN4YTsgICAgICA8L2c+JiN4YTsgICAgIDwvZz4mI3hhOyAgICA8L2c+JiN4YTsgICAgPGcgaWQ9Inh0aWNrXzUiPiYjeGE7ICAgICA8ZyBpZD0ibGluZTJkXzUiPiYjeGE7ICAgICAgPHBhdGggc3R5bGU9ImZpbGw6IG5vbmU7IHN0cm9rZTogI2NjY2NjYzsgc3Ryb2tlLWxpbmVjYXA6IHJvdW5kIiBjbGlwLXBhdGg9InVybCgjcGI4NDc3YjFmNTgpIiBkPSJNIDUxOS4xMTEzMTcgMzg0LjQ4ICYjMTA7TCA1MTkuMTExMzE3IDUxLjg0Ii8+JiN4YTsgICAgIDwvZz4mI3hhOyAgICAgPGcgaWQ9InRleHRfNSI+JiN4YTsgICAgICAmI3hhOyAgICAgIDxnIHRyYW5zZm9ybT0idHJhbnNsYXRlKDUwOS45MzU3NyA0MDUuNzkwMzkxKSBzY2FsZSgwLjE2NSAtMC4xNjUpIiBzdHlsZT0iZmlsbDogIzI2MjYyNiI+JiN4YTsgICAgICAgPGRlZnM+JiN4YTsgICAgICAgIDxwYXRoIHRyYW5zZm9ybT0ic2NhbGUoMC4wMTU2MjUpIiBkPSJNIDIwNjkgMCAmIzEwO0wgMjA2OSAxMDk3ICYjMTA7TCA4MSAxMDk3ICYjMTA7TCA4MSAxNjEzICYjMTA7TCAyMTcyIDQ1ODEgJiMxMDtMIDI2MzEgNDU4MSAmIzEwO0wgMjYzMSAxNjEzICYjMTA7TCAzMjUwIDE2MTMgJiMxMDtMIDMyNTAgMTA5NyAmIzEwO0wgMjYzMSAxMDk3ICYjMTA7TCAyNjMxIDAgJiMxMDtMIDIwNjkgMCAmIzEwO3omIzEwO00gMjA2OSAxNjEzICYjMTA7TCAyMDY5IDM2NzggJiMxMDtMIDYzNCAxNjEzICYjMTA7TCAyMDY5IDE2MTMgJiMxMDt6IiBpZD0iQXJpYWxNVC0zNCIvPiYjeGE7ICAgICAgIDwvZGVmcz4mI3hhOyAgICAgICA8dXNlIHhsaW5rOmhyZWY9IiNBcmlhbE1ULTM0Ii8+JiN4YTsgICAgICAgPHVzZSB4PSI1NS42MTUyMzQiIHhsaW5rOmhyZWY9IiNBcmlhbE1ULTMwIi8+JiN4YTsgICAgICA8L2c+JiN4YTsgICAgIDwvZz4mI3hhOyAgICA8L2c+JiN4YTsgICAgPGcgaWQ9Inh0aWNrXzYiPiYjeGE7ICAgICA8ZyBpZD0ibGluZTJkXzYiPiYjeGE7ICAgICAgPHBhdGggc3R5bGU9ImZpbGw6IG5vbmU7IHN0cm9rZTogI2NjY2NjYzsgc3Ryb2tlLWxpbmVjYXA6IHJvdW5kIiBjbGlwLXBhdGg9InVybCgjcGI4NDc3YjFmNTgpIiBkPSJNIDYyMi42MzYzNjQgMzg0LjQ4ICYjMTA7TCA2MjIuNjM2MzY0IDUxLjg0Ii8+JiN4YTsgICAgIDwvZz4mI3hhOyAgICAgPGcgaWQ9InRleHRfNiI+JiN4YTsgICAgICAmI3hhOyAgICAgIDxnIHRyYW5zZm9ybT0idHJhbnNsYXRlKDYxMy40NjA4MTcgNDA1Ljc5MDM5MSkgc2NhbGUoMC4xNjUgLTAuMTY1KSIgc3R5bGU9ImZpbGw6ICMyNjI2MjYiPiYjeGE7ICAgICAgIDxkZWZzPiYjeGE7ICAgICAgICA8cGF0aCB0cmFuc2Zvcm09InNjYWxlKDAuMDE1NjI1KSIgZD0iTSAyNjYgMTIwMCAmIzEwO0wgODU2IDEyNTAgJiMxMDtRIDkyMiA4MTkgMTE2MSA2MDEgJiMxMDtRIDE0MDAgMzg0IDE3MzggMzg0ICYjMTA7USAyMTQ0IDM4NCAyNDI1IDY5MCAmIzEwO1EgMjcwNiA5OTcgMjcwNiAxNTAzICYjMTA7USAyNzA2IDE5ODQgMjQzNiAyMjYyICYjMTA7USAyMTY2IDI1NDEgMTcyOCAyNTQxICYjMTA7USAxNDU2IDI1NDEgMTIzNyAyNDE3ICYjMTA7USAxMDE5IDIyOTQgODk0IDIwOTcgJiMxMDtMIDM2NiAyMTY2ICYjMTA7TCA4MDkgNDUxOSAmIzEwO0wgMzA4OCA0NTE5ICYjMTA7TCAzMDg4IDM5ODEgJiMxMDtMIDEyNTkgMzk4MSAmIzEwO0wgMTAxMyAyNzUwICYjMTA7USAxNDI1IDMwMzggMTg3OCAzMDM4ICYjMTA7USAyNDc4IDMwMzggMjg5MCAyNjIyICYjMTA7USAzMzAzIDIyMDYgMzMwMyAxNTUzICYjMTA7USAzMzAzIDkzMSAyOTQxIDQ3OCAmIzEwO1EgMjUwMCAtNzggMTczOCAtNzggJiMxMDtRIDExMTMgLTc4IDcxNyAyNzIgJiMxMDtRIDMyMiA2MjIgMjY2IDEyMDAgJiMxMDt6IiBpZD0iQXJpYWxNVC0zNSIvPiYjeGE7ICAgICAgIDwvZGVmcz4mI3hhOyAgICAgICA8dXNlIHhsaW5rOmhyZWY9IiNBcmlhbE1ULTM1Ii8+JiN4YTsgICAgICAgPHVzZSB4PSI1NS42MTUyMzQiIHhsaW5rOmhyZWY9IiNBcmlhbE1ULTMwIi8+JiN4YTsgICAgICA8L2c+JiN4YTsgICAgIDwvZz4mI3hhOyAgICA8L2c+JiN4YTsgICAgPGcgaWQ9InRleHRfNyI+JiN4YTsgICAgICYjeGE7ICAgICA8ZyB0cmFuc2Zvcm09InRyYW5zbGF0ZSgzNDMuNDgyMTg4IDQyNS45NTM4MjgpIHNjYWxlKDAuMTggLTAuMTgpIiBzdHlsZT0iZmlsbDogIzI2MjYyNiI+JiN4YTsgICAgICA8ZGVmcz4mI3hhOyAgICAgICA8cGF0aCB0cmFuc2Zvcm09InNjYWxlKDAuMDE1NjI1KSIgZD0iTSA1MDYgMCAmIzEwO0wgNTA2IDQ1ODEgJiMxMDtMIDM4MTkgNDU4MSAmIzEwO0wgMzgxOSA0MDQxICYjMTA7TCAxMTEzIDQwNDEgJiMxMDtMIDExMTMgMjYzOCAmIzEwO0wgMzY0NyAyNjM4ICYjMTA7TCAzNjQ3IDIxMDAgJiMxMDtMIDExMTMgMjEwMCAmIzEwO0wgMTExMyA1NDEgJiMxMDtMIDM5MjUgNTQxICYjMTA7TCAzOTI1IDAgJiMxMDtMIDUwNiAwICYjMTA7eiIgaWQ9IkFyaWFsTVQtNDUiLz4mI3hhOyAgICAgICA8cGF0aCB0cmFuc2Zvcm09InNjYWxlKDAuMDE1NjI1KSIgZD0iTSA0MjIgLTEyNzIgJiMxMDtMIDQyMiAzMzE5ICYjMTA7TCA5MzQgMzMxOSAmIzEwO0wgOTM0IDI4ODggJiMxMDtRIDExMTYgMzE0MSAxMzQ0IDMyNjcgJiMxMDtRIDE1NzIgMzM5NCAxODk3IDMzOTQgJiMxMDtRIDIzMjIgMzM5NCAyNjQ3IDMxNzUgJiMxMDtRIDI5NzIgMjk1NiAzMTM3IDI1NTcgJiMxMDtRIDMzMDMgMjE1OSAzMzAzIDE2ODQgJiMxMDtRIDMzMDMgMTE3NSAzMTIwIDc2NyAmIzEwO1EgMjkzOCAzNTkgMjU4OSAxNDIgJiMxMDtRIDIyNDEgLTc1IDE4NTYgLTc1ICYjMTA7USAxNTc1IC03NSAxMzUxIDQ0ICYjMTA7USAxMTI4IDE2MyA5ODQgMzQ0ICYjMTA7TCA5ODQgLTEyNzIgJiMxMDtMIDQyMiAtMTI3MiAmIzEwO3omIzEwO00gOTMxIDE2NDEgJiMxMDtRIDkzMSAxMDAwIDExOTAgNjk0ICYjMTA7USAxNDUwIDM4OCAxODE5IDM4OCAmIzEwO1EgMjE5NCAzODggMjQ2MSA3MDUgJiMxMDtRIDI3MjggMTAyMiAyNzI4IDE2ODggJiMxMDtRIDI3MjggMjMyMiAyNDY3IDI2MzcgJiMxMDtRIDIyMDYgMjk1MyAxODQ0IDI5NTMgJiMxMDtRIDE0ODQgMjk1MyAxMjA3IDI2MTcgJiMxMDtRIDkzMSAyMjgxIDkzMSAxNjQxICYjMTA7eiIgaWQ9IkFyaWFsTVQtNzAiLz4mI3hhOyAgICAgICA8cGF0aCB0cmFuc2Zvcm09InNjYWxlKDAuMDE1NjI1KSIgZD0iTSAyMTMgMTY1OSAmIzEwO1EgMjEzIDI1ODEgNzI1IDMwMjUgJiMxMDtRIDExNTMgMzM5NCAxNzY5IDMzOTQgJiMxMDtRIDI0NTMgMzM5NCAyODg3IDI5NDUgJiMxMDtRIDMzMjIgMjQ5NyAzMzIyIDE3MDYgJiMxMDtRIDMzMjIgMTA2NiAzMTMwIDY5OCAmIzEwO1EgMjkzOCAzMzEgMjU3MCAxMjggJiMxMDtRIDIyMDMgLTc1IDE3NjkgLTc1ICYjMTA7USAxMDcyIC03NSA2NDIgMzcyICYjMTA7USAyMTMgODE5IDIxMyAxNjU5ICYjMTA7eiYjMTA7TSA3OTEgMTY1OSAmIzEwO1EgNzkxIDEwMjIgMTA2OSA3MDUgJiMxMDtRIDEzNDcgMzg4IDE3NjkgMzg4ICYjMTA7USAyMTg4IDM4OCAyNDY2IDcwNiAmIzEwO1EgMjc0NCAxMDI1IDI3NDQgMTY3OCAmIzEwO1EgMjc0NCAyMjk0IDI0NjQgMjYxMSAmIzEwO1EgMjE4NCAyOTI4IDE3NjkgMjkyOCAmIzEwO1EgMTM0NyAyOTI4IDEwNjkgMjYxMiAmIzEwO1EgNzkxIDIyOTcgNzkxIDE2NTkgJiMxMDt6IiBpZD0iQXJpYWxNVC02ZiIvPiYjeGE7ICAgICAgIDxwYXRoIHRyYW5zZm9ybT0ic2NhbGUoMC4wMTU2MjUpIiBkPSJNIDI1ODggMTIxNiAmIzEwO0wgMzE0MSAxMTQ0ICYjMTA7USAzMDUwIDU3MiAyNjc2IDI0OCAmIzEwO1EgMjMwMyAtNzUgMTc1OSAtNzUgJiMxMDtRIDEwNzggLTc1IDY2NCAzNzAgJiMxMDtRIDI1MCA4MTYgMjUwIDE2NDcgJiMxMDtRIDI1MCAyMTg0IDQyOCAyNTg3ICYjMTA7USA2MDYgMjk5MSA5NzAgMzE5MiAmIzEwO1EgMTMzNCAzMzk0IDE3NjMgMzM5NCAmIzEwO1EgMjMwMyAzMzk0IDI2NDcgMzEyMCAmIzEwO1EgMjk5MSAyODQ3IDMwODggMjM0NCAmIzEwO0wgMjU0MSAyMjU5ICYjMTA7USAyNDYzIDI1OTQgMjI2NCAyNzYyICYjMTA7USAyMDY2IDI5MzEgMTc4NCAyOTMxICYjMTA7USAxMzU5IDI5MzEgMTA5MyAyNjI2ICYjMTA7USA4MjggMjMyMiA4MjggMTY2MyAmIzEwO1EgODI4IDk5NCAxMDg0IDY5MSAmIzEwO1EgMTM0MSAzODggMTc1MyAzODggJiMxMDtRIDIwODQgMzg4IDIzMDYgNTkxICYjMTA7USAyNTI4IDc5NCAyNTg4IDEyMTYgJiMxMDt6IiBpZD0iQXJpYWxNVC02MyIvPiYjeGE7ICAgICAgIDxwYXRoIHRyYW5zZm9ybT0ic2NhbGUoMC4wMTU2MjUpIiBkPSJNIDQyMiAwICYjMTA7TCA0MjIgNDU4MSAmIzEwO0wgOTg0IDQ1ODEgJiMxMDtMIDk4NCAyOTM4ICYjMTA7USAxMzc4IDMzOTQgMTk3OCAzMzk0ICYjMTA7USAyMzQ3IDMzOTQgMjYxOSAzMjQ4ICYjMTA7USAyODkxIDMxMDMgMzAwOCAyODQ3ICYjMTA7USAzMTI1IDI1OTEgMzEyNSAyMTAzICYjMTA7TCAzMTI1IDAgJiMxMDtMIDI1NjMgMCAmIzEwO0wgMjU2MyAyMTAzICYjMTA7USAyNTYzIDI1MjUgMjM4MCAyNzE3ICYjMTA7USAyMTk3IDI5MDkgMTg2MyAyOTA5ICYjMTA7USAxNjEzIDI5MDkgMTM5MiAyNzc5ICYjMTA7USAxMTcyIDI2NTAgMTA3OCAyNDI4ICYjMTA7USA5ODQgMjIwNiA5ODQgMTgxNiAmIzEwO0wgOTg0IDAgJiMxMDtMIDQyMiAwICYjMTA7eiIgaWQ9IkFyaWFsTVQtNjgiLz4mI3hhOyAgICAgIDwvZGVmcz4mI3hhOyAgICAgIDx1c2UgeGxpbms6aHJlZj0iI0FyaWFsTVQtNDUiLz4mI3hhOyAgICAgIDx1c2UgeD0iNjYuNjk5MjE5IiB4bGluazpocmVmPSIjQXJpYWxNVC03MCIvPiYjeGE7ICAgICAgPHVzZSB4PSIxMjIuMzE0NDUzIiB4bGluazpocmVmPSIjQXJpYWxNVC02ZiIvPiYjeGE7ICAgICAgPHVzZSB4PSIxNzcuOTI5Njg4IiB4bGluazpocmVmPSIjQXJpYWxNVC02MyIvPiYjeGE7ICAgICAgPHVzZSB4PSIyMjcuOTI5Njg4IiB4bGluazpocmVmPSIjQXJpYWxNVC02OCIvPiYjeGE7ICAgICA8L2c+JiN4YTsgICAgPC9nPiYjeGE7ICAgPC9nPiYjeGE7ICAgPGcgaWQ9Im1hdHBsb3RsaWIuYXhpc18yIj4mI3hhOyAgICA8ZyBpZD0ieXRpY2tfMSI+JiN4YTsgICAgIDxnIGlkPSJsaW5lMmRfNyI+JiN4YTsgICAgICA8cGF0aCBzdHlsZT0iZmlsbDogbm9uZTsgc3Ryb2tlOiAjY2NjY2NjOyBzdHJva2UtbGluZWNhcDogcm91bmQiIGNsaXAtcGF0aD0idXJsKCNwYjg0NzdiMWY1OCkiIGQ9Ik0gOTAgMzczLjk4NTUyNCAmIzEwO0wgNjQ4IDM3My45ODU1MjQiLz4mI3hhOyAgICAgPC9nPiYjeGE7ICAgICA8ZyBpZD0idGV4dF84Ij4mI3hhOyAgICAgICYjeGE7ICAgICAgPGcgdHJhbnNmb3JtPSJ0cmFuc2xhdGUoMzkuMjEzOTA2IDM3OS44OTA3Mikgc2NhbGUoMC4xNjUgLTAuMTY1KSIgc3R5bGU9ImZpbGw6ICMyNjI2MjYiPiYjeGE7ICAgICAgIDxkZWZzPiYjeGE7ICAgICAgICA8cGF0aCB0cmFuc2Zvcm09InNjYWxlKDAuMDE1NjI1KSIgZD0iTSA1ODEgMCAmIzEwO0wgNTgxIDY0MSAmIzEwO0wgMTIyMiA2NDEgJiMxMDtMIDEyMjIgMCAmIzEwO0wgNTgxIDAgJiMxMDt6IiBpZD0iQXJpYWxNVC0yZSIvPiYjeGE7ICAgICAgIDwvZGVmcz4mI3hhOyAgICAgICA8dXNlIHhsaW5rOmhyZWY9IiNBcmlhbE1ULTMwIi8+JiN4YTsgICAgICAgPHVzZSB4PSI1NS42MTUyMzQiIHhsaW5rOmhyZWY9IiNBcmlhbE1ULTJlIi8+JiN4YTsgICAgICAgPHVzZSB4PSI4My4zOTg0MzgiIHhsaW5rOmhyZWY9IiNBcmlhbE1ULTM1Ii8+JiN4YTsgICAgICAgPHVzZSB4PSIxMzkuMDEzNjcyIiB4bGluazpocmVmPSIjQXJpYWxNVC0zMiIvPiYjeGE7ICAgICAgIDx1c2UgeD0iMTk0LjYyODkwNiIgeGxpbms6aHJlZj0iI0FyaWFsTVQtMzUiLz4mI3hhOyAgICAgIDwvZz4mI3hhOyAgICAgPC9nPiYjeGE7ICAgIDwvZz4mI3hhOyAgICA8ZyBpZD0ieXRpY2tfMiI+JiN4YTsgICAgIDxnIGlkPSJsaW5lMmRfOCI+JiN4YTsgICAgICA8cGF0aCBzdHlsZT0iZmlsbDogbm9uZTsgc3Ryb2tlOiAjY2NjY2NjOyBzdHJva2UtbGluZWNhcDogcm91bmQiIGNsaXAtcGF0aD0idXJsKCNwYjg0NzdiMWY1OCkiIGQ9Ik0gOTAgMzM1LjgzNzM2OCAmIzEwO0wgNjQ4IDMzNS44MzczNjgiLz4mI3hhOyAgICAgPC9nPiYjeGE7ICAgICA8ZyBpZD0idGV4dF85Ij4mI3hhOyAgICAgICYjeGE7ICAgICAgPGcgdHJhbnNmb3JtPSJ0cmFuc2xhdGUoMzkuMjEzOTA2IDM0MS43NDI1NjMpIHNjYWxlKDAuMTY1IC0wLjE2NSkiIHN0eWxlPSJmaWxsOiAjMjYyNjI2Ij4mI3hhOyAgICAgICA8dXNlIHhsaW5rOmhyZWY9IiNBcmlhbE1ULTMwIi8+JiN4YTsgICAgICAgPHVzZSB4PSI1NS42MTUyMzQiIHhsaW5rOmhyZWY9IiNBcmlhbE1ULTJlIi8+JiN4YTsgICAgICAgPHVzZSB4PSI4My4zOTg0MzgiIHhsaW5rOmhyZWY9IiNBcmlhbE1ULTM1Ii8+JiN4YTsgICAgICAgPHVzZSB4PSIxMzkuMDEzNjcyIiB4bGluazpocmVmPSIjQXJpYWxNVC0zNSIvPiYjeGE7ICAgICAgIDx1c2UgeD0iMTk0LjYyODkwNiIgeGxpbms6aHJlZj0iI0FyaWFsTVQtMzAiLz4mI3hhOyAgICAgIDwvZz4mI3hhOyAgICAgPC9nPiYjeGE7ICAgIDwvZz4mI3hhOyAgICA8ZyBpZD0ieXRpY2tfMyI+JiN4YTsgICAgIDxnIGlkPSJsaW5lMmRfOSI+JiN4YTsgICAgICA8cGF0aCBzdHlsZT0iZmlsbDogbm9uZTsgc3Ryb2tlOiAjY2NjY2NjOyBzdHJva2UtbGluZWNhcDogcm91bmQiIGNsaXAtcGF0aD0idXJsKCNwYjg0NzdiMWY1OCkiIGQ9Ik0gOTAgMjk3LjY4OTIxMiAmIzEwO0wgNjQ4IDI5Ny42ODkyMTIiLz4mI3hhOyAgICAgPC9nPiYjeGE7ICAgICA8ZyBpZD0idGV4dF8xMCI+JiN4YTsgICAgICAmI3hhOyAgICAgIDxnIHRyYW5zZm9ybT0idHJhbnNsYXRlKDM5LjIxMzkwNiAzMDMuNTk0NDA3KSBzY2FsZSgwLjE2NSAtMC4xNjUpIiBzdHlsZT0iZmlsbDogIzI2MjYyNiI+JiN4YTsgICAgICAgPGRlZnM+JiN4YTsgICAgICAgIDxwYXRoIHRyYW5zZm9ybT0ic2NhbGUoMC4wMTU2MjUpIiBkPSJNIDMwMyAzOTgxICYjMTA7TCAzMDMgNDUyMiAmIzEwO0wgMzI2OSA0NTIyICYjMTA7TCAzMjY5IDQwODQgJiMxMDtRIDI4MzEgMzYxOSAyNDAxIDI4NDcgJiMxMDtRIDE5NzIgMjA3NSAxNzM4IDEyNTkgJiMxMDtRIDE1NjkgNjg0IDE1MjIgMCAmIzEwO0wgOTQ0IDAgJiMxMDtRIDk1MyA1NDEgMTE1NiAxMzA2ICYjMTA7USAxMzU5IDIwNzIgMTczOSAyNzgzICYjMTA7USAyMTE5IDM0OTQgMjU0NyAzOTgxICYjMTA7TCAzMDMgMzk4MSAmIzEwO3oiIGlkPSJBcmlhbE1ULTM3Ii8+JiN4YTsgICAgICAgPC9kZWZzPiYjeGE7ICAgICAgIDx1c2UgeGxpbms6aHJlZj0iI0FyaWFsTVQtMzAiLz4mI3hhOyAgICAgICA8dXNlIHg9IjU1LjYxNTIzNCIgeGxpbms6aHJlZj0iI0FyaWFsTVQtMmUiLz4mI3hhOyAgICAgICA8dXNlIHg9IjgzLjM5ODQzOCIgeGxpbms6aHJlZj0iI0FyaWFsTVQtMzUiLz4mI3hhOyAgICAgICA8dXNlIHg9IjEzOS4wMTM2NzIiIHhsaW5rOmhyZWY9IiNBcmlhbE1ULTM3Ii8+JiN4YTsgICAgICAgPHVzZSB4PSIxOTQuNjI4OTA2IiB4bGluazpocmVmPSIjQXJpYWxNVC0zNSIvPiYjeGE7ICAgICAgPC9nPiYjeGE7ICAgICA8L2c+JiN4YTsgICAgPC9nPiYjeGE7ICAgIDxnIGlkPSJ5dGlja180Ij4mI3hhOyAgICAgPGcgaWQ9ImxpbmUyZF8xMCI+JiN4YTsgICAgICA8cGF0aCBzdHlsZT0iZmlsbDogbm9uZTsgc3Ryb2tlOiAjY2NjY2NjOyBzdHJva2UtbGluZWNhcDogcm91bmQiIGNsaXAtcGF0aD0idXJsKCNwYjg0NzdiMWY1OCkiIGQ9Ik0gOTAgMjU5LjU0MTA1NiAmIzEwO0wgNjQ4IDI1OS41NDEwNTYiLz4mI3hhOyAgICAgPC9nPiYjeGE7ICAgICA8ZyBpZD0idGV4dF8xMSI+JiN4YTsgICAgICAmI3hhOyAgICAgIDxnIHRyYW5zZm9ybT0idHJhbnNsYXRlKDM5LjIxMzkwNiAyNjUuNDQ2MjUxKSBzY2FsZSgwLjE2NSAtMC4xNjUpIiBzdHlsZT0iZmlsbDogIzI2MjYyNiI+JiN4YTsgICAgICAgPGRlZnM+JiN4YTsgICAgICAgIDxwYXRoIHRyYW5zZm9ybT0ic2NhbGUoMC4wMTU2MjUpIiBkPSJNIDMxODQgMzQ1OSAmIzEwO0wgMjYyNSAzNDE2ICYjMTA7USAyNTUwIDM3NDcgMjQxMyAzODk3ICYjMTA7USAyMTg0IDQxMzggMTg1MCA0MTM4ICYjMTA7USAxNTgxIDQxMzggMTM3OCAzOTg4ICYjMTA7USAxMTEzIDM3OTQgOTU5IDM0MjIgJiMxMDtRIDgwNiAzMDUwIDgwMCAyMzYzICYjMTA7USAxMDAzIDI2NzIgMTI5NyAyODIyICYjMTA7USAxNTkxIDI5NzIgMTkxMyAyOTcyICYjMTA7USAyNDc1IDI5NzIgMjg3MCAyNTU4ICYjMTA7USAzMjY2IDIxNDQgMzI2NiAxNDg4ICYjMTA7USAzMjY2IDEwNTYgMzA4MCA2ODYgJiMxMDtRIDI4OTQgMzE2IDI1NjkgMTE5ICYjMTA7USAyMjQ0IC03OCAxODMxIC03OCAmIzEwO1EgMTEyOCAtNzggNjg0IDQzOSAmIzEwO1EgMjQxIDk1NiAyNDEgMjE0NCAmIzEwO1EgMjQxIDM0NzIgNzMxIDQwNzUgJiMxMDtRIDExNTkgNDYwMCAxODg0IDQ2MDAgJiMxMDtRIDI0MjUgNDYwMCAyNzcwIDQyOTcgJiMxMDtRIDMxMTYgMzk5NCAzMTg0IDM0NTkgJiMxMDt6JiMxMDtNIDg4OCAxNDg0ICYjMTA7USA4ODggMTE5NCAxMDExIDkyOCAmIzEwO1EgMTEzNCA2NjMgMTM1NiA1MjMgJiMxMDtRIDE1NzggMzg0IDE4MjIgMzg0ICYjMTA7USAyMTc4IDM4NCAyNDM0IDY3MSAmIzEwO1EgMjY5MSA5NTkgMjY5MSAxNDUzICYjMTA7USAyNjkxIDE5MjggMjQzNyAyMjAxICYjMTA7USAyMTg0IDI0NzUgMTgwMCAyNDc1ICYjMTA7USAxNDE5IDI0NzUgMTE1MyAyMjAxICYjMTA7USA4ODggMTkyOCA4ODggMTQ4NCAmIzEwO3oiIGlkPSJBcmlhbE1ULTM2Ii8+JiN4YTsgICAgICAgPC9kZWZzPiYjeGE7ICAgICAgIDx1c2UgeGxpbms6aHJlZj0iI0FyaWFsTVQtMzAiLz4mI3hhOyAgICAgICA8dXNlIHg9IjU1LjYxNTIzNCIgeGxpbms6aHJlZj0iI0FyaWFsTVQtMmUiLz4mI3hhOyAgICAgICA8dXNlIHg9IjgzLjM5ODQzOCIgeGxpbms6aHJlZj0iI0FyaWFsTVQtMzYiLz4mI3hhOyAgICAgICA8dXNlIHg9IjEzOS4wMTM2NzIiIHhsaW5rOmhyZWY9IiNBcmlhbE1ULTMwIi8+JiN4YTsgICAgICAgPHVzZSB4PSIxOTQuNjI4OTA2IiB4bGluazpocmVmPSIjQXJpYWxNVC0zMCIvPiYjeGE7ICAgICAgPC9nPiYjeGE7ICAgICA8L2c+JiN4YTsgICAgPC9nPiYjeGE7ICAgIDxnIGlkPSJ5dGlja181Ij4mI3hhOyAgICAgPGcgaWQ9ImxpbmUyZF8xMSI+JiN4YTsgICAgICA8cGF0aCBzdHlsZT0iZmlsbDogbm9uZTsgc3Ryb2tlOiAjY2NjY2NjOyBzdHJva2UtbGluZWNhcDogcm91bmQiIGNsaXAtcGF0aD0idXJsKCNwYjg0NzdiMWY1OCkiIGQ9Ik0gOTAgMjIxLjM5Mjg5OSAmIzEwO0wgNjQ4IDIyMS4zOTI4OTkiLz4mI3hhOyAgICAgPC9nPiYjeGE7ICAgICA8ZyBpZD0idGV4dF8xMiI+JiN4YTsgICAgICAmI3hhOyAgICAgIDxnIHRyYW5zZm9ybT0idHJhbnNsYXRlKDM5LjIxMzkwNiAyMjcuMjk4MDk1KSBzY2FsZSgwLjE2NSAtMC4xNjUpIiBzdHlsZT0iZmlsbDogIzI2MjYyNiI+JiN4YTsgICAgICAgPHVzZSB4bGluazpocmVmPSIjQXJpYWxNVC0zMCIvPiYjeGE7ICAgICAgIDx1c2UgeD0iNTUuNjE1MjM0IiB4bGluazpocmVmPSIjQXJpYWxNVC0yZSIvPiYjeGE7ICAgICAgIDx1c2UgeD0iODMuMzk4NDM4IiB4bGluazpocmVmPSIjQXJpYWxNVC0zNiIvPiYjeGE7ICAgICAgIDx1c2UgeD0iMTM5LjAxMzY3MiIgeGxpbms6aHJlZj0iI0FyaWFsTVQtMzIiLz4mI3hhOyAgICAgICA8dXNlIHg9IjE5NC42Mjg5MDYiIHhsaW5rOmhyZWY9IiNBcmlhbE1ULTM1Ii8+JiN4YTsgICAgICA8L2c+JiN4YTsgICAgIDwvZz4mI3hhOyAgICA8L2c+JiN4YTsgICAgPGcgaWQ9Inl0aWNrXzYiPiYjeGE7ICAgICA8ZyBpZD0ibGluZTJkXzEyIj4mI3hhOyAgICAgIDxwYXRoIHN0eWxlPSJmaWxsOiBub25lOyBzdHJva2U6ICNjY2NjY2M7IHN0cm9rZS1saW5lY2FwOiByb3VuZCIgY2xpcC1wYXRoPSJ1cmwoI3BiODQ3N2IxZjU4KSIgZD0iTSA5MCAxODMuMjQ0NzQzICYjMTA7TCA2NDggMTgzLjI0NDc0MyIvPiYjeGE7ICAgICA8L2c+JiN4YTsgICAgIDxnIGlkPSJ0ZXh0XzEzIj4mI3hhOyAgICAgICYjeGE7ICAgICAgPGcgdHJhbnNmb3JtPSJ0cmFuc2xhdGUoMzkuMjEzOTA2IDE4OS4xNDk5MzgpIHNjYWxlKDAuMTY1IC0wLjE2NSkiIHN0eWxlPSJmaWxsOiAjMjYyNjI2Ij4mI3hhOyAgICAgICA8dXNlIHhsaW5rOmhyZWY9IiNBcmlhbE1ULTMwIi8+JiN4YTsgICAgICAgPHVzZSB4PSI1NS42MTUyMzQiIHhsaW5rOmhyZWY9IiNBcmlhbE1ULTJlIi8+JiN4YTsgICAgICAgPHVzZSB4PSI4My4zOTg0MzgiIHhsaW5rOmhyZWY9IiNBcmlhbE1ULTM2Ii8+JiN4YTsgICAgICAgPHVzZSB4PSIxMzkuMDEzNjcyIiB4bGluazpocmVmPSIjQXJpYWxNVC0zNSIvPiYjeGE7ICAgICAgIDx1c2UgeD0iMTk0LjYyODkwNiIgeGxpbms6aHJlZj0iI0FyaWFsTVQtMzAiLz4mI3hhOyAgICAgIDwvZz4mI3hhOyAgICAgPC9nPiYjeGE7ICAgIDwvZz4mI3hhOyAgICA8ZyBpZD0ieXRpY2tfNyI+JiN4YTsgICAgIDxnIGlkPSJsaW5lMmRfMTMiPiYjeGE7ICAgICAgPHBhdGggc3R5bGU9ImZpbGw6IG5vbmU7IHN0cm9rZTogI2NjY2NjYzsgc3Ryb2tlLWxpbmVjYXA6IHJvdW5kIiBjbGlwLXBhdGg9InVybCgjcGI4NDc3YjFmNTgpIiBkPSJNIDkwIDE0NS4wOTY1ODcgJiMxMDtMIDY0OCAxNDUuMDk2NTg3Ii8+JiN4YTsgICAgIDwvZz4mI3hhOyAgICAgPGcgaWQ9InRleHRfMTQiPiYjeGE7ICAgICAgJiN4YTsgICAgICA8ZyB0cmFuc2Zvcm09InRyYW5zbGF0ZSgzOS4yMTM5MDYgMTUxLjAwMTc4Mikgc2NhbGUoMC4xNjUgLTAuMTY1KSIgc3R5bGU9ImZpbGw6ICMyNjI2MjYiPiYjeGE7ICAgICAgIDx1c2UgeGxpbms6aHJlZj0iI0FyaWFsTVQtMzAiLz4mI3hhOyAgICAgICA8dXNlIHg9IjU1LjYxNTIzNCIgeGxpbms6aHJlZj0iI0FyaWFsTVQtMmUiLz4mI3hhOyAgICAgICA8dXNlIHg9IjgzLjM5ODQzOCIgeGxpbms6aHJlZj0iI0FyaWFsTVQtMzYiLz4mI3hhOyAgICAgICA8dXNlIHg9IjEzOS4wMTM2NzIiIHhsaW5rOmhyZWY9IiNBcmlhbE1ULTM3Ii8+JiN4YTsgICAgICAgPHVzZSB4PSIxOTQuNjI4OTA2IiB4bGluazpocmVmPSIjQXJpYWxNVC0zNSIvPiYjeGE7ICAgICAgPC9nPiYjeGE7ICAgICA8L2c+JiN4YTsgICAgPC9nPiYjeGE7ICAgIDxnIGlkPSJ5dGlja184Ij4mI3hhOyAgICAgPGcgaWQ9ImxpbmUyZF8xNCI+JiN4YTsgICAgICA8cGF0aCBzdHlsZT0iZmlsbDogbm9uZTsgc3Ryb2tlOiAjY2NjY2NjOyBzdHJva2UtbGluZWNhcDogcm91bmQiIGNsaXAtcGF0aD0idXJsKCNwYjg0NzdiMWY1OCkiIGQ9Ik0gOTAgMTA2Ljk0ODQzICYjMTA7TCA2NDggMTA2Ljk0ODQzIi8+JiN4YTsgICAgIDwvZz4mI3hhOyAgICAgPGcgaWQ9InRleHRfMTUiPiYjeGE7ICAgICAgJiN4YTsgICAgICA8ZyB0cmFuc2Zvcm09InRyYW5zbGF0ZSgzOS4yMTM5MDYgMTEyLjg1MzYyNikgc2NhbGUoMC4xNjUgLTAuMTY1KSIgc3R5bGU9ImZpbGw6ICMyNjI2MjYiPiYjeGE7ICAgICAgIDx1c2UgeGxpbms6aHJlZj0iI0FyaWFsTVQtMzAiLz4mI3hhOyAgICAgICA8dXNlIHg9IjU1LjYxNTIzNCIgeGxpbms6aHJlZj0iI0FyaWFsTVQtMmUiLz4mI3hhOyAgICAgICA8dXNlIHg9IjgzLjM5ODQzOCIgeGxpbms6aHJlZj0iI0FyaWFsTVQtMzciLz4mI3hhOyAgICAgICA8dXNlIHg9IjEzOS4wMTM2NzIiIHhsaW5rOmhyZWY9IiNBcmlhbE1ULTMwIi8+JiN4YTsgICAgICAgPHVzZSB4PSIxOTQuNjI4OTA2IiB4bGluazpocmVmPSIjQXJpYWxNVC0zMCIvPiYjeGE7ICAgICAgPC9nPiYjeGE7ICAgICA8L2c+JiN4YTsgICAgPC9nPiYjeGE7ICAgIDxnIGlkPSJ5dGlja185Ij4mI3hhOyAgICAgPGcgaWQ9ImxpbmUyZF8xNSI+JiN4YTsgICAgICA8cGF0aCBzdHlsZT0iZmlsbDogbm9uZTsgc3Ryb2tlOiAjY2NjY2NjOyBzdHJva2UtbGluZWNhcDogcm91bmQiIGNsaXAtcGF0aD0idXJsKCNwYjg0NzdiMWY1OCkiIGQ9Ik0gOTAgNjguODAwMjc0ICYjMTA7TCA2NDggNjguODAwMjc0Ii8+JiN4YTsgICAgIDwvZz4mI3hhOyAgICAgPGcgaWQ9InRleHRfMTYiPiYjeGE7ICAgICAgJiN4YTsgICAgICA8ZyB0cmFuc2Zvcm09InRyYW5zbGF0ZSgzOS4yMTM5MDYgNzQuNzA1NDY5KSBzY2FsZSgwLjE2NSAtMC4xNjUpIiBzdHlsZT0iZmlsbDogIzI2MjYyNiI+JiN4YTsgICAgICAgPHVzZSB4bGluazpocmVmPSIjQXJpYWxNVC0zMCIvPiYjeGE7ICAgICAgIDx1c2UgeD0iNTUuNjE1MjM0IiB4bGluazpocmVmPSIjQXJpYWxNVC0yZSIvPiYjeGE7ICAgICAgIDx1c2UgeD0iODMuMzk4NDM4IiB4bGluazpocmVmPSIjQXJpYWxNVC0zNyIvPiYjeGE7ICAgICAgIDx1c2UgeD0iMTM5LjAxMzY3MiIgeGxpbms6aHJlZj0iI0FyaWFsTVQtMzIiLz4mI3hhOyAgICAgICA8dXNlIHg9IjE5NC42Mjg5MDYiIHhsaW5rOmhyZWY9IiNBcmlhbE1ULTM1Ii8+JiN4YTsgICAgICA8L2c+JiN4YTsgICAgIDwvZz4mI3hhOyAgICA8L2c+JiN4YTsgICAgPGcgaWQ9InRleHRfMTciPiYjeGE7ICAgICAmI3hhOyAgICAgPGcgdHJhbnNmb3JtPSJ0cmFuc2xhdGUoMzEuNjM2NDA2IDI0MC41MTM3NSkgcm90YXRlKC05MCkgc2NhbGUoMC4xOCAtMC4xOCkiIHN0eWxlPSJmaWxsOiAjMjYyNjI2Ij4mI3hhOyAgICAgIDxkZWZzPiYjeGE7ICAgICAgIDxwYXRoIHRyYW5zZm9ybT0ic2NhbGUoMC4wMTU2MjUpIiBkPSJNIDE4MDMgMCAmIzEwO0wgMjggNDU4MSAmIzEwO0wgNjg0IDQ1ODEgJiMxMDtMIDE4NzUgMTI1MyAmIzEwO1EgMjAxOSA4NTMgMjExNiA1MDMgJiMxMDtRIDIyMjIgODc4IDIzNjMgMTI1MyAmIzEwO0wgMzYwMCA0NTgxICYjMTA7TCA0MjE5IDQ1ODEgJiMxMDtMIDI0MjUgMCAmIzEwO0wgMTgwMyAwICYjMTA7eiIgaWQ9IkFyaWFsTVQtNTYiLz4mI3hhOyAgICAgICA8cGF0aCB0cmFuc2Zvcm09InNjYWxlKDAuMDE1NjI1KSIgZD0iTSAyNTg4IDQwOSAmIzEwO1EgMjI3NSAxNDQgMTk4NiAzNCAmIzEwO1EgMTY5NyAtNzUgMTM2NiAtNzUgJiMxMDtRIDgxOSAtNzUgNTI1IDE5MiAmIzEwO1EgMjMxIDQ1OSAyMzEgODc1ICYjMTA7USAyMzEgMTExOSAzNDIgMTMyMCAmIzEwO1EgNDUzIDE1MjIgNjMzIDE2NDQgJiMxMDtRIDgxMyAxNzY2IDEwMzggMTgyOCAmIzEwO1EgMTIwMyAxODcyIDE1MzggMTkxMyAmIzEwO1EgMjIxOSAxOTk0IDI1NDEgMjEwNiAmIzEwO1EgMjU0NCAyMjIyIDI1NDQgMjI1MyAmIzEwO1EgMjU0NCAyNTk3IDIzODQgMjczOCAmIzEwO1EgMjE2OSAyOTI4IDE3NDQgMjkyOCAmIzEwO1EgMTM0NyAyOTI4IDExNTggMjc4OSAmIzEwO1EgOTY5IDI2NTAgODc4IDIyOTcgJiMxMDtMIDMyOCAyMzcyICYjMTA7USA0MDMgMjcyNSA1NzUgMjk0MiAmIzEwO1EgNzQ3IDMxNTkgMTA3MiAzMjc2ICYjMTA7USAxMzk3IDMzOTQgMTgyNSAzMzk0ICYjMTA7USAyMjUwIDMzOTQgMjUxNSAzMjk0ICYjMTA7USAyNzgxIDMxOTQgMjkwNiAzMDQyICYjMTA7USAzMDMxIDI4OTEgMzA4MSAyNjU5ICYjMTA7USAzMTA5IDI1MTYgMzEwOSAyMTQxICYjMTA7TCAzMTA5IDEzOTEgJiMxMDtRIDMxMDkgNjA2IDMxNDUgMzk4ICYjMTA7USAzMTgxIDE5MSAzMjg4IDAgJiMxMDtMIDI3MDAgMCAmIzEwO1EgMjYxMyAxNzUgMjU4OCA0MDkgJiMxMDt6JiMxMDtNIDI1NDEgMTY2NiAmIzEwO1EgMjIzNCAxNTQxIDE2MjIgMTQ1MyAmIzEwO1EgMTI3NSAxNDAzIDExMzEgMTM0MCAmIzEwO1EgOTg4IDEyNzggOTA5IDExNTggJiMxMDtRIDgzMSAxMDM4IDgzMSA4OTEgJiMxMDtRIDgzMSA2NjYgMTAwMSA1MTYgJiMxMDtRIDExNzIgMzY2IDE1MDAgMzY2ICYjMTA7USAxODI1IDM2NiAyMDc4IDUwOCAmIzEwO1EgMjMzMSA2NTAgMjQ1MCA4OTcgJiMxMDtRIDI1NDEgMTA4OCAyNTQxIDE0NTkgJiMxMDtMIDI1NDEgMTY2NiAmIzEwO3oiIGlkPSJBcmlhbE1ULTYxIi8+JiN4YTsgICAgICAgPHBhdGggdHJhbnNmb3JtPSJzY2FsZSgwLjAxNTYyNSkiIGQ9Ik0gNDA5IDAgJiMxMDtMIDQwOSA0NTgxICYjMTA7TCA5NzIgNDU4MSAmIzEwO0wgOTcyIDAgJiMxMDtMIDQwOSAwICYjMTA7eiIgaWQ9IkFyaWFsTVQtNmMiLz4mI3hhOyAgICAgICA8cGF0aCB0cmFuc2Zvcm09InNjYWxlKDAuMDE1NjI1KSIgZD0iTSAyNTk3IDAgJiMxMDtMIDI1OTcgNDg4ICYjMTA7USAyMjA5IC03NSAxNTQ0IC03NSAmIzEwO1EgMTI1MCAtNzUgOTk1IDM3ICYjMTA7USA3NDEgMTUwIDYxNyAzMjAgJiMxMDtRIDQ5NCA0OTEgNDQ0IDczOCAmIzEwO1EgNDA5IDkwMyA0MDkgMTI2MyAmIzEwO0wgNDA5IDMzMTkgJiMxMDtMIDk3MiAzMzE5ICYjMTA7TCA5NzIgMTQ3OCAmIzEwO1EgOTcyIDEwMzggMTAwNiA4ODQgJiMxMDtRIDEwNTkgNjYzIDEyMzEgNTM2ICYjMTA7USAxNDAzIDQwOSAxNjU2IDQwOSAmIzEwO1EgMTkwOSA0MDkgMjEzMSA1MzkgJiMxMDtRIDIzNTMgNjY5IDI0NDUgODkyICYjMTA7USAyNTM4IDExMTYgMjUzOCAxNTQxICYjMTA7TCAyNTM4IDMzMTkgJiMxMDtMIDMxMDAgMzMxOSAmIzEwO0wgMzEwMCAwICYjMTA7TCAyNTk3IDAgJiMxMDt6IiBpZD0iQXJpYWxNVC03NSIvPiYjeGE7ICAgICAgIDxwYXRoIHRyYW5zZm9ybT0ic2NhbGUoMC4wMTU2MjUpIiBkPSJNIDI2OTQgMTA2OSAmIzEwO0wgMzI3NSA5OTcgJiMxMDtRIDMxMzggNDg4IDI3NjYgMjA2ICYjMTA7USAyMzk0IC03NSAxODE2IC03NSAmIzEwO1EgMTA4OCAtNzUgNjYxIDM3MyAmIzEwO1EgMjM0IDgyMiAyMzQgMTYzMSAmIzEwO1EgMjM0IDI0NjkgNjY1IDI5MzEgJiMxMDtRIDEwOTcgMzM5NCAxNzg0IDMzOTQgJiMxMDtRIDI0NTAgMzM5NCAyODcyIDI5NDEgJiMxMDtRIDMyOTQgMjQ4OCAzMjk0IDE2NjYgJiMxMDtRIDMyOTQgMTYxNiAzMjkxIDE1MTYgJiMxMDtMIDgxNiAxNTE2ICYjMTA7USA4NDcgOTY5IDExMjUgNjc4ICYjMTA7USAxNDAzIDM4OCAxODE5IDM4OCAmIzEwO1EgMjEyOCAzODggMjM0NyA1NTAgJiMxMDtRIDI1NjYgNzEzIDI2OTQgMTA2OSAmIzEwO3omIzEwO00gODQ3IDE5NzggJiMxMDtMIDI3MDAgMTk3OCAmIzEwO1EgMjY2MyAyMzk3IDI0ODggMjYwNiAmIzEwO1EgMjIxOSAyOTMxIDE3OTEgMjkzMSAmIzEwO1EgMTQwMyAyOTMxIDExMzkgMjY3MiAmIzEwO1EgODc1IDI0MTMgODQ3IDE5NzggJiMxMDt6IiBpZD0iQXJpYWxNVC02NSIvPiYjeGE7ICAgICAgPC9kZWZzPiYjeGE7ICAgICAgPHVzZSB4bGluazpocmVmPSIjQXJpYWxNVC01NiIvPiYjeGE7ICAgICAgPHVzZSB4PSI1OS4zMjQyMTkiIHhsaW5rOmhyZWY9IiNBcmlhbE1ULTYxIi8+JiN4YTsgICAgICA8dXNlIHg9IjExNC45Mzk0NTMiIHhsaW5rOmhyZWY9IiNBcmlhbE1ULTZjIi8+JiN4YTsgICAgICA8dXNlIHg9IjEzNy4xNTYyNSIgeGxpbms6aHJlZj0iI0FyaWFsTVQtNzUiLz4mI3hhOyAgICAgIDx1c2UgeD0iMTkyLjc3MTQ4NCIgeGxpbms6aHJlZj0iI0FyaWFsTVQtNjUiLz4mI3hhOyAgICAgPC9nPiYjeGE7ICAgIDwvZz4mI3hhOyAgIDwvZz4mI3hhOyAgIDxnIGlkPSJQb2x5Q29sbGVjdGlvbl8xIi8+JiN4YTsgICA8ZyBpZD0iUG9seUNvbGxlY3Rpb25fMiIvPiYjeGE7ICAgPGcgaWQ9ImxpbmUyZF8xNiI+JiN4YTsgICAgPHBhdGggc3R5bGU9ImZpbGw6IG5vbmU7IHN0cm9rZTogI2ZmMDAwMDsgc3Ryb2tlLXdpZHRoOiAxLjU7IHN0cm9rZS1saW5lY2FwOiByb3VuZCIgY2xpcC1wYXRoPSJ1cmwoI3BiODQ3N2IxZjU4KSIgZD0iTSAxMTUuMzYzNjM2IDM2OS4zNiAmIzEwO0wgMTI1LjcxNjE0MSAyNDUuMDE3OTM5ICYjMTA7TCAxMzYuMDY4NjQ2IDI0MC4wNDQyMTMgJiMxMDtMIDE0Ni40MjExNSAyMjMuMTMzNzI2ICYjMTA7TCAxNTYuNzczNjU1IDE5NS4yODEwNDIgJiMxMDtMIDE2Ny4xMjYxNiAxOTEuMzAyMTUyICYjMTA7TCAxNzcuNDc4NjY0IDE3OS4zNjUzICYjMTA7TCAxODcuODMxMTY5IDE3NS4zODYzMTkgJiMxMDtMIDE5OC4xODM2NzMgMTc0LjM5MTU3NCAmIzEwO0wgMjA4LjUzNjE3OCAxNjUuNDM4OTU4ICYjMTA7TCAyMTguODg4NjgzIDE1NC40OTY4NTIgJiMxMDtMIDIyOS4yNDExODcgMTY5LjQxNzkzOSAmIzEwO0wgMjM5LjU5MzY5MiAxNTguNDc1ODMzICYjMTA7TCAyNDkuOTQ2MTk3IDE1MC41MTc4NzEgJiMxMDtMIDI2MC4yOTg3MDEgMTQ4LjUyODQ3MSAmIzEwO0wgMjcwLjY1MTIwNiAxMzYuNTkxNjIgJiMxMDtMIDI4MS4wMDM3MTEgMTM3LjU4NjM2NSAmIzEwO0wgMjkxLjM1NjIxNSAxMjIuNjY1Mjc4ICYjMTA7TCAzMDEuNzA4NzIgMTI4LjYzMzY1OCAmIzEwO0wgMzEyLjA2MTIyNCAxMTcuNjkxNTUxICYjMTA7TCAzMjIuNDEzNzI5IDExNi42OTY4MDYgJiMxMDtMIDMzMi43NjYyMzQgMTEwLjcyODQyNiAmIzEwO0wgMzQzLjExODczOCAxMDMuNzY1MyAmIzEwO0wgMzUzLjQ3MTI0MyA5Ni44MDIwODQgJiMxMDtMIDM2My44MjM3NDggMTAxLjc3NTgxICYjMTA7TCAzNzQuMTc2MjUyIDk0LjgxMjY4NCAmIzEwO0wgMzg0LjUyODc1NyA4Ny44NDk0NjggJiMxMDtMIDM5NC44ODEyNjIgODAuODg2MzQyICYjMTA7TCA0MDUuMjMzNzY2IDc3LjkwMjEwNiAmIzEwO0wgNDE1LjU4NjI3MSA3My45MjMxMjYgJiMxMDtMIDQyNS45Mzg3NzYgNjguOTQ5NDkgJiMxMDtMIDQzNi4yOTEyOCA3MC45Mzg5ODEgJiMxMDtMIDQ0Ni42NDM3ODUgNzAuOTM4OTgxICYjMTA7TCA0NTYuOTk2Mjg5IDczLjkyMzEyNiAmIzEwO0wgNDY3LjM0ODc5NCA2Ni45NiAmIzEwO0wgNDc3LjcwMTI5OSA3MC45Mzg5ODEgJiMxMDtMIDQ4OC4wNTM4MDMgNjcuOTU0NzQ1ICYjMTA7TCA0OTguNDA2MzA4IDcxLjkzMzcyNiAmIzEwO0wgNTA4Ljc1ODgxMyA3NC45MTc4NzEgJiMxMDtMIDUxOS4xMTEzMTcgNzMuOTIzMTI2ICYjMTA7TCA1MjkuNDYzODIyIDc2LjkwNzM2MSAmIzEwO0wgNTM5LjgxNjMyNyA4MC44ODYzNDIgJiMxMDtMIDU1MC4xNjg4MzEgNzIuOTI4NDcxICYjMTA7TCA1NjAuNTIxMzM2IDY5Ljk0NDIzNiAmIzEwO0wgNTcwLjg3Mzg0IDc1LjkxMjYxNiAmIzEwO0wgNTgxLjIyNjM0NSA3OC44OTY4NTIgJiMxMDtMIDU5MS41Nzg4NSA3Ny45MDIxMDYgJiMxMDtMIDYwMS45MzEzNTQgNzQuOTE3ODcxICYjMTA7TCA2MTIuMjgzODU5IDc4Ljg5Njg1MiAmIzEwO0wgNjIyLjYzNjM2NCA3Ni45MDczNjEiLz4mI3hhOyAgICA8ZGVmcz4mI3hhOyAgICAgPHBhdGggc3R5bGU9InN0cm9rZTogI2ZmZmZmZjsgc3Ryb2tlLXdpZHRoOiAwLjc1IiBkPSJNIDAgMyAmIzEwO0MgMC43OTU2MDkgMyAxLjU1ODc0IDIuNjgzOTAxIDIuMTIxMzIgMi4xMjEzMiAmIzEwO0MgMi42ODM5MDEgMS41NTg3NCAzIDAuNzk1NjA5IDMgMCAmIzEwO0MgMyAtMC43OTU2MDkgMi42ODM5MDEgLTEuNTU4NzQgMi4xMjEzMiAtMi4xMjEzMiAmIzEwO0MgMS41NTg3NCAtMi42ODM5MDEgMC43OTU2MDkgLTMgMCAtMyAmIzEwO0MgLTAuNzk1NjA5IC0zIC0xLjU1ODc0IC0yLjY4MzkwMSAtMi4xMjEzMiAtMi4xMjEzMiAmIzEwO0MgLTIuNjgzOTAxIC0xLjU1ODc0IC0zIC0wLjc5NTYwOSAtMyAwICYjMTA7QyAtMyAwLjc5NTYwOSAtMi42ODM5MDEgMS41NTg3NCAtMi4xMjEzMiAyLjEyMTMyICYjMTA7QyAtMS41NTg3NCAyLjY4MzkwMSAtMC43OTU2MDkgMyAwIDMgJiMxMDt6IiBpZD0ibTQ4YjU2MGQ4NTkiLz4mI3hhOyAgICA8L2RlZnM+JiN4YTsgICAgPGcgY2xpcC1wYXRoPSJ1cmwoI3BiODQ3N2IxZjU4KSI+JiN4YTsgICAgIDx1c2Ugc3R5bGU9ImZpbGw6ICNmZjAwMDA7IHN0cm9rZTogI2ZmZmZmZjsgc3Ryb2tlLXdpZHRoOiAwLjc1IiB5PSIzNjkuMzYiIHg9IjExNS4zNjM2MzYiIHhsaW5rOmhyZWY9IiNtNDhiNTYwZDg1OSIvPiYjeGE7ICAgICA8dXNlIHN0eWxlPSJmaWxsOiAjZmYwMDAwOyBzdHJva2U6ICNmZmZmZmY7IHN0cm9rZS13aWR0aDogMC43NSIgeT0iMjQ1LjAxNzkzOSIgeD0iMTI1LjcxNjE0MSIgeGxpbms6aHJlZj0iI200OGI1NjBkODU5Ii8+JiN4YTsgICAgIDx1c2Ugc3R5bGU9ImZpbGw6ICNmZjAwMDA7IHN0cm9rZTogI2ZmZmZmZjsgc3Ryb2tlLXdpZHRoOiAwLjc1IiB5PSIyNDAuMDQ0MjEzIiB4PSIxMzYuMDY4NjQ2IiB4bGluazpocmVmPSIjbTQ4YjU2MGQ4NTkiLz4mI3hhOyAgICAgPHVzZSBzdHlsZT0iZmlsbDogI2ZmMDAwMDsgc3Ryb2tlOiAjZmZmZmZmOyBzdHJva2Utd2lkdGg6IDAuNzUiIHk9IjIyMy4xMzM3MjYiIHg9IjE0Ni40MjExNSIgeGxpbms6aHJlZj0iI200OGI1NjBkODU5Ii8+JiN4YTsgICAgIDx1c2Ugc3R5bGU9ImZpbGw6ICNmZjAwMDA7IHN0cm9rZTogI2ZmZmZmZjsgc3Ryb2tlLXdpZHRoOiAwLjc1IiB5PSIxOTUuMjgxMDQyIiB4PSIxNTYuNzczNjU1IiB4bGluazpocmVmPSIjbTQ4YjU2MGQ4NTkiLz4mI3hhOyAgICAgPHVzZSBzdHlsZT0iZmlsbDogI2ZmMDAwMDsgc3Ryb2tlOiAjZmZmZmZmOyBzdHJva2Utd2lkdGg6IDAuNzUiIHk9IjE5MS4zMDIxNTIiIHg9IjE2Ny4xMjYxNiIgeGxpbms6aHJlZj0iI200OGI1NjBkODU5Ii8+JiN4YTsgICAgIDx1c2Ugc3R5bGU9ImZpbGw6ICNmZjAwMDA7IHN0cm9rZTogI2ZmZmZmZjsgc3Ryb2tlLXdpZHRoOiAwLjc1IiB5PSIxNzkuMzY1MyIgeD0iMTc3LjQ3ODY2NCIgeGxpbms6aHJlZj0iI200OGI1NjBkODU5Ii8+JiN4YTsgICAgIDx1c2Ugc3R5bGU9ImZpbGw6ICNmZjAwMDA7IHN0cm9rZTogI2ZmZmZmZjsgc3Ryb2tlLXdpZHRoOiAwLjc1IiB5PSIxNzUuMzg2MzE5IiB4PSIxODcuODMxMTY5IiB4bGluazpocmVmPSIjbTQ4YjU2MGQ4NTkiLz4mI3hhOyAgICAgPHVzZSBzdHlsZT0iZmlsbDogI2ZmMDAwMDsgc3Ryb2tlOiAjZmZmZmZmOyBzdHJva2Utd2lkdGg6IDAuNzUiIHk9IjE3NC4zOTE1NzQiIHg9IjE5OC4xODM2NzMiIHhsaW5rOmhyZWY9IiNtNDhiNTYwZDg1OSIvPiYjeGE7ICAgICA8dXNlIHN0eWxlPSJmaWxsOiAjZmYwMDAwOyBzdHJva2U6ICNmZmZmZmY7IHN0cm9rZS13aWR0aDogMC43NSIgeT0iMTY1LjQzODk1OCIgeD0iMjA4LjUzNjE3OCIgeGxpbms6aHJlZj0iI200OGI1NjBkODU5Ii8+JiN4YTsgICAgIDx1c2Ugc3R5bGU9ImZpbGw6ICNmZjAwMDA7IHN0cm9rZTogI2ZmZmZmZjsgc3Ryb2tlLXdpZHRoOiAwLjc1IiB5PSIxNTQuNDk2ODUyIiB4PSIyMTguODg4NjgzIiB4bGluazpocmVmPSIjbTQ4YjU2MGQ4NTkiLz4mI3hhOyAgICAgPHVzZSBzdHlsZT0iZmlsbDogI2ZmMDAwMDsgc3Ryb2tlOiAjZmZmZmZmOyBzdHJva2Utd2lkdGg6IDAuNzUiIHk9IjE2OS40MTc5MzkiIHg9IjIyOS4yNDExODciIHhsaW5rOmhyZWY9IiNtNDhiNTYwZDg1OSIvPiYjeGE7ICAgICA8dXNlIHN0eWxlPSJmaWxsOiAjZmYwMDAwOyBzdHJva2U6ICNmZmZmZmY7IHN0cm9rZS13aWR0aDogMC43NSIgeT0iMTU4LjQ3NTgzMyIgeD0iMjM5LjU5MzY5MiIgeGxpbms6aHJlZj0iI200OGI1NjBkODU5Ii8+JiN4YTsgICAgIDx1c2Ugc3R5bGU9ImZpbGw6ICNmZjAwMDA7IHN0cm9rZTogI2ZmZmZmZjsgc3Ryb2tlLXdpZHRoOiAwLjc1IiB5PSIxNTAuNTE3ODcxIiB4PSIyNDkuOTQ2MTk3IiB4bGluazpocmVmPSIjbTQ4YjU2MGQ4NTkiLz4mI3hhOyAgICAgPHVzZSBzdHlsZT0iZmlsbDogI2ZmMDAwMDsgc3Ryb2tlOiAjZmZmZmZmOyBzdHJva2Utd2lkdGg6IDAuNzUiIHk9IjE0OC41Mjg0NzEiIHg9IjI2MC4yOTg3MDEiIHhsaW5rOmhyZWY9IiNtNDhiNTYwZDg1OSIvPiYjeGE7ICAgICA8dXNlIHN0eWxlPSJmaWxsOiAjZmYwMDAwOyBzdHJva2U6ICNmZmZmZmY7IHN0cm9rZS13aWR0aDogMC43NSIgeT0iMTM2LjU5MTYyIiB4PSIyNzAuNjUxMjA2IiB4bGluazpocmVmPSIjbTQ4YjU2MGQ4NTkiLz4mI3hhOyAgICAgPHVzZSBzdHlsZT0iZmlsbDogI2ZmMDAwMDsgc3Ryb2tlOiAjZmZmZmZmOyBzdHJva2Utd2lkdGg6IDAuNzUiIHk9IjEzNy41ODYzNjUiIHg9IjI4MS4wMDM3MTEiIHhsaW5rOmhyZWY9IiNtNDhiNTYwZDg1OSIvPiYjeGE7ICAgICA8dXNlIHN0eWxlPSJmaWxsOiAjZmYwMDAwOyBzdHJva2U6ICNmZmZmZmY7IHN0cm9rZS13aWR0aDogMC43NSIgeT0iMTIyLjY2NTI3OCIgeD0iMjkxLjM1NjIxNSIgeGxpbms6aHJlZj0iI200OGI1NjBkODU5Ii8+JiN4YTsgICAgIDx1c2Ugc3R5bGU9ImZpbGw6ICNmZjAwMDA7IHN0cm9rZTogI2ZmZmZmZjsgc3Ryb2tlLXdpZHRoOiAwLjc1IiB5PSIxMjguNjMzNjU4IiB4PSIzMDEuNzA4NzIiIHhsaW5rOmhyZWY9IiNtNDhiNTYwZDg1OSIvPiYjeGE7ICAgICA8dXNlIHN0eWxlPSJmaWxsOiAjZmYwMDAwOyBzdHJva2U6ICNmZmZmZmY7IHN0cm9rZS13aWR0aDogMC43NSIgeT0iMTE3LjY5MTU1MSIgeD0iMzEyLjA2MTIyNCIgeGxpbms6aHJlZj0iI200OGI1NjBkODU5Ii8+JiN4YTsgICAgIDx1c2Ugc3R5bGU9ImZpbGw6ICNmZjAwMDA7IHN0cm9rZTogI2ZmZmZmZjsgc3Ryb2tlLXdpZHRoOiAwLjc1IiB5PSIxMTYuNjk2ODA2IiB4PSIzMjIuNDEzNzI5IiB4bGluazpocmVmPSIjbTQ4YjU2MGQ4NTkiLz4mI3hhOyAgICAgPHVzZSBzdHlsZT0iZmlsbDogI2ZmMDAwMDsgc3Ryb2tlOiAjZmZmZmZmOyBzdHJva2Utd2lkdGg6IDAuNzUiIHk9IjExMC43Mjg0MjYiIHg9IjMzMi43NjYyMzQiIHhsaW5rOmhyZWY9IiNtNDhiNTYwZDg1OSIvPiYjeGE7ICAgICA8dXNlIHN0eWxlPSJmaWxsOiAjZmYwMDAwOyBzdHJva2U6ICNmZmZmZmY7IHN0cm9rZS13aWR0aDogMC43NSIgeT0iMTAzLjc2NTMiIHg9IjM0My4xMTg3MzgiIHhsaW5rOmhyZWY9IiNtNDhiNTYwZDg1OSIvPiYjeGE7ICAgICA8dXNlIHN0eWxlPSJmaWxsOiAjZmYwMDAwOyBzdHJva2U6ICNmZmZmZmY7IHN0cm9rZS13aWR0aDogMC43NSIgeT0iOTYuODAyMDg0IiB4PSIzNTMuNDcxMjQzIiB4bGluazpocmVmPSIjbTQ4YjU2MGQ4NTkiLz4mI3hhOyAgICAgPHVzZSBzdHlsZT0iZmlsbDogI2ZmMDAwMDsgc3Ryb2tlOiAjZmZmZmZmOyBzdHJva2Utd2lkdGg6IDAuNzUiIHk9IjEwMS43NzU4MSIgeD0iMzYzLjgyMzc0OCIgeGxpbms6aHJlZj0iI200OGI1NjBkODU5Ii8+JiN4YTsgICAgIDx1c2Ugc3R5bGU9ImZpbGw6ICNmZjAwMDA7IHN0cm9rZTogI2ZmZmZmZjsgc3Ryb2tlLXdpZHRoOiAwLjc1IiB5PSI5NC44MTI2ODQiIHg9IjM3NC4xNzYyNTIiIHhsaW5rOmhyZWY9IiNtNDhiNTYwZDg1OSIvPiYjeGE7ICAgICA8dXNlIHN0eWxlPSJmaWxsOiAjZmYwMDAwOyBzdHJva2U6ICNmZmZmZmY7IHN0cm9rZS13aWR0aDogMC43NSIgeT0iODcuODQ5NDY4IiB4PSIzODQuNTI4NzU3IiB4bGluazpocmVmPSIjbTQ4YjU2MGQ4NTkiLz4mI3hhOyAgICAgPHVzZSBzdHlsZT0iZmlsbDogI2ZmMDAwMDsgc3Ryb2tlOiAjZmZmZmZmOyBzdHJva2Utd2lkdGg6IDAuNzUiIHk9IjgwLjg4NjM0MiIgeD0iMzk0Ljg4MTI2MiIgeGxpbms6aHJlZj0iI200OGI1NjBkODU5Ii8+JiN4YTsgICAgIDx1c2Ugc3R5bGU9ImZpbGw6ICNmZjAwMDA7IHN0cm9rZTogI2ZmZmZmZjsgc3Ryb2tlLXdpZHRoOiAwLjc1IiB5PSI3Ny45MDIxMDYiIHg9IjQwNS4yMzM3NjYiIHhsaW5rOmhyZWY9IiNtNDhiNTYwZDg1OSIvPiYjeGE7ICAgICA8dXNlIHN0eWxlPSJmaWxsOiAjZmYwMDAwOyBzdHJva2U6ICNmZmZmZmY7IHN0cm9rZS13aWR0aDogMC43NSIgeT0iNzMuOTIzMTI2IiB4PSI0MTUuNTg2MjcxIiB4bGluazpocmVmPSIjbTQ4YjU2MGQ4NTkiLz4mI3hhOyAgICAgPHVzZSBzdHlsZT0iZmlsbDogI2ZmMDAwMDsgc3Ryb2tlOiAjZmZmZmZmOyBzdHJva2Utd2lkdGg6IDAuNzUiIHk9IjY4Ljk0OTQ5IiB4PSI0MjUuOTM4Nzc2IiB4bGluazpocmVmPSIjbTQ4YjU2MGQ4NTkiLz4mI3hhOyAgICAgPHVzZSBzdHlsZT0iZmlsbDogI2ZmMDAwMDsgc3Ryb2tlOiAjZmZmZmZmOyBzdHJva2Utd2lkdGg6IDAuNzUiIHk9IjcwLjkzODk4MSIgeD0iNDM2LjI5MTI4IiB4bGluazpocmVmPSIjbTQ4YjU2MGQ4NTkiLz4mI3hhOyAgICAgPHVzZSBzdHlsZT0iZmlsbDogI2ZmMDAwMDsgc3Ryb2tlOiAjZmZmZmZmOyBzdHJva2Utd2lkdGg6IDAuNzUiIHk9IjcwLjkzODk4MSIgeD0iNDQ2LjY0Mzc4NSIgeGxpbms6aHJlZj0iI200OGI1NjBkODU5Ii8+JiN4YTsgICAgIDx1c2Ugc3R5bGU9ImZpbGw6ICNmZjAwMDA7IHN0cm9rZTogI2ZmZmZmZjsgc3Ryb2tlLXdpZHRoOiAwLjc1IiB5PSI3My45MjMxMjYiIHg9IjQ1Ni45OTYyODkiIHhsaW5rOmhyZWY9IiNtNDhiNTYwZDg1OSIvPiYjeGE7ICAgICA8dXNlIHN0eWxlPSJmaWxsOiAjZmYwMDAwOyBzdHJva2U6ICNmZmZmZmY7IHN0cm9rZS13aWR0aDogMC43NSIgeT0iNjYuOTYiIHg9IjQ2Ny4zNDg3OTQiIHhsaW5rOmhyZWY9IiNtNDhiNTYwZDg1OSIvPiYjeGE7ICAgICA8dXNlIHN0eWxlPSJmaWxsOiAjZmYwMDAwOyBzdHJva2U6ICNmZmZmZmY7IHN0cm9rZS13aWR0aDogMC43NSIgeT0iNzAuOTM4OTgxIiB4PSI0NzcuNzAxMjk5IiB4bGluazpocmVmPSIjbTQ4YjU2MGQ4NTkiLz4mI3hhOyAgICAgPHVzZSBzdHlsZT0iZmlsbDogI2ZmMDAwMDsgc3Ryb2tlOiAjZmZmZmZmOyBzdHJva2Utd2lkdGg6IDAuNzUiIHk9IjY3Ljk1NDc0NSIgeD0iNDg4LjA1MzgwMyIgeGxpbms6aHJlZj0iI200OGI1NjBkODU5Ii8+JiN4YTsgICAgIDx1c2Ugc3R5bGU9ImZpbGw6ICNmZjAwMDA7IHN0cm9rZTogI2ZmZmZmZjsgc3Ryb2tlLXdpZHRoOiAwLjc1IiB5PSI3MS45MzM3MjYiIHg9IjQ5OC40MDYzMDgiIHhsaW5rOmhyZWY9IiNtNDhiNTYwZDg1OSIvPiYjeGE7ICAgICA8dXNlIHN0eWxlPSJmaWxsOiAjZmYwMDAwOyBzdHJva2U6ICNmZmZmZmY7IHN0cm9rZS13aWR0aDogMC43NSIgeT0iNzQuOTE3ODcxIiB4PSI1MDguNzU4ODEzIiB4bGluazpocmVmPSIjbTQ4YjU2MGQ4NTkiLz4mI3hhOyAgICAgPHVzZSBzdHlsZT0iZmlsbDogI2ZmMDAwMDsgc3Ryb2tlOiAjZmZmZmZmOyBzdHJva2Utd2lkdGg6IDAuNzUiIHk9IjczLjkyMzEyNiIgeD0iNTE5LjExMTMxNyIgeGxpbms6aHJlZj0iI200OGI1NjBkODU5Ii8+JiN4YTsgICAgIDx1c2Ugc3R5bGU9ImZpbGw6ICNmZjAwMDA7IHN0cm9rZTogI2ZmZmZmZjsgc3Ryb2tlLXdpZHRoOiAwLjc1IiB5PSI3Ni45MDczNjEiIHg9IjUyOS40NjM4MjIiIHhsaW5rOmhyZWY9IiNtNDhiNTYwZDg1OSIvPiYjeGE7ICAgICA8dXNlIHN0eWxlPSJmaWxsOiAjZmYwMDAwOyBzdHJva2U6ICNmZmZmZmY7IHN0cm9rZS13aWR0aDogMC43NSIgeT0iODAuODg2MzQyIiB4PSI1MzkuODE2MzI3IiB4bGluazpocmVmPSIjbTQ4YjU2MGQ4NTkiLz4mI3hhOyAgICAgPHVzZSBzdHlsZT0iZmlsbDogI2ZmMDAwMDsgc3Ryb2tlOiAjZmZmZmZmOyBzdHJva2Utd2lkdGg6IDAuNzUiIHk9IjcyLjkyODQ3MSIgeD0iNTUwLjE2ODgzMSIgeGxpbms6aHJlZj0iI200OGI1NjBkODU5Ii8+JiN4YTsgICAgIDx1c2Ugc3R5bGU9ImZpbGw6ICNmZjAwMDA7IHN0cm9rZTogI2ZmZmZmZjsgc3Ryb2tlLXdpZHRoOiAwLjc1IiB5PSI2OS45NDQyMzYiIHg9IjU2MC41MjEzMzYiIHhsaW5rOmhyZWY9IiNtNDhiNTYwZDg1OSIvPiYjeGE7ICAgICA8dXNlIHN0eWxlPSJmaWxsOiAjZmYwMDAwOyBzdHJva2U6ICNmZmZmZmY7IHN0cm9rZS13aWR0aDogMC43NSIgeT0iNzUuOTEyNjE2IiB4PSI1NzAuODczODQiIHhsaW5rOmhyZWY9IiNtNDhiNTYwZDg1OSIvPiYjeGE7ICAgICA8dXNlIHN0eWxlPSJmaWxsOiAjZmYwMDAwOyBzdHJva2U6ICNmZmZmZmY7IHN0cm9rZS13aWR0aDogMC43NSIgeT0iNzguODk2ODUyIiB4PSI1ODEuMjI2MzQ1IiB4bGluazpocmVmPSIjbTQ4YjU2MGQ4NTkiLz4mI3hhOyAgICAgPHVzZSBzdHlsZT0iZmlsbDogI2ZmMDAwMDsgc3Ryb2tlOiAjZmZmZmZmOyBzdHJva2Utd2lkdGg6IDAuNzUiIHk9Ijc3LjkwMjEwNiIgeD0iNTkxLjU3ODg1IiB4bGluazpocmVmPSIjbTQ4YjU2MGQ4NTkiLz4mI3hhOyAgICAgPHVzZSBzdHlsZT0iZmlsbDogI2ZmMDAwMDsgc3Ryb2tlOiAjZmZmZmZmOyBzdHJva2Utd2lkdGg6IDAuNzUiIHk9Ijc0LjkxNzg3MSIgeD0iNjAxLjkzMTM1NCIgeGxpbms6aHJlZj0iI200OGI1NjBkODU5Ii8+JiN4YTsgICAgIDx1c2Ugc3R5bGU9ImZpbGw6ICNmZjAwMDA7IHN0cm9rZTogI2ZmZmZmZjsgc3Ryb2tlLXdpZHRoOiAwLjc1IiB5PSI3OC44OTY4NTIiIHg9IjYxMi4yODM4NTkiIHhsaW5rOmhyZWY9IiNtNDhiNTYwZDg1OSIvPiYjeGE7ICAgICA8dXNlIHN0eWxlPSJmaWxsOiAjZmYwMDAwOyBzdHJva2U6ICNmZmZmZmY7IHN0cm9rZS13aWR0aDogMC43NSIgeT0iNzYuOTA3MzYxIiB4PSI2MjIuNjM2MzY0IiB4bGluazpocmVmPSIjbTQ4YjU2MGQ4NTkiLz4mI3hhOyAgICA8L2c+JiN4YTsgICA8L2c+JiN4YTsgICA8ZyBpZD0ibGluZTJkXzE3Ij4mI3hhOyAgICA8cGF0aCBzdHlsZT0iZmlsbDogbm9uZTsgc3Ryb2tlOiAjMDAwMGZmOyBzdHJva2Utd2lkdGg6IDEuNTsgc3Ryb2tlLWxpbmVjYXA6IHJvdW5kIiBjbGlwLXBhdGg9InVybCgjcGI4NDc3YjFmNTgpIiBkPSJNIDExNS4zNjM2MzYgMTIxLjkxMzAxMSAmIzEwO0wgMTI1LjcxNjE0MSAxNTcuNDMxNTE4ICYjMTA7TCAxMzYuMDY4NjQ2IDE5My42NzAyNzcgJiMxMDtMIDE0Ni40MjExNSAyMTAuNTAzNjM2ICYjMTA7TCAxNTYuNzczNjU1IDIyNC4xNTMwMjggJiMxMDtMIDE2Ny4xMjYxNiAyMjUuNzIxNzc0ICYjMTA7TCAxNzcuNDc4NjY0IDIzNS40NTI1NzcgJiMxMDtMIDE4Ny44MzExNjkgMjM4LjU1Mzk2ICYjMTA7TCAxOTguMTgzNjczIDI0OC40MDc1NDkgJiMxMDtMIDIwOC41MzYxNzggMjQ5LjI5MjUxNSAmIzEwO0wgMjE4Ljg4ODY4MyAyNTUuNjA3OTY5ICYjMTA7TCAyMjkuMjQxMTg3IDI1Mi42NDg2NTQgJiMxMDtMIDIzOS41OTM2OTIgMjU2Ljk3OTE2NiAmIzEwO0wgMjQ5Ljk0NjE5NyAyNjEuMDc2NzQ5ICYjMTA7TCAyNjAuMjk4NzAxIDI2NC45NTI4NjIgJiMxMDtMIDI3MC42NTEyMDYgMjcwLjQ3MzM5NCAmIzEwO0wgMjgxLjAwMzcxMSAyNzMuMTIzODM0ICYjMTA7TCAyOTEuMzU2MjE1IDI3OS42NTQzICYjMTA7TCAzMDEuNzA4NzIgMjc2LjE5NjI5NCAmIzEwO0wgMzEyLjA2MTIyNCAyODMuMDM3OTk4ICYjMTA7TCAzMjIuNDEzNzI5IDI4My4xMzIzMTYgJiMxMDtMIDMzMi43NjYyMzQgMjg2LjM3Mzk0NiAmIzEwO0wgMzQzLjExODczOCAyOTEuMDM0MzQyICYjMTA7TCAzNTMuNDcxMjQzIDI5NS4wNDQ2MSAmIzEwO0wgMzYzLjgyMzc0OCAyOTQuMTE0MzUgJiMxMDtMIDM3NC4xNzYyNTIgMjk5LjMwNTA4OCAmIzEwO0wgMzg0LjUyODc1NyAzMDIuOTgyOTI2ICYjMTA7TCAzOTQuODgxMjYyIDMwNy40MjM4NTQgJiMxMDtMIDQwNS4yMzM3NjYgMzA5LjYxMTcxMSAmIzEwO0wgNDE1LjU4NjI3MSAzMTAuNDY3MzkgJiMxMDtMIDQyNS45Mzg3NzYgMzE0Ljc5MzA4MSAmIzEwO0wgNDM2LjI5MTI4IDMxNC45ODQ4MDkgJiMxMDtMIDQ0Ni42NDM3ODUgMzE5LjQ2ODY2NiAmIzEwO0wgNDU2Ljk5NjI4OSAzMjUuODA5OTUxICYjMTA7TCA0NjcuMzQ4Nzk0IDMyNS44MDYwNCAmIzEwO0wgNDc3LjcwMTI5OSAzMjcuMzQ0OTUyICYjMTA7TCA0ODguMDUzODAzIDMzMS4xMjg1NjggJiMxMDtMIDQ5OC40MDYzMDggMzM1LjI4MTI2OCAmIzEwO0wgNTA4Ljc1ODgxMyAzMzUuNDMwMzM4ICYjMTA7TCA1MTkuMTExMzE3IDMzOC40Mjc4NTMgJiMxMDtMIDUyOS40NjM4MjIgMzQwLjU2NjA1ICYjMTA7TCA1MzkuODE2MzI3IDM0MC4xOTY5NjYgJiMxMDtMIDU1MC4xNjg4MzEgMzQxLjM0MjE0NiAmIzEwO0wgNTYwLjUyMTMzNiAzNDQuMDk4MTgzICYjMTA7TCA1NzAuODczODQgMzQ1LjkxMTc3MSAmIzEwO0wgNTgxLjIyNjM0NSAzNDYuNzA3MzMxICYjMTA7TCA1OTEuNTc4ODUgMzQ4LjYxMzYgJiMxMDtMIDYwMS45MzEzNTQgMzQ4LjQzMjQyMyAmIzEwO0wgNjEyLjI4Mzg1OSAzNTAuNjIxMDk5ICYjMTA7TCA2MjIuNjM2MzY0IDM1MC45MTgxNDkiLz4mI3hhOyAgICA8ZGVmcz4mI3hhOyAgICAgPHBhdGggc3R5bGU9InN0cm9rZTogI2ZmZmZmZjsgc3Ryb2tlLXdpZHRoOiAwLjc1OyBzdHJva2UtbGluZWpvaW46IG1pdGVyIiBkPSJNIC0xLjUgMyAmIzEwO0wgMCAxLjUgJiMxMDtMIDEuNSAzICYjMTA7TCAzIDEuNSAmIzEwO0wgMS41IDAgJiMxMDtMIDMgLTEuNSAmIzEwO0wgMS41IC0zICYjMTA7TCAwIC0xLjUgJiMxMDtMIC0xLjUgLTMgJiMxMDtMIC0zIC0xLjUgJiMxMDtMIC0xLjUgMCAmIzEwO0wgLTMgMS41ICYjMTA7eiIgaWQ9Im1jZGIwNTI1M2RkIi8+JiN4YTsgICAgPC9kZWZzPiYjeGE7ICAgIDxnIGNsaXAtcGF0aD0idXJsKCNwYjg0NzdiMWY1OCkiPiYjeGE7ICAgICA8dXNlIHN0eWxlPSJmaWxsOiAjMDAwMGZmOyBzdHJva2U6ICNmZmZmZmY7IHN0cm9rZS13aWR0aDogMC43NTsgc3Ryb2tlLWxpbmVqb2luOiBtaXRlciIgeT0iMTIxLjkxMzAxMSIgeD0iMTE1LjM2MzYzNiIgeGxpbms6aHJlZj0iI21jZGIwNTI1M2RkIi8+JiN4YTsgICAgIDx1c2Ugc3R5bGU9ImZpbGw6ICMwMDAwZmY7IHN0cm9rZTogI2ZmZmZmZjsgc3Ryb2tlLXdpZHRoOiAwLjc1OyBzdHJva2UtbGluZWpvaW46IG1pdGVyIiB5PSIxNTcuNDMxNTE4IiB4PSIxMjUuNzE2MTQxIiB4bGluazpocmVmPSIjbWNkYjA1MjUzZGQiLz4mI3hhOyAgICAgPHVzZSBzdHlsZT0iZmlsbDogIzAwMDBmZjsgc3Ryb2tlOiAjZmZmZmZmOyBzdHJva2Utd2lkdGg6IDAuNzU7IHN0cm9rZS1saW5lam9pbjogbWl0ZXIiIHk9IjE5My42NzAyNzciIHg9IjEzNi4wNjg2NDYiIHhsaW5rOmhyZWY9IiNtY2RiMDUyNTNkZCIvPiYjeGE7ICAgICA8dXNlIHN0eWxlPSJmaWxsOiAjMDAwMGZmOyBzdHJva2U6ICNmZmZmZmY7IHN0cm9rZS13aWR0aDogMC43NTsgc3Ryb2tlLWxpbmVqb2luOiBtaXRlciIgeT0iMjEwLjUwMzYzNiIgeD0iMTQ2LjQyMTE1IiB4bGluazpocmVmPSIjbWNkYjA1MjUzZGQiLz4mI3hhOyAgICAgPHVzZSBzdHlsZT0iZmlsbDogIzAwMDBmZjsgc3Ryb2tlOiAjZmZmZmZmOyBzdHJva2Utd2lkdGg6IDAuNzU7IHN0cm9rZS1saW5lam9pbjogbWl0ZXIiIHk9IjIyNC4xNTMwMjgiIHg9IjE1Ni43NzM2NTUiIHhsaW5rOmhyZWY9IiNtY2RiMDUyNTNkZCIvPiYjeGE7ICAgICA8dXNlIHN0eWxlPSJmaWxsOiAjMDAwMGZmOyBzdHJva2U6ICNmZmZmZmY7IHN0cm9rZS13aWR0aDogMC43NTsgc3Ryb2tlLWxpbmVqb2luOiBtaXRlciIgeT0iMjI1LjcyMTc3NCIgeD0iMTY3LjEyNjE2IiB4bGluazpocmVmPSIjbWNkYjA1MjUzZGQiLz4mI3hhOyAgICAgPHVzZSBzdHlsZT0iZmlsbDogIzAwMDBmZjsgc3Ryb2tlOiAjZmZmZmZmOyBzdHJva2Utd2lkdGg6IDAuNzU7IHN0cm9rZS1saW5lam9pbjogbWl0ZXIiIHk9IjIzNS40NTI1NzciIHg9IjE3Ny40Nzg2NjQiIHhsaW5rOmhyZWY9IiNtY2RiMDUyNTNkZCIvPiYjeGE7ICAgICA8dXNlIHN0eWxlPSJmaWxsOiAjMDAwMGZmOyBzdHJva2U6ICNmZmZmZmY7IHN0cm9rZS13aWR0aDogMC43NTsgc3Ryb2tlLWxpbmVqb2luOiBtaXRlciIgeT0iMjM4LjU1Mzk2IiB4PSIxODcuODMxMTY5IiB4bGluazpocmVmPSIjbWNkYjA1MjUzZGQiLz4mI3hhOyAgICAgPHVzZSBzdHlsZT0iZmlsbDogIzAwMDBmZjsgc3Ryb2tlOiAjZmZmZmZmOyBzdHJva2Utd2lkdGg6IDAuNzU7IHN0cm9rZS1saW5lam9pbjogbWl0ZXIiIHk9IjI0OC40MDc1NDkiIHg9IjE5OC4xODM2NzMiIHhsaW5rOmhyZWY9IiNtY2RiMDUyNTNkZCIvPiYjeGE7ICAgICA8dXNlIHN0eWxlPSJmaWxsOiAjMDAwMGZmOyBzdHJva2U6ICNmZmZmZmY7IHN0cm9rZS13aWR0aDogMC43NTsgc3Ryb2tlLWxpbmVqb2luOiBtaXRlciIgeT0iMjQ5LjI5MjUxNSIgeD0iMjA4LjUzNjE3OCIgeGxpbms6aHJlZj0iI21jZGIwNTI1M2RkIi8+JiN4YTsgICAgIDx1c2Ugc3R5bGU9ImZpbGw6ICMwMDAwZmY7IHN0cm9rZTogI2ZmZmZmZjsgc3Ryb2tlLXdpZHRoOiAwLjc1OyBzdHJva2UtbGluZWpvaW46IG1pdGVyIiB5PSIyNTUuNjA3OTY5IiB4PSIyMTguODg4NjgzIiB4bGluazpocmVmPSIjbWNkYjA1MjUzZGQiLz4mI3hhOyAgICAgPHVzZSBzdHlsZT0iZmlsbDogIzAwMDBmZjsgc3Ryb2tlOiAjZmZmZmZmOyBzdHJva2Utd2lkdGg6IDAuNzU7IHN0cm9rZS1saW5lam9pbjogbWl0ZXIiIHk9IjI1Mi42NDg2NTQiIHg9IjIyOS4yNDExODciIHhsaW5rOmhyZWY9IiNtY2RiMDUyNTNkZCIvPiYjeGE7ICAgICA8dXNlIHN0eWxlPSJmaWxsOiAjMDAwMGZmOyBzdHJva2U6ICNmZmZmZmY7IHN0cm9rZS13aWR0aDogMC43NTsgc3Ryb2tlLWxpbmVqb2luOiBtaXRlciIgeT0iMjU2Ljk3OTE2NiIgeD0iMjM5LjU5MzY5MiIgeGxpbms6aHJlZj0iI21jZGIwNTI1M2RkIi8+JiN4YTsgICAgIDx1c2Ugc3R5bGU9ImZpbGw6ICMwMDAwZmY7IHN0cm9rZTogI2ZmZmZmZjsgc3Ryb2tlLXdpZHRoOiAwLjc1OyBzdHJva2UtbGluZWpvaW46IG1pdGVyIiB5PSIyNjEuMDc2NzQ5IiB4PSIyNDkuOTQ2MTk3IiB4bGluazpocmVmPSIjbWNkYjA1MjUzZGQiLz4mI3hhOyAgICAgPHVzZSBzdHlsZT0iZmlsbDogIzAwMDBmZjsgc3Ryb2tlOiAjZmZmZmZmOyBzdHJva2Utd2lkdGg6IDAuNzU7IHN0cm9rZS1saW5lam9pbjogbWl0ZXIiIHk9IjI2NC45NTI4NjIiIHg9IjI2MC4yOTg3MDEiIHhsaW5rOmhyZWY9IiNtY2RiMDUyNTNkZCIvPiYjeGE7ICAgICA8dXNlIHN0eWxlPSJmaWxsOiAjMDAwMGZmOyBzdHJva2U6ICNmZmZmZmY7IHN0cm9rZS13aWR0aDogMC43NTsgc3Ryb2tlLWxpbmVqb2luOiBtaXRlciIgeT0iMjcwLjQ3MzM5NCIgeD0iMjcwLjY1MTIwNiIgeGxpbms6aHJlZj0iI21jZGIwNTI1M2RkIi8+JiN4YTsgICAgIDx1c2Ugc3R5bGU9ImZpbGw6ICMwMDAwZmY7IHN0cm9rZTogI2ZmZmZmZjsgc3Ryb2tlLXdpZHRoOiAwLjc1OyBzdHJva2UtbGluZWpvaW46IG1pdGVyIiB5PSIyNzMuMTIzODM0IiB4PSIyODEuMDAzNzExIiB4bGluazpocmVmPSIjbWNkYjA1MjUzZGQiLz4mI3hhOyAgICAgPHVzZSBzdHlsZT0iZmlsbDogIzAwMDBmZjsgc3Ryb2tlOiAjZmZmZmZmOyBzdHJva2Utd2lkdGg6IDAuNzU7IHN0cm9rZS1saW5lam9pbjogbWl0ZXIiIHk9IjI3OS42NTQzIiB4PSIyOTEuMzU2MjE1IiB4bGluazpocmVmPSIjbWNkYjA1MjUzZGQiLz4mI3hhOyAgICAgPHVzZSBzdHlsZT0iZmlsbDogIzAwMDBmZjsgc3Ryb2tlOiAjZmZmZmZmOyBzdHJva2Utd2lkdGg6IDAuNzU7IHN0cm9rZS1saW5lam9pbjogbWl0ZXIiIHk9IjI3Ni4xOTYyOTQiIHg9IjMwMS43MDg3MiIgeGxpbms6aHJlZj0iI21jZGIwNTI1M2RkIi8+JiN4YTsgICAgIDx1c2Ugc3R5bGU9ImZpbGw6ICMwMDAwZmY7IHN0cm9rZTogI2ZmZmZmZjsgc3Ryb2tlLXdpZHRoOiAwLjc1OyBzdHJva2UtbGluZWpvaW46IG1pdGVyIiB5PSIyODMuMDM3OTk4IiB4PSIzMTIuMDYxMjI0IiB4bGluazpocmVmPSIjbWNkYjA1MjUzZGQiLz4mI3hhOyAgICAgPHVzZSBzdHlsZT0iZmlsbDogIzAwMDBmZjsgc3Ryb2tlOiAjZmZmZmZmOyBzdHJva2Utd2lkdGg6IDAuNzU7IHN0cm9rZS1saW5lam9pbjogbWl0ZXIiIHk9IjI4My4xMzIzMTYiIHg9IjMyMi40MTM3MjkiIHhsaW5rOmhyZWY9IiNtY2RiMDUyNTNkZCIvPiYjeGE7ICAgICA8dXNlIHN0eWxlPSJmaWxsOiAjMDAwMGZmOyBzdHJva2U6ICNmZmZmZmY7IHN0cm9rZS13aWR0aDogMC43NTsgc3Ryb2tlLWxpbmVqb2luOiBtaXRlciIgeT0iMjg2LjM3Mzk0NiIgeD0iMzMyLjc2NjIzNCIgeGxpbms6aHJlZj0iI21jZGIwNTI1M2RkIi8+JiN4YTsgICAgIDx1c2Ugc3R5bGU9ImZpbGw6ICMwMDAwZmY7IHN0cm9rZTogI2ZmZmZmZjsgc3Ryb2tlLXdpZHRoOiAwLjc1OyBzdHJva2UtbGluZWpvaW46IG1pdGVyIiB5PSIyOTEuMDM0MzQyIiB4PSIzNDMuMTE4NzM4IiB4bGluazpocmVmPSIjbWNkYjA1MjUzZGQiLz4mI3hhOyAgICAgPHVzZSBzdHlsZT0iZmlsbDogIzAwMDBmZjsgc3Ryb2tlOiAjZmZmZmZmOyBzdHJva2Utd2lkdGg6IDAuNzU7IHN0cm9rZS1saW5lam9pbjogbWl0ZXIiIHk9IjI5NS4wNDQ2MSIgeD0iMzUzLjQ3MTI0MyIgeGxpbms6aHJlZj0iI21jZGIwNTI1M2RkIi8+JiN4YTsgICAgIDx1c2Ugc3R5bGU9ImZpbGw6ICMwMDAwZmY7IHN0cm9rZTogI2ZmZmZmZjsgc3Ryb2tlLXdpZHRoOiAwLjc1OyBzdHJva2UtbGluZWpvaW46IG1pdGVyIiB5PSIyOTQuMTE0MzUiIHg9IjM2My44MjM3NDgiIHhsaW5rOmhyZWY9IiNtY2RiMDUyNTNkZCIvPiYjeGE7ICAgICA8dXNlIHN0eWxlPSJmaWxsOiAjMDAwMGZmOyBzdHJva2U6ICNmZmZmZmY7IHN0cm9rZS13aWR0aDogMC43NTsgc3Ryb2tlLWxpbmVqb2luOiBtaXRlciIgeT0iMjk5LjMwNTA4OCIgeD0iMzc0LjE3NjI1MiIgeGxpbms6aHJlZj0iI21jZGIwNTI1M2RkIi8+JiN4YTsgICAgIDx1c2Ugc3R5bGU9ImZpbGw6ICMwMDAwZmY7IHN0cm9rZTogI2ZmZmZmZjsgc3Ryb2tlLXdpZHRoOiAwLjc1OyBzdHJva2UtbGluZWpvaW46IG1pdGVyIiB5PSIzMDIuOTgyOTI2IiB4PSIzODQuNTI4NzU3IiB4bGluazpocmVmPSIjbWNkYjA1MjUzZGQiLz4mI3hhOyAgICAgPHVzZSBzdHlsZT0iZmlsbDogIzAwMDBmZjsgc3Ryb2tlOiAjZmZmZmZmOyBzdHJva2Utd2lkdGg6IDAuNzU7IHN0cm9rZS1saW5lam9pbjogbWl0ZXIiIHk9IjMwNy40MjM4NTQiIHg9IjM5NC44ODEyNjIiIHhsaW5rOmhyZWY9IiNtY2RiMDUyNTNkZCIvPiYjeGE7ICAgICA8dXNlIHN0eWxlPSJmaWxsOiAjMDAwMGZmOyBzdHJva2U6ICNmZmZmZmY7IHN0cm9rZS13aWR0aDogMC43NTsgc3Ryb2tlLWxpbmVqb2luOiBtaXRlciIgeT0iMzA5LjYxMTcxMSIgeD0iNDA1LjIzMzc2NiIgeGxpbms6aHJlZj0iI21jZGIwNTI1M2RkIi8+JiN4YTsgICAgIDx1c2Ugc3R5bGU9ImZpbGw6ICMwMDAwZmY7IHN0cm9rZTogI2ZmZmZmZjsgc3Ryb2tlLXdpZHRoOiAwLjc1OyBzdHJva2UtbGluZWpvaW46IG1pdGVyIiB5PSIzMTAuNDY3MzkiIHg9IjQxNS41ODYyNzEiIHhsaW5rOmhyZWY9IiNtY2RiMDUyNTNkZCIvPiYjeGE7ICAgICA8dXNlIHN0eWxlPSJmaWxsOiAjMDAwMGZmOyBzdHJva2U6ICNmZmZmZmY7IHN0cm9rZS13aWR0aDogMC43NTsgc3Ryb2tlLWxpbmVqb2luOiBtaXRlciIgeT0iMzE0Ljc5MzA4MSIgeD0iNDI1LjkzODc3NiIgeGxpbms6aHJlZj0iI21jZGIwNTI1M2RkIi8+JiN4YTsgICAgIDx1c2Ugc3R5bGU9ImZpbGw6ICMwMDAwZmY7IHN0cm9rZTogI2ZmZmZmZjsgc3Ryb2tlLXdpZHRoOiAwLjc1OyBzdHJva2UtbGluZWpvaW46IG1pdGVyIiB5PSIzMTQuOTg0ODA5IiB4PSI0MzYuMjkxMjgiIHhsaW5rOmhyZWY9IiNtY2RiMDUyNTNkZCIvPiYjeGE7ICAgICA8dXNlIHN0eWxlPSJmaWxsOiAjMDAwMGZmOyBzdHJva2U6ICNmZmZmZmY7IHN0cm9rZS13aWR0aDogMC43NTsgc3Ryb2tlLWxpbmVqb2luOiBtaXRlciIgeT0iMzE5LjQ2ODY2NiIgeD0iNDQ2LjY0Mzc4NSIgeGxpbms6aHJlZj0iI21jZGIwNTI1M2RkIi8+JiN4YTsgICAgIDx1c2Ugc3R5bGU9ImZpbGw6ICMwMDAwZmY7IHN0cm9rZTogI2ZmZmZmZjsgc3Ryb2tlLXdpZHRoOiAwLjc1OyBzdHJva2UtbGluZWpvaW46IG1pdGVyIiB5PSIzMjUuODA5OTUxIiB4PSI0NTYuOTk2Mjg5IiB4bGluazpocmVmPSIjbWNkYjA1MjUzZGQiLz4mI3hhOyAgICAgPHVzZSBzdHlsZT0iZmlsbDogIzAwMDBmZjsgc3Ryb2tlOiAjZmZmZmZmOyBzdHJva2Utd2lkdGg6IDAuNzU7IHN0cm9rZS1saW5lam9pbjogbWl0ZXIiIHk9IjMyNS44MDYwNCIgeD0iNDY3LjM0ODc5NCIgeGxpbms6aHJlZj0iI21jZGIwNTI1M2RkIi8+JiN4YTsgICAgIDx1c2Ugc3R5bGU9ImZpbGw6ICMwMDAwZmY7IHN0cm9rZTogI2ZmZmZmZjsgc3Ryb2tlLXdpZHRoOiAwLjc1OyBzdHJva2UtbGluZWpvaW46IG1pdGVyIiB5PSIzMjcuMzQ0OTUyIiB4PSI0NzcuNzAxMjk5IiB4bGluazpocmVmPSIjbWNkYjA1MjUzZGQiLz4mI3hhOyAgICAgPHVzZSBzdHlsZT0iZmlsbDogIzAwMDBmZjsgc3Ryb2tlOiAjZmZmZmZmOyBzdHJva2Utd2lkdGg6IDAuNzU7IHN0cm9rZS1saW5lam9pbjogbWl0ZXIiIHk9IjMzMS4xMjg1NjgiIHg9IjQ4OC4wNTM4MDMiIHhsaW5rOmhyZWY9IiNtY2RiMDUyNTNkZCIvPiYjeGE7ICAgICA8dXNlIHN0eWxlPSJmaWxsOiAjMDAwMGZmOyBzdHJva2U6ICNmZmZmZmY7IHN0cm9rZS13aWR0aDogMC43NTsgc3Ryb2tlLWxpbmVqb2luOiBtaXRlciIgeT0iMzM1LjI4MTI2OCIgeD0iNDk4LjQwNjMwOCIgeGxpbms6aHJlZj0iI21jZGIwNTI1M2RkIi8+JiN4YTsgICAgIDx1c2Ugc3R5bGU9ImZpbGw6ICMwMDAwZmY7IHN0cm9rZTogI2ZmZmZmZjsgc3Ryb2tlLXdpZHRoOiAwLjc1OyBzdHJva2UtbGluZWpvaW46IG1pdGVyIiB5PSIzMzUuNDMwMzM4IiB4PSI1MDguNzU4ODEzIiB4bGluazpocmVmPSIjbWNkYjA1MjUzZGQiLz4mI3hhOyAgICAgPHVzZSBzdHlsZT0iZmlsbDogIzAwMDBmZjsgc3Ryb2tlOiAjZmZmZmZmOyBzdHJva2Utd2lkdGg6IDAuNzU7IHN0cm9rZS1saW5lam9pbjogbWl0ZXIiIHk9IjMzOC40Mjc4NTMiIHg9IjUxOS4xMTEzMTciIHhsaW5rOmhyZWY9IiNtY2RiMDUyNTNkZCIvPiYjeGE7ICAgICA8dXNlIHN0eWxlPSJmaWxsOiAjMDAwMGZmOyBzdHJva2U6ICNmZmZmZmY7IHN0cm9rZS13aWR0aDogMC43NTsgc3Ryb2tlLWxpbmVqb2luOiBtaXRlciIgeT0iMzQwLjU2NjA1IiB4PSI1MjkuNDYzODIyIiB4bGluazpocmVmPSIjbWNkYjA1MjUzZGQiLz4mI3hhOyAgICAgPHVzZSBzdHlsZT0iZmlsbDogIzAwMDBmZjsgc3Ryb2tlOiAjZmZmZmZmOyBzdHJva2Utd2lkdGg6IDAuNzU7IHN0cm9rZS1saW5lam9pbjogbWl0ZXIiIHk9IjM0MC4xOTY5NjYiIHg9IjUzOS44MTYzMjciIHhsaW5rOmhyZWY9IiNtY2RiMDUyNTNkZCIvPiYjeGE7ICAgICA8dXNlIHN0eWxlPSJmaWxsOiAjMDAwMGZmOyBzdHJva2U6ICNmZmZmZmY7IHN0cm9rZS13aWR0aDogMC43NTsgc3Ryb2tlLWxpbmVqb2luOiBtaXRlciIgeT0iMzQxLjM0MjE0NiIgeD0iNTUwLjE2ODgzMSIgeGxpbms6aHJlZj0iI21jZGIwNTI1M2RkIi8+JiN4YTsgICAgIDx1c2Ugc3R5bGU9ImZpbGw6ICMwMDAwZmY7IHN0cm9rZTogI2ZmZmZmZjsgc3Ryb2tlLXdpZHRoOiAwLjc1OyBzdHJva2UtbGluZWpvaW46IG1pdGVyIiB5PSIzNDQuMDk4MTgzIiB4PSI1NjAuNTIxMzM2IiB4bGluazpocmVmPSIjbWNkYjA1MjUzZGQiLz4mI3hhOyAgICAgPHVzZSBzdHlsZT0iZmlsbDogIzAwMDBmZjsgc3Ryb2tlOiAjZmZmZmZmOyBzdHJva2Utd2lkdGg6IDAuNzU7IHN0cm9rZS1saW5lam9pbjogbWl0ZXIiIHk9IjM0NS45MTE3NzEiIHg9IjU3MC44NzM4NCIgeGxpbms6aHJlZj0iI21jZGIwNTI1M2RkIi8+JiN4YTsgICAgIDx1c2Ugc3R5bGU9ImZpbGw6ICMwMDAwZmY7IHN0cm9rZTogI2ZmZmZmZjsgc3Ryb2tlLXdpZHRoOiAwLjc1OyBzdHJva2UtbGluZWpvaW46IG1pdGVyIiB5PSIzNDYuNzA3MzMxIiB4PSI1ODEuMjI2MzQ1IiB4bGluazpocmVmPSIjbWNkYjA1MjUzZGQiLz4mI3hhOyAgICAgPHVzZSBzdHlsZT0iZmlsbDogIzAwMDBmZjsgc3Ryb2tlOiAjZmZmZmZmOyBzdHJva2Utd2lkdGg6IDAuNzU7IHN0cm9rZS1saW5lam9pbjogbWl0ZXIiIHk9IjM0OC42MTM2IiB4PSI1OTEuNTc4ODUiIHhsaW5rOmhyZWY9IiNtY2RiMDUyNTNkZCIvPiYjeGE7ICAgICA8dXNlIHN0eWxlPSJmaWxsOiAjMDAwMGZmOyBzdHJva2U6ICNmZmZmZmY7IHN0cm9rZS13aWR0aDogMC43NTsgc3Ryb2tlLWxpbmVqb2luOiBtaXRlciIgeT0iMzQ4LjQzMjQyMyIgeD0iNjAxLjkzMTM1NCIgeGxpbms6aHJlZj0iI21jZGIwNTI1M2RkIi8+JiN4YTsgICAgIDx1c2Ugc3R5bGU9ImZpbGw6ICMwMDAwZmY7IHN0cm9rZTogI2ZmZmZmZjsgc3Ryb2tlLXdpZHRoOiAwLjc1OyBzdHJva2UtbGluZWpvaW46IG1pdGVyIiB5PSIzNTAuNjIxMDk5IiB4PSI2MTIuMjgzODU5IiB4bGluazpocmVmPSIjbWNkYjA1MjUzZGQiLz4mI3hhOyAgICAgPHVzZSBzdHlsZT0iZmlsbDogIzAwMDBmZjsgc3Ryb2tlOiAjZmZmZmZmOyBzdHJva2Utd2lkdGg6IDAuNzU7IHN0cm9rZS1saW5lam9pbjogbWl0ZXIiIHk9IjM1MC45MTgxNDkiIHg9IjYyMi42MzYzNjQiIHhsaW5rOmhyZWY9IiNtY2RiMDUyNTNkZCIvPiYjeGE7ICAgIDwvZz4mI3hhOyAgIDwvZz4mI3hhOyAgIDxnIGlkPSJsaW5lMmRfMTgiLz4mI3hhOyAgIDxnIGlkPSJsaW5lMmRfMTkiLz4mI3hhOyAgIDxnIGlkPSJwYXRjaF8zIj4mI3hhOyAgICA8cGF0aCBzdHlsZT0iZmlsbDogbm9uZTsgc3Ryb2tlOiAjY2NjY2NjOyBzdHJva2Utd2lkdGg6IDEuMjU7IHN0cm9rZS1saW5lam9pbjogbWl0ZXI7IHN0cm9rZS1saW5lY2FwOiBzcXVhcmUiIGQ9Ik0gOTAgMzg0LjQ4ICYjMTA7TCA5MCA1MS44NCIvPiYjeGE7ICAgPC9nPiYjeGE7ICAgPGcgaWQ9InBhdGNoXzQiPiYjeGE7ICAgIDxwYXRoIHN0eWxlPSJmaWxsOiBub25lOyBzdHJva2U6ICNjY2NjY2M7IHN0cm9rZS13aWR0aDogMS4yNTsgc3Ryb2tlLWxpbmVqb2luOiBtaXRlcjsgc3Ryb2tlLWxpbmVjYXA6IHNxdWFyZSIgZD0iTSA2NDggMzg0LjQ4ICYjMTA7TCA2NDggNTEuODQiLz4mI3hhOyAgIDwvZz4mI3hhOyAgIDxnIGlkPSJwYXRjaF81Ij4mI3hhOyAgICA8cGF0aCBzdHlsZT0iZmlsbDogbm9uZTsgc3Ryb2tlOiAjY2NjY2NjOyBzdHJva2Utd2lkdGg6IDEuMjU7IHN0cm9rZS1saW5lam9pbjogbWl0ZXI7IHN0cm9rZS1saW5lY2FwOiBzcXVhcmUiIGQ9Ik0gOTAgMzg0LjQ4ICYjMTA7TCA2NDggMzg0LjQ4Ii8+JiN4YTsgICA8L2c+JiN4YTsgICA8ZyBpZD0icGF0Y2hfNiI+JiN4YTsgICAgPHBhdGggc3R5bGU9ImZpbGw6IG5vbmU7IHN0cm9rZTogI2NjY2NjYzsgc3Ryb2tlLXdpZHRoOiAxLjI1OyBzdHJva2UtbGluZWpvaW46IG1pdGVyOyBzdHJva2UtbGluZWNhcDogc3F1YXJlIiBkPSJNIDkwIDUxLjg0ICYjMTA7TCA2NDggNTEuODQiLz4mI3hhOyAgIDwvZz4mI3hhOyAgIDxnIGlkPSJ0ZXh0XzE4Ij4mI3hhOyAgICAmI3hhOyAgICA8ZyB0cmFuc2Zvcm09InRyYW5zbGF0ZSgzMzYuMDk2MjUgNDUuODQpIHNjYWxlKDAuMTYgLTAuMTYpIiBzdHlsZT0iZmlsbDogIzI2MjYyNiI+JiN4YTsgICAgIDxkZWZzPiYjeGE7ICAgICAgPHBhdGggdHJhbnNmb3JtPSJzY2FsZSgwLjAxNTYyNSkiIGQ9Ik0gNDc1IDAgJiMxMDtMIDQ3NSA0NTgxICYjMTA7TCAxMzg4IDQ1ODEgJiMxMDtMIDI0NzIgMTMzOCAmIzEwO1EgMjYyMiA4ODQgMjY5MSA2NTkgJiMxMDtRIDI3NjkgOTA5IDI5MzQgMTM5NCAmIzEwO0wgNDAzMSA0NTgxICYjMTA7TCA0ODQ3IDQ1ODEgJiMxMDtMIDQ4NDcgMCAmIzEwO0wgNDI2MyAwICYjMTA7TCA0MjYzIDM4MzQgJiMxMDtMIDI5MzEgMCAmIzEwO0wgMjM4NCAwICYjMTA7TCAxMDU5IDM5MDAgJiMxMDtMIDEwNTkgMCAmIzEwO0wgNDc1IDAgJiMxMDt6IiBpZD0iQXJpYWxNVC00ZCIvPiYjeGE7ICAgICAgPHBhdGggdHJhbnNmb3JtPSJzY2FsZSgwLjAxNTYyNSkiIGQ9Ik0gMjU3NSAwICYjMTA7TCAyNTc1IDQxOSAmIzEwO1EgMjI1OSAtNzUgMTY0NyAtNzUgJiMxMDtRIDEyNTAgLTc1IDkxNyAxNDQgJiMxMDtRIDU4NCAzNjMgNDAxIDc1NSAmIzEwO1EgMjE5IDExNDcgMjE5IDE2NTYgJiMxMDtRIDIxOSAyMTUzIDM4NCAyNTU4ICYjMTA7USA1NTAgMjk2MyA4ODEgMzE3OCAmIzEwO1EgMTIxMyAzMzk0IDE2MjIgMzM5NCAmIzEwO1EgMTkyMiAzMzk0IDIxNTYgMzI2NyAmIzEwO1EgMjM5MSAzMTQxIDI1MzggMjkzOCAmIzEwO0wgMjUzOCA0NTgxICYjMTA7TCAzMDk3IDQ1ODEgJiMxMDtMIDMwOTcgMCAmIzEwO0wgMjU3NSAwICYjMTA7eiYjMTA7TSA3OTcgMTY1NiAmIzEwO1EgNzk3IDEwMTkgMTA2NSA3MDMgJiMxMDtRIDEzMzQgMzg4IDE3MDAgMzg4ICYjMTA7USAyMDY5IDM4OCAyMzI2IDY4OSAmIzEwO1EgMjU4NCA5OTEgMjU4NCAxNjA5ICYjMTA7USAyNTg0IDIyOTEgMjMyMSAyNjA5ICYjMTA7USAyMDU5IDI5MjggMTY3NSAyOTI4ICYjMTA7USAxMzAwIDI5MjggMTA0OCAyNjIyICYjMTA7USA3OTcgMjMxNiA3OTcgMTY1NiAmIzEwO3oiIGlkPSJBcmlhbE1ULTY0Ii8+JiN4YTsgICAgICA8cGF0aCB0cmFuc2Zvcm09InNjYWxlKDAuMDE1NjI1KSIgZD0iTSAxNjUwIDUwMyAmIzEwO0wgMTczMSA2ICYjMTA7USAxNDk0IC00NCAxMzA2IC00NCAmIzEwO1EgMTAwMCAtNDQgODMxIDUzICYjMTA7USA2NjMgMTUwIDU5NCAzMDggJiMxMDtRIDUyNSA0NjYgNTI1IDk3MiAmIzEwO0wgNTI1IDI4ODEgJiMxMDtMIDExMyAyODgxICYjMTA7TCAxMTMgMzMxOSAmIzEwO0wgNTI1IDMzMTkgJiMxMDtMIDUyNSA0MTQxICYjMTA7TCAxMDg0IDQ0NzggJiMxMDtMIDEwODQgMzMxOSAmIzEwO0wgMTY1MCAzMzE5ICYjMTA7TCAxNjUwIDI4ODEgJiMxMDtMIDEwODQgMjg4MSAmIzEwO0wgMTA4NCA5NDEgJiMxMDtRIDEwODQgNzAwIDExMTQgNjMxICYjMTA7USAxMTQ0IDU2MyAxMjExIDUyMiAmIzEwO1EgMTI3OCA0ODEgMTQwMyA0ODEgJiMxMDtRIDE0OTcgNDgxIDE2NTAgNTAzICYjMTA7eiIgaWQ9IkFyaWFsTVQtNzQiLz4mI3hhOyAgICAgIDxwYXRoIHRyYW5zZm9ybT0ic2NhbGUoMC4wMTU2MjUpIiBkPSJNIDU1NiAwICYjMTA7TCA1NTYgMjg4MSAmIzEwO0wgNTkgMjg4MSAmIzEwO0wgNTkgMzMxOSAmIzEwO0wgNTU2IDMzMTkgJiMxMDtMIDU1NiAzNjcyICYjMTA7USA1NTYgNDAwNiA2MTYgNDE2OSAmIzEwO1EgNjk3IDQzODggOTAxIDQ1MjMgJiMxMDtRIDExMDYgNDY1OSAxNDc1IDQ2NTkgJiMxMDtRIDE3MTMgNDY1OSAyMDAwIDQ2MDMgJiMxMDtMIDE5MTYgNDExMyAmIzEwO1EgMTc0MSA0MTQ0IDE1ODQgNDE0NCAmIzEwO1EgMTMyOCA0MTQ0IDEyMjIgNDAzNCAmIzEwO1EgMTExNiAzOTI1IDExMTYgMzYyNSAmIzEwO0wgMTExNiAzMzE5ICYjMTA7TCAxNzYzIDMzMTkgJiMxMDtMIDE3NjMgMjg4MSAmIzEwO0wgMTExNiAyODgxICYjMTA7TCAxMTE2IDAgJiMxMDtMIDU1NiAwICYjMTA7eiIgaWQ9IkFyaWFsTVQtNjYiLz4mI3hhOyAgICAgPC9kZWZzPiYjeGE7ICAgICA8dXNlIHhsaW5rOmhyZWY9IiNBcmlhbE1ULTRkIi8+JiN4YTsgICAgIDx1c2UgeD0iODMuMzAwNzgxIiB4bGluazpocmVmPSIjQXJpYWxNVC02ZiIvPiYjeGE7ICAgICA8dXNlIHg9IjEzOC45MTYwMTYiIHhsaW5rOmhyZWY9IiNBcmlhbE1ULTY0Ii8+JiN4YTsgICAgIDx1c2UgeD0iMTk0LjUzMTI1IiB4bGluazpocmVmPSIjQXJpYWxNVC02NSIvPiYjeGE7ICAgICA8dXNlIHg9IjI1MC4xNDY0ODQiIHhsaW5rOmhyZWY9IiNBcmlhbE1ULTZjIi8+JiN4YTsgICAgIDx1c2UgeD0iMjcyLjM2MzI4MSIgeGxpbms6aHJlZj0iI0FyaWFsTVQtMzAiLz4mI3hhOyAgICAgPHVzZSB4PSIzMjcuOTc4NTE2IiB4bGluazpocmVmPSIjQXJpYWxNVC0yZSIvPiYjeGE7ICAgICA8dXNlIHg9IjM1NS43NjE3MTkiIHhsaW5rOmhyZWY9IiNBcmlhbE1ULTc0Ii8+JiN4YTsgICAgIDx1c2UgeD0iMzgzLjU0NDkyMiIgeGxpbms6aHJlZj0iI0FyaWFsTVQtNjYiLz4mI3hhOyAgICA8L2c+JiN4YTsgICA8L2c+JiN4YTsgICA8ZyBpZD0ibGVnZW5kXzEiPiYjeGE7ICAgIDxnIGlkPSJwYXRjaF83Ij4mI3hhOyAgICAgPHBhdGggc3R5bGU9ImZpbGw6ICNmZmZmZmY7IG9wYWNpdHk6IDAuODsgc3Ryb2tlOiAjY2NjY2NjOyBzdHJva2UtbGluZWpvaW46IG1pdGVyIiBkPSJNIDk3LjcgMTA5LjI3NzUgJiMxMDtMIDIyOC4wODQzNzUgMTA5LjI3NzUgJiMxMDtRIDIzMC4yODQzNzUgMTA5LjI3NzUgMjMwLjI4NDM3NSAxMDcuMDc3NSAmIzEwO0wgMjMwLjI4NDM3NSA1OS41NCAmIzEwO1EgMjMwLjI4NDM3NSA1Ny4zNCAyMjguMDg0Mzc1IDU3LjM0ICYjMTA7TCA5Ny43IDU3LjM0ICYjMTA7USA5NS41IDU3LjM0IDk1LjUgNTkuNTQgJiMxMDtMIDk1LjUgMTA3LjA3NzUgJiMxMDtRIDk1LjUgMTA5LjI3NzUgOTcuNyAxMDkuMjc3NSAmIzEwO3oiLz4mI3hhOyAgICA8L2c+JiN4YTsgICAgPGcgaWQ9InRleHRfMTkiPiYjeGE7ICAgICAmI3hhOyAgICAgPGcgdHJhbnNmb3JtPSJ0cmFuc2xhdGUoMTQ1LjE5ODk4NCA3MS4wNDUxNTYpIHNjYWxlKDAuMTMgLTAuMTMpIiBzdHlsZT0iZmlsbDogIzI2MjYyNiI+JiN4YTsgICAgICA8ZGVmcz4mI3hhOyAgICAgICA8cGF0aCB0cmFuc2Zvcm09InNjYWxlKDAuMDE1NjI1KSIgZD0iTSA0MTYgMCAmIzEwO0wgNDE2IDMzMTkgJiMxMDtMIDkyMiAzMzE5ICYjMTA7TCA5MjIgMjgxNiAmIzEwO1EgMTExNiAzMTY5IDEyODAgMzI4MSAmIzEwO1EgMTQ0NCAzMzk0IDE2NDEgMzM5NCAmIzEwO1EgMTkyNSAzMzk0IDIyMTkgMzIxMyAmIzEwO0wgMjAyNSAyNjkxICYjMTA7USAxODE5IDI4MTMgMTYxMyAyODEzICYjMTA7USAxNDI4IDI4MTMgMTI4MSAyNzAyICYjMTA7USAxMTM0IDI1OTEgMTA3MiAyMzk0ICYjMTA7USA5NzggMjA5NCA5NzggMTczOCAmIzEwO0wgOTc4IDAgJiMxMDtMIDQxNiAwICYjMTA7eiIgaWQ9IkFyaWFsTVQtNzIiLz4mI3hhOyAgICAgICA8cGF0aCB0cmFuc2Zvcm09InNjYWxlKDAuMDE1NjI1KSIgZD0iTSA0MjUgMzkzNCAmIzEwO0wgNDI1IDQ1ODEgJiMxMDtMIDk4OCA0NTgxICYjMTA7TCA5ODggMzkzNCAmIzEwO0wgNDI1IDM5MzQgJiMxMDt6JiMxMDtNIDQyNSAwICYjMTA7TCA0MjUgMzMxOSAmIzEwO0wgOTg4IDMzMTkgJiMxMDtMIDk4OCAwICYjMTA7TCA0MjUgMCAmIzEwO3oiIGlkPSJBcmlhbE1ULTY5Ii8+JiN4YTsgICAgICA8L2RlZnM+JiN4YTsgICAgICA8dXNlIHhsaW5rOmhyZWY9IiNBcmlhbE1ULTRkIi8+JiN4YTsgICAgICA8dXNlIHg9IjgzLjMwMDc4MSIgeGxpbms6aHJlZj0iI0FyaWFsTVQtNjUiLz4mI3hhOyAgICAgIDx1c2UgeD0iMTM4LjkxNjAxNiIgeGxpbms6aHJlZj0iI0FyaWFsTVQtNzQiLz4mI3hhOyAgICAgIDx1c2UgeD0iMTY2LjY5OTIxOSIgeGxpbms6aHJlZj0iI0FyaWFsTVQtNzIiLz4mI3hhOyAgICAgIDx1c2UgeD0iMjAwIiB4bGluazpocmVmPSIjQXJpYWxNVC02OSIvPiYjeGE7ICAgICAgPHVzZSB4PSIyMjIuMjE2Nzk3IiB4bGluazpocmVmPSIjQXJpYWxNVC02MyIvPiYjeGE7ICAgICA8L2c+JiN4YTsgICAgPC9nPiYjeGE7ICAgIDxnIGlkPSJsaW5lMmRfMjAiPiYjeGE7ICAgICA8cGF0aCBzdHlsZT0iZmlsbDogbm9uZTsgc3Ryb2tlOiAjZmYwMDAwOyBzdHJva2Utd2lkdGg6IDEuNTsgc3Ryb2tlLWxpbmVjYXA6IHJvdW5kIiBkPSJNIDk5LjkgODMuMTUyNSAmIzEwO0wgMTEwLjkgODMuMTUyNSAmIzEwO0wgMTIxLjkgODMuMTUyNSIvPiYjeGE7ICAgICA8ZGVmcz4mI3hhOyAgICAgIDxwYXRoIHN0eWxlPSJzdHJva2U6ICNmZjAwMDAiIGQ9Ik0gMCAzICYjMTA7QyAwLjc5NTYwOSAzIDEuNTU4NzQgMi42ODM5MDEgMi4xMjEzMiAyLjEyMTMyICYjMTA7QyAyLjY4MzkwMSAxLjU1ODc0IDMgMC43OTU2MDkgMyAwICYjMTA7QyAzIC0wLjc5NTYwOSAyLjY4MzkwMSAtMS41NTg3NCAyLjEyMTMyIC0yLjEyMTMyICYjMTA7QyAxLjU1ODc0IC0yLjY4MzkwMSAwLjc5NTYwOSAtMyAwIC0zICYjMTA7QyAtMC43OTU2MDkgLTMgLTEuNTU4NzQgLTIuNjgzOTAxIC0yLjEyMTMyIC0yLjEyMTMyICYjMTA7QyAtMi42ODM5MDEgLTEuNTU4NzQgLTMgLTAuNzk1NjA5IC0zIDAgJiMxMDtDIC0zIDAuNzk1NjA5IC0yLjY4MzkwMSAxLjU1ODc0IC0yLjEyMTMyIDIuMTIxMzIgJiMxMDtDIC0xLjU1ODc0IDIuNjgzOTAxIC0wLjc5NTYwOSAzIDAgMyAmIzEwO3oiIGlkPSJtNGI2ZjQzZGZmMCIvPiYjeGE7ICAgICA8L2RlZnM+JiN4YTsgICAgIDxnPiYjeGE7ICAgICAgPHVzZSBzdHlsZT0iZmlsbDogI2ZmMDAwMDsgc3Ryb2tlOiAjZmYwMDAwIiB5PSI4My4xNTI1IiB4PSIxMTAuOSIgeGxpbms6aHJlZj0iI200YjZmNDNkZmYwIi8+JiN4YTsgICAgIDwvZz4mI3hhOyAgICA8L2c+JiN4YTsgICAgPGcgaWQ9InRleHRfMjAiPiYjeGE7ICAgICAmI3hhOyAgICAgPGcgdHJhbnNmb3JtPSJ0cmFuc2xhdGUoMTMwLjcgODcuMDAyNSkgc2NhbGUoMC4xMSAtMC4xMSkiIHN0eWxlPSJmaWxsOiAjMjYyNjI2Ij4mI3hhOyAgICAgIDxkZWZzPiYjeGE7ICAgICAgIDxwYXRoIHRyYW5zZm9ybT0ic2NhbGUoMC4wMTU2MjUpIiBkPSJNIDQyMiAwICYjMTA7TCA0MjIgMzMxOSAmIzEwO0wgOTI4IDMzMTkgJiMxMDtMIDkyOCAyODQ3ICYjMTA7USAxMjk0IDMzOTQgMTk4NCAzMzk0ICYjMTA7USAyMjg0IDMzOTQgMjUzNiAzMjg2ICYjMTA7USAyNzg4IDMxNzggMjkxMyAzMDAzICYjMTA7USAzMDM4IDI4MjggMzA4OCAyNTg4ICYjMTA7USAzMTE5IDI0MzEgMzExOSAyMDQxICYjMTA7TCAzMTE5IDAgJiMxMDtMIDI1NTYgMCAmIzEwO0wgMjU1NiAyMDE5ICYjMTA7USAyNTU2IDIzNjMgMjQ5MCAyNTMzICYjMTA7USAyNDI1IDI3MDMgMjI1OCAyODA0ICYjMTA7USAyMDkxIDI5MDYgMTg2NiAyOTA2ICYjMTA7USAxNTA2IDI5MDYgMTI0NSAyNjc4ICYjMTA7USA5ODQgMjQ1MCA5ODQgMTgxMyAmIzEwO0wgOTg0IDAgJiMxMDtMIDQyMiAwICYjMTA7eiIgaWQ9IkFyaWFsTVQtNmUiLz4mI3hhOyAgICAgICA8cGF0aCB0cmFuc2Zvcm09InNjYWxlKDAuMDE1NjI1KSIgaWQ9IkFyaWFsTVQtMjAiLz4mI3hhOyAgICAgICA8cGF0aCB0cmFuc2Zvcm09InNjYWxlKDAuMDE1NjI1KSIgZD0iTSAtOSAwICYjMTA7TCAxNzUwIDQ1ODEgJiMxMDtMIDI0MDMgNDU4MSAmIzEwO0wgNDI3OCAwICYjMTA7TCAzNTg4IDAgJiMxMDtMIDMwNTMgMTM4OCAmIzEwO0wgMTEzOCAxMzg4ICYjMTA7TCA2MzQgMCAmIzEwO0wgLTkgMCAmIzEwO3omIzEwO00gMTMxMyAxODgxICYjMTA7TCAyODY2IDE4ODEgJiMxMDtMIDIzODggMzE1MCAmIzEwO1EgMjE2OSAzNzI4IDIwNjMgNDEwMCAmIzEwO1EgMTk3NSAzNjU5IDE4MTYgMzIyNSAmIzEwO0wgMTMxMyAxODgxICYjMTA7eiIgaWQ9IkFyaWFsTVQtNDEiLz4mI3hhOyAgICAgICA8cGF0aCB0cmFuc2Zvcm09InNjYWxlKDAuMDE1NjI1KSIgZD0iTSAzOTcgLTEyNzggJiMxMDtMIDMzNCAtNzUwICYjMTA7USA1MTkgLTgwMCA2NTYgLTgwMCAmIzEwO1EgODQ0IC04MDAgOTU2IC03MzcgJiMxMDtRIDEwNjkgLTY3NSAxMTQxIC01NjMgJiMxMDtRIDExOTQgLTQ3OCAxMzEzIC0xNDQgJiMxMDtRIDEzMjggLTk3IDEzNjMgLTYgJiMxMDtMIDEwMyAzMzE5ICYjMTA7TCA3MDkgMzMxOSAmIzEwO0wgMTQwMCAxMzk3ICYjMTA7USAxNTM0IDEwMzEgMTY0MSA2MjggJiMxMDtRIDE3MzggMTAxNiAxODcyIDEzODQgJiMxMDtMIDI1ODEgMzMxOSAmIzEwO0wgMzE0NCAzMzE5ICYjMTA7TCAxODgxIC01NiAmIzEwO1EgMTY3OCAtNjAzIDE1NjYgLTgwOSAmIzEwO1EgMTQxNiAtMTA4OCAxMjIyIC0xMjE3ICYjMTA7USAxMDI4IC0xMzQ3IDc1OSAtMTM0NyAmIzEwO1EgNTk3IC0xMzQ3IDM5NyAtMTI3OCAmIzEwO3oiIGlkPSJBcmlhbE1ULTc5Ii8+JiN4YTsgICAgICA8L2RlZnM+JiN4YTsgICAgICA8dXNlIHhsaW5rOmhyZWY9IiNBcmlhbE1ULTU2Ii8+JiN4YTsgICAgICA8dXNlIHg9IjU5LjMyNDIxOSIgeGxpbms6aHJlZj0iI0FyaWFsTVQtNjEiLz4mI3hhOyAgICAgIDx1c2UgeD0iMTE0LjkzOTQ1MyIgeGxpbms6aHJlZj0iI0FyaWFsTVQtNmMiLz4mI3hhOyAgICAgIDx1c2UgeD0iMTM3LjE1NjI1IiB4bGluazpocmVmPSIjQXJpYWxNVC02OSIvPiYjeGE7ICAgICAgPHVzZSB4PSIxNTkuMzczMDQ3IiB4bGluazpocmVmPSIjQXJpYWxNVC02NCIvPiYjeGE7ICAgICAgPHVzZSB4PSIyMTQuOTg4MjgxIiB4bGluazpocmVmPSIjQXJpYWxNVC02MSIvPiYjeGE7ICAgICAgPHVzZSB4PSIyNzAuNjAzNTE2IiB4bGluazpocmVmPSIjQXJpYWxNVC03NCIvPiYjeGE7ICAgICAgPHVzZSB4PSIyOTguMzg2NzE5IiB4bGluazpocmVmPSIjQXJpYWxNVC02OSIvPiYjeGE7ICAgICAgPHVzZSB4PSIzMjAuNjAzNTE2IiB4bGluazpocmVmPSIjQXJpYWxNVC02ZiIvPiYjeGE7ICAgICAgPHVzZSB4PSIzNzYuMjE4NzUiIHhsaW5rOmhyZWY9IiNBcmlhbE1ULTZlIi8+JiN4YTsgICAgICA8dXNlIHg9IjQzMS44MzM5ODQiIHhsaW5rOmhyZWY9IiNBcmlhbE1ULTIwIi8+JiN4YTsgICAgICA8dXNlIHg9IjQ1NC4xMTcxODgiIHhsaW5rOmhyZWY9IiNBcmlhbE1ULTQxIi8+JiN4YTsgICAgICA8dXNlIHg9IjUyMC44MTY0MDYiIHhsaW5rOmhyZWY9IiNBcmlhbE1ULTYzIi8+JiN4YTsgICAgICA8dXNlIHg9IjU3MC44MTY0MDYiIHhsaW5rOmhyZWY9IiNBcmlhbE1ULTYzIi8+JiN4YTsgICAgICA8dXNlIHg9IjYyMC44MTY0MDYiIHhsaW5rOmhyZWY9IiNBcmlhbE1ULTc1Ii8+JiN4YTsgICAgICA8dXNlIHg9IjY3Ni40MzE2NDEiIHhsaW5rOmhyZWY9IiNBcmlhbE1ULTcyIi8+JiN4YTsgICAgICA8dXNlIHg9IjcwOS43MzI0MjIiIHhsaW5rOmhyZWY9IiNBcmlhbE1ULTYxIi8+JiN4YTsgICAgICA8dXNlIHg9Ijc2NS4zNDc2NTYiIHhsaW5rOmhyZWY9IiNBcmlhbE1ULTYzIi8+JiN4YTsgICAgICA8dXNlIHg9IjgxNS4zNDc2NTYiIHhsaW5rOmhyZWY9IiNBcmlhbE1ULTc5Ii8+JiN4YTsgICAgIDwvZz4mI3hhOyAgICA8L2c+JiN4YTsgICAgPGcgaWQ9ImxpbmUyZF8yMSI+JiN4YTsgICAgIDxwYXRoIHN0eWxlPSJmaWxsOiBub25lOyBzdHJva2U6ICMwMDAwZmY7IHN0cm9rZS13aWR0aDogMS41OyBzdHJva2UtbGluZWNhcDogcm91bmQiIGQ9Ik0gOTkuOSA5OC44NDEyNSAmIzEwO0wgMTEwLjkgOTguODQxMjUgJiMxMDtMIDEyMS45IDk4Ljg0MTI1Ii8+JiN4YTsgICAgIDxkZWZzPiYjeGE7ICAgICAgPHBhdGggc3R5bGU9InN0cm9rZTogIzAwMDBmZjsgc3Ryb2tlLWxpbmVqb2luOiBtaXRlciIgZD0iTSAtMS41IDMgJiMxMDtMIDAgMS41ICYjMTA7TCAxLjUgMyAmIzEwO0wgMyAxLjUgJiMxMDtMIDEuNSAwICYjMTA7TCAzIC0xLjUgJiMxMDtMIDEuNSAtMyAmIzEwO0wgMCAtMS41ICYjMTA7TCAtMS41IC0zICYjMTA7TCAtMyAtMS41ICYjMTA7TCAtMS41IDAgJiMxMDtMIC0zIDEuNSAmIzEwO3oiIGlkPSJtMGFjMTljMmVkNCIvPiYjeGE7ICAgICA8L2RlZnM+JiN4YTsgICAgIDxnPiYjeGE7ICAgICAgPHVzZSBzdHlsZT0iZmlsbDogIzAwMDBmZjsgc3Ryb2tlOiAjMDAwMGZmOyBzdHJva2UtbGluZWpvaW46IG1pdGVyIiB5PSI5OC44NDEyNSIgeD0iMTEwLjkiIHhsaW5rOmhyZWY9IiNtMGFjMTljMmVkNCIvPiYjeGE7ICAgICA8L2c+JiN4YTsgICAgPC9nPiYjeGE7ICAgIDxnIGlkPSJ0ZXh0XzIxIj4mI3hhOyAgICAgJiN4YTsgICAgIDxnIHRyYW5zZm9ybT0idHJhbnNsYXRlKDEzMC43IDEwMi42OTEyNSkgc2NhbGUoMC4xMSAtMC4xMSkiIHN0eWxlPSJmaWxsOiAjMjYyNjI2Ij4mI3hhOyAgICAgIDxkZWZzPiYjeGE7ICAgICAgIDxwYXRoIHRyYW5zZm9ybT0ic2NhbGUoMC4wMTU2MjUpIiBkPSJNIDQ2OSAwICYjMTA7TCA0NjkgNDU4MSAmIzEwO0wgMTA3NSA0NTgxICYjMTA7TCAxMDc1IDU0MSAmIzEwO0wgMzMzMSA1NDEgJiMxMDtMIDMzMzEgMCAmIzEwO0wgNDY5IDAgJiMxMDt6IiBpZD0iQXJpYWxNVC00YyIvPiYjeGE7ICAgICAgIDxwYXRoIHRyYW5zZm9ybT0ic2NhbGUoMC4wMTU2MjUpIiBkPSJNIDE5NyA5OTEgJiMxMDtMIDc1MyAxMDc4ICYjMTA7USA4MDAgNzQ0IDEwMTQgNTY2ICYjMTA7USAxMjI4IDM4OCAxNjEzIDM4OCAmIzEwO1EgMjAwMCAzODggMjE4NyA1NDUgJiMxMDtRIDIzNzUgNzAzIDIzNzUgOTE2ICYjMTA7USAyMzc1IDExMDYgMjIwOSAxMjE2ICYjMTA7USAyMDk0IDEyOTEgMTYzNCAxNDA2ICYjMTA7USAxMDE2IDE1NjMgNzc3IDE2NzcgJiMxMDtRIDUzOCAxNzkxIDQxNCAxOTkyICYjMTA7USAyOTEgMjE5NCAyOTEgMjQzOCAmIzEwO1EgMjkxIDI2NTkgMzkyIDI4NDggJiMxMDtRIDQ5NCAzMDM4IDY2OSAzMTYzICYjMTA7USA4MDAgMzI1OSAxMDI2IDMzMjYgJiMxMDtRIDEyNTMgMzM5NCAxNTEzIDMzOTQgJiMxMDtRIDE5MDMgMzM5NCAyMTk4IDMyODEgJiMxMDtRIDI0OTQgMzE2OSAyNjM0IDI5NzYgJiMxMDtRIDI3NzUgMjc4NCAyODI4IDI0NjMgJiMxMDtMIDIyNzggMjM4OCAmIzEwO1EgMjI0MSAyNjQ0IDIwNjEgMjc4NyAmIzEwO1EgMTg4MSAyOTMxIDE1NTMgMjkzMSAmIzEwO1EgMTE2NiAyOTMxIDEwMDAgMjgwMyAmIzEwO1EgODM0IDI2NzUgODM0IDI1MDMgJiMxMDtRIDgzNCAyMzk0IDkwMyAyMzA2ICYjMTA7USA5NzIgMjIxNiAxMTE5IDIxNTYgJiMxMDtRIDEyMDMgMjEyNSAxNjE2IDIwMTMgJiMxMDtRIDIyMTMgMTg1MyAyNDQ4IDE3NTEgJiMxMDtRIDI2ODQgMTY1MCAyODE4IDE0NTYgJiMxMDtRIDI5NTMgMTI2MyAyOTUzIDk3NSAmIzEwO1EgMjk1MyA2OTQgMjc4OSA0NDUgJiMxMDtRIDI2MjUgMTk3IDIzMTUgNjEgJiMxMDtRIDIwMDYgLTc1IDE2MTYgLTc1ICYjMTA7USA5NjkgLTc1IDYzMCAxOTQgJiMxMDtRIDI5MSA0NjMgMTk3IDk5MSAmIzEwO3oiIGlkPSJBcmlhbE1ULTczIi8+JiN4YTsgICAgICA8L2RlZnM+JiN4YTsgICAgICA8dXNlIHhsaW5rOmhyZWY9IiNBcmlhbE1ULTU2Ii8+JiN4YTsgICAgICA8dXNlIHg9IjU5LjMyNDIxOSIgeGxpbms6aHJlZj0iI0FyaWFsTVQtNjEiLz4mI3hhOyAgICAgIDx1c2UgeD0iMTE0LjkzOTQ1MyIgeGxpbms6aHJlZj0iI0FyaWFsTVQtNmMiLz4mI3hhOyAgICAgIDx1c2UgeD0iMTM3LjE1NjI1IiB4bGluazpocmVmPSIjQXJpYWxNVC02OSIvPiYjeGE7ICAgICAgPHVzZSB4PSIxNTkuMzczMDQ3IiB4bGluazpocmVmPSIjQXJpYWxNVC02NCIvPiYjeGE7ICAgICAgPHVzZSB4PSIyMTQuOTg4MjgxIiB4bGluazpocmVmPSIjQXJpYWxNVC02MSIvPiYjeGE7ICAgICAgPHVzZSB4PSIyNzAuNjAzNTE2IiB4bGluazpocmVmPSIjQXJpYWxNVC03NCIvPiYjeGE7ICAgICAgPHVzZSB4PSIyOTguMzg2NzE5IiB4bGluazpocmVmPSIjQXJpYWxNVC02OSIvPiYjeGE7ICAgICAgPHVzZSB4PSIzMjAuNjAzNTE2IiB4bGluazpocmVmPSIjQXJpYWxNVC02ZiIvPiYjeGE7ICAgICAgPHVzZSB4PSIzNzYuMjE4NzUiIHhsaW5rOmhyZWY9IiNBcmlhbE1ULTZlIi8+JiN4YTsgICAgICA8dXNlIHg9IjQzMS44MzM5ODQiIHhsaW5rOmhyZWY9IiNBcmlhbE1ULTIwIi8+JiN4YTsgICAgICA8dXNlIHg9IjQ1OS42MTcxODgiIHhsaW5rOmhyZWY9IiNBcmlhbE1ULTRjIi8+JiN4YTsgICAgICA8dXNlIHg9IjUxNS4yMzI0MjIiIHhsaW5rOmhyZWY9IiNBcmlhbE1ULTZmIi8+JiN4YTsgICAgICA8dXNlIHg9IjU3MC44NDc2NTYiIHhsaW5rOmhyZWY9IiNBcmlhbE1ULTczIi8+JiN4YTsgICAgICA8dXNlIHg9IjYyMC44NDc2NTYiIHhsaW5rOmhyZWY9IiNBcmlhbE1ULTczIi8+JiN4YTsgICAgIDwvZz4mI3hhOyAgICA8L2c+JiN4YTsgICA8L2c+JiN4YTsgIDwvZz4mI3hhOyA8L2c+JiN4YTsgPGRlZnM+JiN4YTsgIDxjbGlwUGF0aCBpZD0icGI4NDc3YjFmNTgiPiYjeGE7ICAgPHJlY3QgaGVpZ2h0PSIzMzIuNjQiIHdpZHRoPSI1NTgiIHk9IjUxLjg0IiB4PSI5MCIvPiYjeGE7ICA8L2NsaXBQYXRoPiYjeGE7IDwvZGVmcz4mI3hhOzwvc3ZnPg==;" vertex="1" parent="XdAkhKP-J2ckDoqyLxTf-3">
          <mxGeometry x="690" width="720" height="432" as="geometry" />
        </mxCell>
        <mxCell id="XdAkhKP-J2ckDoqyLxTf-4" value="&lt;font style=&quot;font-size: 16px;&quot;&gt;CNN层数：2&lt;/font&gt;" style="rounded=0;whiteSpace=wrap;html=1;fillColor=default;strokeColor=none;" vertex="1" parent="XdAkhKP-J2ckDoqyLxTf-3">
          <mxGeometry x="320" width="120" height="50" as="geometry" />
        </mxCell>
        <mxCell id="XdAkhKP-J2ckDoqyLxTf-5" value="&lt;font style=&quot;font-size: 16px;&quot;&gt;CNN层数：0&lt;/font&gt;" style="rounded=0;whiteSpace=wrap;html=1;fillColor=default;strokeColor=none;" vertex="1" parent="XdAkhKP-J2ckDoqyLxTf-3">
          <mxGeometry x="1000" width="120" height="50" as="geometry" />
        </mxCell>
        <mxCell id="XdAkhKP-J2ckDoqyLxTf-6" value="" style="endArrow=none;dashed=1;html=1;dashPattern=1 3;strokeWidth=2;rounded=0;entryX=0.351;entryY=0.116;entryDx=0;entryDy=0;entryPerimeter=0;" edge="1" parent="XdAkhKP-J2ckDoqyLxTf-3">
          <mxGeometry width="50" height="50" relative="1" as="geometry">
            <mxPoint x="219" y="383" as="sourcePoint" />
            <mxPoint x="218.72000000000003" y="50.111999999999966" as="targetPoint" />
          </mxGeometry>
        </mxCell>
        <mxCell id="XdAkhKP-J2ckDoqyLxTf-7" value="" style="endArrow=none;dashed=1;html=1;dashPattern=1 3;strokeWidth=2;rounded=0;entryX=0.351;entryY=0.116;entryDx=0;entryDy=0;entryPerimeter=0;" edge="1" parent="XdAkhKP-J2ckDoqyLxTf-3">
          <mxGeometry width="50" height="50" relative="1" as="geometry">
            <mxPoint x="1106" y="385" as="sourcePoint" />
            <mxPoint x="1106" y="52" as="targetPoint" />
          </mxGeometry>
        </mxCell>
      </root>
    </mxGraphModel>
  </diagram>
</mxfile>
